<?xml version="1.0" encoding="UTF-8" standalone="no"?>
<!-- Created with Inkscape (http://www.inkscape.org/) -->

<svg
   xmlns:ns0="http://www.iki.fi/pav/software/textext/"
   xmlns:dc="http://purl.org/dc/elements/1.1/"
   xmlns:cc="http://creativecommons.org/ns#"
   xmlns:rdf="http://www.w3.org/1999/02/22-rdf-syntax-ns#"
   xmlns:svg="http://www.w3.org/2000/svg"
   xmlns="http://www.w3.org/2000/svg"
   xmlns:sodipodi="http://sodipodi.sourceforge.net/DTD/sodipodi-0.dtd"
   xmlns:inkscape="http://www.inkscape.org/namespaces/inkscape"
   sodipodi:docname="modelo.pdf"
   width="436.99582"
   height="230.71468"
   id="svg2"
   version="1.1"
   inkscape:version="0.48.4 r9939">
  <sodipodi:namedview
     id="base"
     pagecolor="#ffffff"
     bordercolor="#666666"
     borderopacity="1.0"
     inkscape:pageopacity="0.0"
     inkscape:pageshadow="2"
     inkscape:zoom="1"
     inkscape:cx="101.45916"
     inkscape:cy="84.099071"
     inkscape:document-units="px"
     inkscape:current-layer="svg2"
     showgrid="false"
     inkscape:window-width="1366"
     inkscape:window-height="744"
     inkscape:window-x="0"
     inkscape:window-y="24"
     inkscape:window-maximized="1"
     units="cm"
     fit-margin-top="0"
     fit-margin-left="0"
     fit-margin-right="0"
     fit-margin-bottom="0" />
  <defs
     id="defs4">
    <marker
       style="overflow:visible"
       id="Arrow1Mend"
       refX="0"
       refY="0"
       orient="auto"
       inkscape:stockid="Arrow1Mend">
      <path
         inkscape:connector-curvature="0"
         transform="matrix(-0.4,0,0,-0.4,-4,0)"
         style="fill-rule:evenodd;stroke:#000000;stroke-width:1pt"
         d="M 0,0 5,-5 -12.5,0 5,5 0,0 z"
         id="path3931" />
    </marker>
    <marker
       style="overflow:visible"
       id="Arrow1Lend"
       refX="0"
       refY="0"
       orient="auto"
       inkscape:stockid="Arrow1Lend">
      <path
         inkscape:connector-curvature="0"
         transform="matrix(-0.8,0,0,-0.8,-10,0)"
         style="fill-rule:evenodd;stroke:#000000;stroke-width:1pt"
         d="M 0,0 5,-5 -12.5,0 5,5 0,0 z"
         id="path3925" />
    </marker>
    <marker
       style="overflow:visible"
       id="Arrow1Lend-4"
       refX="0"
       refY="0"
       orient="auto"
       inkscape:stockid="Arrow1Lend">
      <path
         transform="matrix(-0.8,0,0,-0.8,-10,0)"
         style="fill-rule:evenodd;stroke:#000000;stroke-width:1pt"
         d="M 0,0 5,-5 -12.5,0 5,5 0,0 z"
         id="path3925-6"
         inkscape:connector-curvature="0" />
    </marker>
    <marker
       style="overflow:visible"
       id="Arrow1Lend-7"
       refX="0"
       refY="0"
       orient="auto"
       inkscape:stockid="Arrow1Lend">
      <path
         transform="matrix(-0.8,0,0,-0.8,-10,0)"
         style="fill-rule:evenodd;stroke:#000000;stroke-width:1pt"
         d="M 0,0 5,-5 -12.5,0 5,5 0,0 z"
         id="path3925-2"
         inkscape:connector-curvature="0" />
    </marker>
    <marker
       inkscape:stockid="Arrow1Mend"
       orient="auto"
       refY="0"
       refX="0"
       id="Arrow1Mend-9"
       style="overflow:visible">
      <path
         id="path3931-5"
         d="M 0,0 5,-5 -12.5,0 5,5 0,0 z"
         style="fill-rule:evenodd;stroke:#000000;stroke-width:1pt"
         transform="matrix(-0.4,0,0,-0.4,-4,0)"
         inkscape:connector-curvature="0" />
    </marker>
    <marker
       inkscape:stockid="Arrow1Mend"
       orient="auto"
       refY="0"
       refX="0"
       id="marker8573"
       style="overflow:visible">
      <path
         id="path8575"
         d="M 0,0 5,-5 -12.5,0 5,5 0,0 z"
         style="fill-rule:evenodd;stroke:#000000;stroke-width:1pt"
         transform="matrix(-0.4,0,0,-0.4,-4,0)"
         inkscape:connector-curvature="0" />
    </marker>
    <marker
       inkscape:stockid="Arrow1Mend"
       orient="auto"
       refY="0"
       refX="0"
       id="Arrow1Mend-4"
       style="overflow:visible">
      <path
         id="path3931-7"
         d="M 0,0 5,-5 -12.5,0 5,5 0,0 z"
         style="fill-rule:evenodd;stroke:#000000;stroke-width:1pt"
         transform="matrix(-0.4,0,0,-0.4,-4,0)"
         inkscape:connector-curvature="0" />
    </marker>
    <marker
       inkscape:stockid="Arrow1Mend"
       orient="auto"
       refY="0"
       refX="0"
       id="marker8621"
       style="overflow:visible">
      <path
         id="path8623"
         d="M 0,0 5,-5 -12.5,0 5,5 0,0 z"
         style="fill-rule:evenodd;stroke:#000000;stroke-width:1pt"
         transform="matrix(-0.4,0,0,-0.4,-4,0)"
         inkscape:connector-curvature="0" />
    </marker>
    <marker
       style="overflow:visible"
       id="Arrow1Mend-7"
       refX="0"
       refY="0"
       orient="auto"
       inkscape:stockid="Arrow1Mend">
      <path
         inkscape:connector-curvature="0"
         transform="matrix(-0.4,0,0,-0.4,-4,0)"
         style="fill-rule:evenodd;stroke:#000000;stroke-width:1pt"
         d="M 0,0 5,-5 -12.5,0 5,5 0,0 z"
         id="path3931-54" />
    </marker>
    <marker
       style="overflow:visible"
       id="marker3169"
       refX="0"
       refY="0"
       orient="auto"
       inkscape:stockid="Arrow1Mend">
      <path
         inkscape:connector-curvature="0"
         transform="matrix(-0.4,0,0,-0.4,-4,0)"
         style="fill-rule:evenodd;stroke:#000000;stroke-width:1pt"
         d="M 0,0 5,-5 -12.5,0 5,5 0,0 z"
         id="path3171" />
    </marker>
    <marker
       style="overflow:visible"
       id="Arrow1Mend-71"
       refX="0"
       refY="0"
       orient="auto"
       inkscape:stockid="Arrow1Mend">
      <path
         inkscape:connector-curvature="0"
         transform="matrix(-0.4,0,0,-0.4,-4,0)"
         style="fill-rule:evenodd;stroke:#000000;stroke-width:1pt"
         d="M 0,0 5,-5 -12.5,0 5,5 0,0 z"
         id="path3931-4" />
    </marker>
    <marker
       style="overflow:visible"
       id="Arrow1Mend-98"
       refX="0"
       refY="0"
       orient="auto"
       inkscape:stockid="Arrow1Mend">
      <path
         inkscape:connector-curvature="0"
         transform="matrix(-0.4,0,0,-0.4,-4,0)"
         style="fill-rule:evenodd;stroke:#000000;stroke-width:1pt"
         d="M 0,0 5,-5 -12.5,0 5,5 0,0 z"
         id="path3931-1" />
    </marker>
    <marker
       style="overflow:visible"
       id="marker3252"
       refX="0"
       refY="0"
       orient="auto"
       inkscape:stockid="Arrow1Mend">
      <path
         inkscape:connector-curvature="0"
         transform="matrix(-0.4,0,0,-0.4,-4,0)"
         style="fill-rule:evenodd;stroke:#000000;stroke-width:1pt"
         d="M 0,0 5,-5 -12.5,0 5,5 0,0 z"
         id="path3254" />
    </marker>
    <marker
       style="overflow:visible"
       id="Arrow1Mend-6"
       refX="0"
       refY="0"
       orient="auto"
       inkscape:stockid="Arrow1Mend">
      <path
         inkscape:connector-curvature="0"
         transform="matrix(-0.4,0,0,-0.4,-4,0)"
         style="fill-rule:evenodd;stroke:#000000;stroke-width:1pt"
         d="M 0,0 5,-5 -12.5,0 5,5 0,0 z"
         id="path3931-6" />
    </marker>
    <marker
       style="overflow:visible"
       id="Arrow1Mend-8"
       refX="0"
       refY="0"
       orient="auto"
       inkscape:stockid="Arrow1Mend">
      <path
         inkscape:connector-curvature="0"
         transform="matrix(-0.4,0,0,-0.4,-4,0)"
         style="fill-rule:evenodd;stroke:#000000;stroke-width:1pt"
         d="M 0,0 5,-5 -12.5,0 5,5 0,0 z"
         id="path3931-3" />
    </marker>
    <marker
       style="overflow:visible"
       id="Arrow1Mend-2"
       refX="0"
       refY="0"
       orient="auto"
       inkscape:stockid="Arrow1Mend">
      <path
         inkscape:connector-curvature="0"
         transform="matrix(-0.4,0,0,-0.4,-4,0)"
         style="fill-rule:evenodd;stroke:#000000;stroke-width:1pt"
         d="M 0,0 5,-5 -12.5,0 5,5 0,0 z"
         id="path3931-0" />
    </marker>
  </defs>
  <metadata
     id="metadata7">
    <rdf:RDF>
      <cc:Work
         rdf:about="">
        <dc:format>image/svg+xml</dc:format>
        <dc:type
           rdf:resource="http://purl.org/dc/dcmitype/StillImage" />
        <dc:title></dc:title>
      </cc:Work>
    </rdf:RDF>
  </metadata>
  <path
     inkscape:connector-curvature="0"
     id="path3454"
     d="M 249.8374,161.284 C 369.395,88.366263 369.395,88.366263 369.395,88.366263"
     style="fill:none;stroke:#000000;stroke-width:0.75146544px;stroke-linecap:butt;stroke-linejoin:miter;stroke-opacity:1" />
  <path
     transform="matrix(0.81778099,-0.19818791,0.19818791,0.81778099,146.90791,86.955601)"
     d="m 168,94.763763 a 7,7 0 1 1 -14,0 7,7 0 1 1 14,0 z"
     sodipodi:ry="7"
     sodipodi:rx="7"
     sodipodi:cy="94.763763"
     sodipodi:cx="161"
     id="path3458-0-9"
     sodipodi:type="arc" />
  <text
     sodipodi:linespacing="100%"
     id="text3528-9"
     y="159.53827"
     x="291.19113"
     style="font-size:25.27910995px;font-style:normal;font-weight:normal;line-height:100%;letter-spacing:0px;word-spacing:0px;fill:#000000;fill-opacity:1;stroke:none;font-family:Sans"
     xml:space="preserve"><tspan
       style="font-size:17.69537354px;line-height:100%"
       y="159.53827"
       x="291.19113"
       id="tspan3530-2"
       sodipodi:role="line">P</tspan></text>
  <text
     sodipodi:linespacing="100%"
     id="text3528-96"
     y="230.71468"
     x="274.41251"
     style="font-size:25.27910995px;font-style:normal;font-weight:normal;line-height:100%;letter-spacing:0px;word-spacing:0px;fill:#000000;fill-opacity:1;stroke:none;font-family:Sans"
     xml:space="preserve"><tspan
       style="font-size:17.69537354px;line-height:100%"
       y="230.71468"
       x="274.41251"
       id="tspan3530-6"
       sodipodi:role="line">RD</tspan></text>
  <rect
     transform="matrix(0.60244799,-0.79815814,0.79815814,0.60244799,0,0)"
     y="343.19189"
     x="126.49743"
     height="10.114962"
     width="52.954777"
     id="rect5900-9"
     style="fill:none;stroke:#000000;stroke-width:2.79606891;stroke-miterlimit:4;stroke-opacity:1;stroke-dasharray:none;stroke-dashoffset:0" />
  <rect
     transform="matrix(0.85626381,-0.51653875,0.51653875,0.85626381,0,0)"
     y="262.1958"
     x="104.79205"
     height="10.114962"
     width="52.954773"
     id="rect5900-6"
     style="fill:none;stroke:#000000;stroke-width:2.79606891;stroke-miterlimit:4;stroke-opacity:1;stroke-dasharray:none;stroke-dashoffset:0" />
  <g
     transform="translate(-35.377051,-81.787501)"
     style="display:inline"
     inkscape:label="Pneus"
     id="layer4"
     inkscape:groupmode="layer" />
  <path
     transform="matrix(0.40483458,-0.09811094,0.09811094,0.40483458,175.39483,138.57432)"
     d="m 168,94.763763 a 7,7 0 1 1 -14,0 7,7 0 1 1 14,0 z"
     sodipodi:ry="7"
     sodipodi:rx="7"
     sodipodi:cy="94.763763"
     sodipodi:cx="161"
     id="path3458-0-9-3-1-3"
     sodipodi:type="arc" />
  <path
     transform="matrix(0.40483458,-0.09811094,0.09811094,0.40483458,295.26314,65.691509)"
     d="m 168,94.763763 a 7,7 0 1 1 -14,0 7,7 0 1 1 14,0 z"
     sodipodi:ry="7"
     sodipodi:rx="7"
     sodipodi:cy="94.763763"
     sodipodi:cx="161"
     id="path3458-0-9-3-1-8"
     sodipodi:type="arc" />
  <text
     sodipodi:linespacing="125%"
     id="text3116"
     y="365.25192"
     x="152.00624"
     style="font-size:40px;font-style:normal;font-weight:normal;line-height:125%;letter-spacing:0px;word-spacing:0px;fill:#000000;fill-opacity:1;stroke:none;font-family:Sans"
     xml:space="preserve"><tspan
       y="365.25192"
       x="152.00624"
       id="tspan3118"
       sodipodi:role="line" /></text>
  <rect
     transform="matrix(0.85626381,-0.51653875,0.51653875,0.85626381,0,0)"
     y="212.76825"
     x="104.26463"
     height="10.114962"
     width="52.954773"
     id="rect5900-6-3"
     style="fill:none;stroke:#000000;stroke-width:1.39803445;stroke-miterlimit:4;stroke-opacity:1;stroke-dasharray:1.39803357, 1.39803357;stroke-dashoffset:0" />
  <rect
     transform="matrix(0.85626381,-0.51653875,0.51653875,0.85626381,0,0)"
     y="311.34943"
     x="104.65"
     height="10.114962"
     width="52.954773"
     id="rect5900-6-3-9"
     style="fill:none;stroke:#000000;stroke-width:1.39803445;stroke-miterlimit:4;stroke-opacity:1;stroke-dasharray:1.39803357, 1.39803357;stroke-dashoffset:0" />
  <rect
     transform="matrix(0.60244799,-0.79815814,0.79815814,0.60244799,0,0)"
     y="296.5838"
     x="125.82497"
     height="10.114962"
     width="52.954777"
     id="rect5900-9-2"
     style="fill:none;stroke:#000000;stroke-width:1.39803445;stroke-miterlimit:4;stroke-opacity:1;stroke-dasharray:1.39803416, 1.39803416;stroke-dashoffset:0" />
  <rect
     transform="matrix(0.60244799,-0.79815814,0.79815814,0.60244799,0,0)"
     y="391.34128"
     x="127.76836"
     height="10.114962"
     width="52.954777"
     id="rect5900-9-5"
     style="fill:none;stroke:#000000;stroke-width:1.39803445;stroke-miterlimit:4;stroke-opacity:1;stroke-dasharray:1.39803416, 1.39803416;stroke-dashoffset:0" />
  <path
     inkscape:connector-curvature="0"
     id="path3454-7"
     d="M 332.30155,59.999693 C 371.39996,89.48725 371.39996,89.48725 371.39996,89.48725"
     style="fill:none;stroke:#000000;stroke-width:1.24238658;stroke-linecap:butt;stroke-linejoin:miter;stroke-miterlimit:4;stroke-opacity:1;stroke-dasharray:none" />
  <path
     inkscape:connector-curvature="0"
     id="path3454-7-4"
     d="m 369.47302,88.558035 c 39.09841,29.487555 39.09841,29.487555 39.09841,29.487555"
     style="fill:none;stroke:#000000;stroke-width:1.24238658;stroke-linecap:butt;stroke-linejoin:miter;stroke-miterlimit:4;stroke-opacity:1;stroke-dasharray:none" />
  <path
     transform="matrix(0.40483458,-0.09811094,0.09811094,0.40483458,257.8853,37.51205)"
     d="m 168,94.763763 a 7,7 0 1 1 -14,0 7,7 0 1 1 14,0 z"
     sodipodi:ry="7"
     sodipodi:rx="7"
     sodipodi:cy="94.763763"
     sodipodi:cx="161"
     id="path3458-0-9-3-1-8-2"
     sodipodi:type="arc" />
  <path
     transform="matrix(0.40483458,-0.09811094,0.09811094,0.40483458,333.67486,95.178029)"
     d="m 168,94.763763 a 7,7 0 1 1 -14,0 7,7 0 1 1 14,0 z"
     sodipodi:ry="7"
     sodipodi:rx="7"
     sodipodi:cy="94.763763"
     sodipodi:cx="161"
     id="path3458-0-9-3-1-8-5"
     sodipodi:type="arc" />
  <path
     inkscape:connector-curvature="0"
     id="path3454-7-5"
     d="m 224.94548,118.68006 c 24.69811,42.28718 24.69811,42.28718 24.69811,42.28718"
     style="fill:none;stroke:#000000;stroke-width:1.24238658;stroke-linecap:butt;stroke-linejoin:miter;stroke-miterlimit:4;stroke-opacity:1;stroke-dasharray:none" />
  <path
     inkscape:connector-curvature="0"
     id="path3454-7-5-3"
     d="m 250.47676,161.85354 c 24.69811,42.28717 24.69811,42.28717 24.69811,42.28717"
     style="fill:none;stroke:#000000;stroke-width:1.24238658;stroke-linecap:butt;stroke-linejoin:miter;stroke-miterlimit:4;stroke-opacity:1;stroke-dasharray:none" />
  <path
     transform="matrix(0.40483458,-0.09811094,0.09811094,0.40483458,149.80277,96.496114)"
     d="m 168,94.763763 a 7,7 0 1 1 -14,0 7,7 0 1 1 14,0 z"
     sodipodi:ry="7"
     sodipodi:rx="7"
     sodipodi:cy="94.763763"
     sodipodi:cx="161"
     id="path3458-0-9-3-1-3-0"
     sodipodi:type="arc" />
  <path
     inkscape:transform-center-y="-9.0617952"
     transform="matrix(0.40483458,-0.09811094,0.09811094,0.40483458,200.54884,181.01796)"
     d="m 168,94.763763 a 7,7 0 1 1 -14,0 7,7 0 1 1 14,0 z"
     sodipodi:ry="7"
     sodipodi:rx="7"
     sodipodi:cy="94.763763"
     sodipodi:cx="161"
     id="path3458-0-9-3-1-3-09"
     sodipodi:type="arc" />
  <text
     sodipodi:linespacing="100%"
     id="text3528-96-9"
     y="111.80356"
     x="187.21994"
     style="font-size:25.27910995px;font-style:normal;font-weight:normal;line-height:100%;letter-spacing:0px;word-spacing:0px;fill:#000000;fill-opacity:1;stroke:none;font-family:Sans"
     xml:space="preserve"><tspan
       style="font-size:17.69537354px;line-height:100%"
       y="111.80356"
       x="187.21994"
       id="tspan3530-6-5"
       sodipodi:role="line">RE</tspan></text>
  <text
     sodipodi:linespacing="100%"
     id="text3528-96-0"
     y="58.803558"
     x="290.71994"
     style="font-size:25.27910995px;font-style:normal;font-weight:normal;line-height:100%;letter-spacing:0px;word-spacing:0px;fill:#000000;fill-opacity:1;stroke:none;font-family:Sans"
     xml:space="preserve"><tspan
       style="font-size:17.69537354px;line-height:100%"
       y="58.803558"
       x="290.71994"
       id="tspan3530-6-9"
       sodipodi:role="line">FE</tspan></text>
  <text
     sodipodi:linespacing="100%"
     id="text3528-96-6"
     y="137.80356"
     x="414.21994"
     style="font-size:25.27910995px;font-style:normal;font-weight:normal;line-height:100%;letter-spacing:0px;word-spacing:0px;fill:#000000;fill-opacity:1;stroke:none;font-family:Sans"
     xml:space="preserve"><tspan
       style="font-size:17.69537354px;line-height:100%"
       y="137.80356"
       x="414.21994"
       id="tspan3530-6-8"
       sodipodi:role="line">FD</tspan></text>
  <path
     style="fill:none;stroke:#000000;stroke-width:1.517452;stroke-linecap:butt;stroke-linejoin:miter;stroke-miterlimit:4;stroke-opacity:1;stroke-dasharray:none;marker-end:url(#Arrow1Mend)"
     d="M 297.80725,131.64346 332.47952,110.5267"
     id="path5959-0-3-8"
     inkscape:connector-curvature="0" />
  <path
     style="fill:none;stroke:#000000;stroke-width:1.517452;stroke-linecap:butt;stroke-linejoin:miter;stroke-miterlimit:4;stroke-opacity:1;stroke-dasharray:none;marker-end:url(#Arrow1Mend)"
     d="M 296.12106,131.27864 275.09618,96.550574"
     id="path5959-0-3-5-9"
     inkscape:connector-curvature="0" />
  <g
     style="font-style:normal;font-variant:normal;font-weight:normal;font-stretch:normal;letter-spacing:normal;word-spacing:normal;text-anchor:start;fill:none;stroke:#000000;stroke-linecap:butt;stroke-linejoin:miter;stroke-miterlimit:10.43299961;stroke-opacity:1;stroke-dasharray:none;stroke-dashoffset:0"
     ns0:preamble=""
     ns0:text="\\[\\mathbf{n}_x\\]"
     word-spacing="normal"
     letter-spacing="normal"
     font-size-adjust="none"
     font-stretch="normal"
     font-weight="normal"
     font-variant="normal"
     font-style="normal"
     stroke-miterlimit="10.433"
     xml:space="preserve"
     transform="matrix(1.5752641,0,0,-1.5752641,-276.44086,1238.7455)"
     id="content"><path
       style="fill:#000000;stroke-width:0"
       inkscape:connector-curvature="0"
       id="path3527"
       d="m 390.73,710.66 v -3.07 h -0.68 v -0.47 c 0.27,0.02 0.87,0.04 1.25,0.04 0.39,0 0.97,-0.02 1.25,-0.04 v 0.47 h -0.69 v 2.08 c 0,1.08 0.86,1.57 1.49,1.57 0.34,0 0.54,-0.21 0.54,-0.97 v -2.68 h -0.68 v -0.47 c 0.28,0.02 0.87,0.04 1.25,0.04 0.39,0 0.98,-0.02 1.26,-0.04 v 0.47 h -0.69 v 2.57 c 0,1.05 -0.54,1.43 -1.53,1.43 -0.96,0 -1.48,-0.56 -1.74,-1.07 v 1.07 l -1.71,-0.07 v -0.47 c 0.61,0 0.68,0 0.68,-0.39 z" /><path
       style="fill:#000000;stroke-width:0"
       inkscape:connector-curvature="0"
       id="path3529"
       d="m 397.7,706.37 -0.01,-0.02 -0.01,-0.03 -0.01,-0.02 -0.01,-0.03 -0.01,-0.02 -0.01,-0.03 -0.01,-0.02 -0.02,-0.03 -0.01,-0.02 -0.01,-0.03 -0.02,-0.02 -0.02,-0.03 -0.02,-0.02 -0.01,-0.03 -0.02,-0.02 -0.02,-0.03 -0.02,-0.02 -0.03,-0.02 -0.02,-0.02 -0.02,-0.02 -0.03,-0.02 -0.02,-0.02 -0.03,-0.02 -0.03,-0.01 -0.02,-0.02 -0.03,-0.01 -0.03,-0.01 -0.03,-0.01 -0.03,0 -0.03,-0.01 -0.04,0 -0.03,0 c -0.02,0 -0.23,0 -0.37,0.09 0.28,0.09 0.3,0.34 0.3,0.39 0,0.15 -0.12,0.25 -0.28,0.25 -0.19,0 -0.39,-0.16 -0.39,-0.42 0,-0.35 0.39,-0.51 0.73,-0.51 0.32,0 0.6,0.2 0.78,0.49 0.17,-0.36 0.55,-0.49 0.83,-0.49 0.8,0 1.22,0.87 1.22,1.06 0,0.1 -0.09,0.1 -0.11,0.1 -0.1,0 -0.1,-0.04 -0.13,-0.12 -0.15,-0.48 -0.57,-0.84 -0.96,-0.84 -0.27,0 -0.42,0.18 -0.42,0.45 0,0.18 0.17,0.81 0.36,1.58 0.14,0.54 0.45,0.71 0.68,0.71 0.02,0 0.23,0 0.38,-0.09 -0.22,-0.07 -0.31,-0.26 -0.31,-0.39 0,-0.15 0.12,-0.25 0.28,-0.25 0.16,0 0.39,0.13 0.39,0.42 0,0.39 -0.44,0.51 -0.72,0.51 -0.35,0 -0.63,-0.23 -0.78,-0.5 -0.13,0.29 -0.45,0.5 -0.84,0.5 -0.78,0 -1.22,-0.86 -1.22,-1.07 0,-0.09 0.09,-0.09 0.12,-0.09 0.09,0 0.09,0.03 0.13,0.12 0.17,0.54 0.61,0.84 0.95,0.84 0.23,0 0.42,-0.12 0.42,-0.46 0,-0.13 -0.08,-0.48 -0.15,-0.72 z" /></g>  <g
     style="font-style:normal;font-variant:normal;font-weight:normal;font-stretch:normal;letter-spacing:normal;word-spacing:normal;text-anchor:start;fill:none;stroke:#000000;stroke-linecap:butt;stroke-linejoin:miter;stroke-miterlimit:10.43299961;stroke-opacity:1;stroke-dasharray:none;stroke-dashoffset:0"
     ns0:preamble=""
     ns0:text="\\[\\mathbf{n}_y\\]"
     word-spacing="normal"
     letter-spacing="normal"
     font-size-adjust="none"
     font-stretch="normal"
     font-weight="normal"
     font-variant="normal"
     font-style="normal"
     stroke-miterlimit="10.433"
     xml:space="preserve"
     transform="matrix(1.5752641,0,0,-1.5752641,-357.7541,1210.7963)"
     id="g3814"><path
       id="path3816"
       d="m 390.85,710.66 v -3.07 h -0.69 v -0.47 c 0.28,0.02 0.87,0.04 1.25,0.04 0.39,0 0.98,-0.02 1.26,-0.04 v 0.47 h -0.69 v 2.08 c 0,1.08 0.85,1.57 1.48,1.57 0.34,0 0.55,-0.21 0.55,-0.97 v -2.68 h -0.69 v -0.47 c 0.28,0.02 0.88,0.04 1.26,0.04 0.38,0 0.97,-0.02 1.25,-0.04 v 0.47 h -0.69 v 2.57 c 0,1.05 -0.53,1.43 -1.53,1.43 -0.95,0 -1.48,-0.56 -1.74,-1.07 v 1.07 l -1.71,-0.07 v -0.47 c 0.62,0 0.69,0 0.69,-0.39 z"
       inkscape:connector-curvature="0"
       style="fill:#000000;stroke-width:0" /><path
       id="path3818"
       d="m 399.95,708.25 0,0.01 0,0 0,0.01 0,0 0,0 0.01,0.01 0,0.01 0,0 0,0.01 0,0.01 0,0 0.01,0.01 0,0 0,0.01 0,0 0,0.01 0,0 0,0.01 0,0 0,0 0,0.01 0,0 0,0 0.01,0.01 0,0.01 0,0 0,0.01 0,0 0,0.01 0,0 0,0.01 c 0,0.13 -0.12,0.22 -0.23,0.22 -0.08,0 -0.21,-0.04 -0.29,-0.17 -0.02,-0.04 -0.08,-0.26 -0.11,-0.4 l -0.15,-0.58 c -0.04,-0.17 -0.25,-1.04 -0.28,-1.12 0,0 -0.31,-0.6 -0.85,-0.6 -0.48,0 -0.48,0.45 -0.48,0.57 0,0.38 0.16,0.82 0.37,1.35 0.09,0.23 0.12,0.31 0.12,0.43 0,0.33 -0.28,0.59 -0.66,0.59 -0.7,0 -1.02,-0.95 -1.02,-1.07 0,-0.09 0.1,-0.09 0.12,-0.09 0.1,0 0.11,0.04 0.13,0.11 0.17,0.58 0.47,0.85 0.75,0.85 0.12,0 0.17,-0.07 0.17,-0.24 0,-0.16 -0.06,-0.31 -0.09,-0.4 -0.34,-0.85 -0.41,-1.11 -0.41,-1.41 0,-0.12 0,-0.45 0.27,-0.67 0.22,-0.18 0.51,-0.22 0.7,-0.22 0.28,0 0.53,0.11 0.76,0.31 -0.09,-0.38 -0.17,-0.67 -0.46,-1.02 -0.19,-0.21 -0.47,-0.44 -0.84,-0.44 -0.05,0 -0.37,0 -0.52,0.23 0.38,0.04 0.38,0.37 0.38,0.38 0,0.22 -0.2,0.26 -0.27,0.26 -0.18,0 -0.41,-0.14 -0.41,-0.46 0,-0.35 0.34,-0.61 0.83,-0.61 0.7,0 1.56,0.55 1.78,1.41 z"
       inkscape:connector-curvature="0"
       style="fill:#000000;stroke-width:0" /></g>  <path
     style="opacity:0.5;fill:#4d4d4d;stroke:#666666;stroke-width:0.77100003;stroke-linecap:butt;stroke-linejoin:miter;stroke-miterlimit:4;stroke-opacity:1;stroke-dasharray:none"
     d="M 197.39769,77.301399 C 313.8526,5.5651311 313.8526,5.5651311 313.8526,5.5651311"
     id="path3454-8"
     inkscape:connector-curvature="0" />
  <path
     style="opacity:0.5;fill:none;stroke:#666666;stroke-width:0.9380163px;stroke-linecap:butt;stroke-linejoin:miter;stroke-opacity:1"
     d="m 194.54682,71.796152 c 6.10311,9.941962 6.10311,9.941962 6.10311,9.941962"
     id="path3786-4-3-7-6"
     inkscape:connector-curvature="0" />
  <path
     style="opacity:0.5;fill:none;stroke:#666666;stroke-width:0.9380163px;stroke-linecap:butt;stroke-linejoin:miter;stroke-opacity:1"
     d="m 238.6681,44.111881 c 6.10312,9.941955 6.10312,9.941955 6.10312,9.941955"
     id="path3786-4-3-7-68"
     inkscape:connector-curvature="0" />
  <path
     style="opacity:0.5;fill:none;stroke:#666666;stroke-width:0.9380163px;stroke-linecap:butt;stroke-linejoin:miter;stroke-opacity:1"
     d="m 310.3339,0.46900815 c 6.10312,9.94195585 6.10312,9.94195585 6.10312,9.94195585"
     id="path3786-4-3-7-2"
     inkscape:connector-curvature="0" />
  <g
     id="g3306"
     transform="matrix(1.7143759,0,0,-1.7143759,-410.86097,1233.106)"
     xml:space="preserve"
     stroke-miterlimit="10.433"
     font-style="normal"
     font-variant="normal"
     font-weight="normal"
     font-stretch="normal"
     font-size-adjust="none"
     letter-spacing="normal"
     word-spacing="normal"
     ns0:text="\\[a\\]"
     ns0:preamble="/home/andre/Copy/Inkscape/preamble.ini"
     style="font-style:normal;font-variant:normal;font-weight:normal;font-stretch:normal;letter-spacing:normal;word-spacing:normal;text-anchor:start;fill:none;stroke:#000000;stroke-linecap:butt;stroke-linejoin:miter;stroke-miterlimit:10.43299961;stroke-opacity:1;stroke-dasharray:none;stroke-dashoffset:0"><path
       style="fill:#000000;stroke-width:0"
       inkscape:connector-curvature="0"
       d="m 396.37,710.88 -0.02,0.03 -0.02,0.04 -0.02,0.03 -0.02,0.03 -0.02,0.03 -0.02,0.03 -0.02,0.03 -0.02,0.03 -0.02,0.03 -0.03,0.03 -0.02,0.03 -0.02,0.02 -0.03,0.03 -0.03,0.02 -0.02,0.02 -0.03,0.03 -0.03,0.02 -0.03,0.02 -0.03,0.01 -0.03,0.02 -0.03,0.02 -0.03,0.01 -0.04,0.02 -0.03,0.01 -0.04,0.01 -0.03,0.01 -0.04,0.01 -0.04,0 -0.04,0.01 -0.04,0 -0.04,0.01 -0.04,0 c -1.16,0 -2.4,-1.47 -2.4,-2.92 0,-0.93 0.55,-1.58 1.33,-1.58 l 0.02,0.21 c -0.5,0 -0.64,0.55 -0.64,0.94 0,0.49 0.32,1.72 0.55,2.17 0.3,0.59 0.75,0.96 1.15,0.96 0.65,0 0.79,-0.82 0.79,-0.88 0,-0.06 -0.02,-0.12 -0.03,-0.17 l -0.5,-1.94 c -0.05,-0.18 -0.05,-0.2 -0.2,-0.37 -0.44,-0.55 -0.85,-0.71 -1.12,-0.71 l -0.02,-0.21 c 0.2,0 0.69,0.03 1.29,0.74 0.08,-0.42 0.43,-0.74 0.91,-0.74 0.34,0 0.57,0.22 0.73,0.54 0.17,0.36 0.3,0.97 0.3,0.99 0,0.1 -0.09,0.1 -0.12,0.1 -0.1,0 -0.11,-0.05 -0.14,-0.18 -0.17,-0.65 -0.35,-1.24 -0.75,-1.24 -0.27,0 -0.3,0.26 -0.3,0.46 0,0.22 0.02,0.3 0.13,0.74 0.11,0.41 0.12,0.51 0.21,0.89 l 0.36,1.39 c 0.07,0.28 0.07,0.3 0.07,0.34 0,0.17 -0.12,0.27 -0.29,0.27 -0.23,0 -0.38,-0.22 -0.41,-0.44 z"
       id="path3308" /></g>  <g
     style="font-style:normal;font-variant:normal;font-weight:normal;font-stretch:normal;letter-spacing:normal;word-spacing:normal;text-anchor:start;fill:none;stroke:#000000;stroke-linecap:butt;stroke-linejoin:miter;stroke-miterlimit:10.43299961;stroke-opacity:1;stroke-dasharray:none;stroke-dashoffset:0"
     ns0:preamble="/home/andre/Copy/Inkscape/preamble.ini"
     ns0:text="\\[b\\]"
     word-spacing="normal"
     letter-spacing="normal"
     font-size-adjust="none"
     font-stretch="normal"
     font-weight="normal"
     font-variant="normal"
     font-style="normal"
     stroke-miterlimit="10.433"
     xml:space="preserve"
     transform="matrix(1.8116451,0,0,-1.8116451,-504.42009,1333.7547)"
     id="content-5"><path
       style="fill:#000000;stroke-width:0"
       inkscape:connector-curvature="0"
       id="path3636"
       d="m 395.53,713.91 0,0 0,0 0,0 0,0 0,0.01 0,0 0,0 0,0.01 0,0 0,0.01 -0.01,0 0,0 0,0.01 0,0 0,0.01 -0.01,0 0,0.01 0,0 -0.01,0.01 0,0 0,0.01 -0.01,0 0,0 0,0 0,0.01 -0.01,0 0,0 0,0 -0.01,0 0,0.01 0,0 -0.01,0 0,0 -0.01,0 0,0 0,0 -0.01,0 0,0.01 -0.01,0 0,0 -0.01,0 0,0 -0.01,0 -0.01,0 0,0 c -0.23,0 -0.96,-0.08 -1.22,-0.1 -0.07,-0.01 -0.18,-0.02 -0.18,-0.2 0,-0.12 0.08,-0.12 0.23,-0.12 0.48,0 0.5,-0.07 0.5,-0.17 0,-0.07 -0.09,-0.4 -0.14,-0.61 l -0.81,-3.24 c -0.12,-0.5 -0.16,-0.66 -0.16,-1 0,-0.95 0.52,-1.56 1.26,-1.56 v 0.21 c -0.34,0 -0.67,0.27 -0.67,1.01 0,0.19 0,0.37 0.16,1 l 0.22,0.92 c 0.06,0.21 0.06,0.23 0.15,0.34 0.49,0.65 0.94,0.8 1.2,0.8 0.35,0 0.62,-0.3 0.62,-0.94 0,-0.58 -0.33,-1.72 -0.51,-2.1 -0.32,-0.67 -0.78,-1.03 -1.17,-1.03 v -0.21 c 1.17,0 2.4,1.48 2.4,2.91 0,0.9 -0.53,1.59 -1.32,1.59 -0.46,0 -0.87,-0.29 -1.17,-0.6 z" /></g>  <path
     style="opacity:0.5;fill:none;stroke:#666666;stroke-width:1px;stroke-linecap:butt;stroke-linejoin:miter;stroke-opacity:1"
     d="m 189.53035,139.35356 50.5,84.5"
     id="path3905"
     inkscape:connector-curvature="0" />
  <path
     style="opacity:0.5;fill:none;stroke:#666666;stroke-width:0.76999998;stroke-linecap:butt;stroke-linejoin:miter;stroke-miterlimit:4;stroke-opacity:1;stroke-dasharray:none"
     d="m 184.00132,142.27739 c 10.57027,-6.14918 10.57027,-6.14918 10.57027,-6.14918"
     id="path3786-4-3-7-6-9"
     inkscape:connector-curvature="0" />
  <path
     style="opacity:0.5;fill:none;stroke:#666666;stroke-width:0.76999998;stroke-linecap:butt;stroke-linejoin:miter;stroke-miterlimit:4;stroke-opacity:1;stroke-dasharray:none"
     d="m 235.27422,226.71316 c 10.57027,-6.14918 10.57027,-6.14918 10.57027,-6.14918"
     id="path3786-4-3-7-6-9-0"
     inkscape:connector-curvature="0" />
  <g
     id="g4869"
     transform="matrix(1.8116451,0,0,-1.8116451,-519.3847,1483.0636)"
     xml:space="preserve"
     stroke-miterlimit="10.433"
     font-style="normal"
     font-variant="normal"
     font-weight="normal"
     font-stretch="normal"
     font-size-adjust="none"
     letter-spacing="normal"
     word-spacing="normal"
     ns0:text="\\[l\\]"
     ns0:preamble=""
     style="font-style:normal;font-variant:normal;font-weight:normal;font-stretch:normal;letter-spacing:normal;word-spacing:normal;text-anchor:start;fill:none;stroke:#000000;stroke-linecap:butt;stroke-linejoin:miter;stroke-miterlimit:10.43299961;stroke-opacity:1;stroke-dasharray:none;stroke-dashoffset:0"><path
       d="m 396.27,713.91 0,0 0,0 0,0 0,0 0,0.01 0,0 0,0 0,0.01 0,0 0,0.01 0,0 -0.01,0 0,0.01 0,0 0,0.01 0,0 -0.01,0.01 0,0 0,0.01 -0.01,0 0,0.01 0,0 -0.01,0 0,0 0,0.01 0,0 -0.01,0 0,0 0,0 -0.01,0.01 0,0 -0.01,0 0,0 0,0 -0.01,0 0,0 -0.01,0 0,0.01 -0.01,0 0,0 -0.01,0 0,0 -0.01,0 0,0 -0.01,0 c -0.23,0 -0.96,-0.08 -1.21,-0.1 -0.08,-0.01 -0.19,-0.02 -0.19,-0.21 0,-0.11 0.1,-0.11 0.25,-0.11 0.47,0 0.48,-0.09 0.48,-0.17 l -0.03,-0.2 -1.25,-4.96 c -0.03,-0.11 -0.05,-0.18 -0.05,-0.34 0,-0.57 0.44,-0.91 0.91,-0.91 0.32,0 0.57,0.19 0.74,0.55 0.18,0.38 0.3,0.96 0.3,0.98 0,0.1 -0.09,0.1 -0.12,0.1 -0.1,0 -0.11,-0.05 -0.14,-0.18 -0.17,-0.65 -0.36,-1.24 -0.75,-1.24 -0.3,0 -0.3,0.32 -0.3,0.46 0,0.24 0.01,0.29 0.06,0.48 z"
       id="path4871"
       inkscape:connector-curvature="0"
       style="fill:#000000;stroke-width:0" /></g>  <path
     inkscape:connector-curvature="0"
     id="path5959"
     d="M 297.50482,131.39197 317.67048,88.331669"
     style="fill:none;stroke:#000000;stroke-width:0.7187351;stroke-linecap:butt;stroke-linejoin:miter;stroke-miterlimit:4;stroke-opacity:1;stroke-dasharray:none;marker-end:url(#Arrow1Mend)" />
  <path
     transform="matrix(0.34206963,-0.53416117,0.5694467,0.25039337,115.49691,167.03743)"
     sodipodi:open="true"
     sodipodi:end="0.60706608"
     sodipodi:start="0"
     d="m 227.68838,210.68896 a 59.220192,59.220192 0 0 1 -10.58116,33.78277"
     sodipodi:ry="59.220192"
     sodipodi:rx="59.220192"
     sodipodi:cy="210.68896"
     sodipodi:cx="168.46819"
     id="path8322-3-8-6"
     style="fill:none;stroke:#000000;stroke-width:1.15115058;stroke-miterlimit:4;stroke-opacity:1;stroke-dasharray:none;stroke-dashoffset:0"
     sodipodi:type="arc" />
  <g
     style="font-style:normal;font-variant:normal;font-weight:normal;font-stretch:normal;letter-spacing:normal;word-spacing:normal;text-anchor:start;fill:none;stroke:#000000;stroke-linecap:butt;stroke-linejoin:miter;stroke-miterlimit:10.43299961;stroke-opacity:1;stroke-dasharray:none;stroke-dashoffset:0"
     ns0:preamble=""
     ns0:text="\\[\\alpha_P\\]"
     word-spacing="normal"
     letter-spacing="normal"
     font-size-adjust="none"
     font-stretch="normal"
     font-weight="normal"
     font-variant="normal"
     font-style="normal"
     stroke-miterlimit="10.433"
     xml:space="preserve"
     transform="matrix(1.4303185,0,0,-1.4303185,-235.76806,1110.0746)"
     id="g5061"><path
       id="path5063"
       d="m 393.53,709.47 0,0.07 -0.01,0.07 0,0.07 0,0.07 -0.02,0.13 -0.02,0.12 -0.02,0.12 -0.02,0.12 -0.04,0.1 -0.03,0.11 -0.04,0.09 -0.04,0.1 -0.05,0.08 -0.05,0.08 -0.05,0.08 -0.05,0.07 -0.06,0.07 -0.06,0.06 -0.06,0.05 -0.06,0.06 -0.07,0.05 -0.07,0.04 -0.06,0.04 -0.07,0.04 -0.07,0.03 -0.08,0.03 -0.07,0.02 -0.07,0.02 -0.07,0.02 -0.07,0.01 -0.07,0.01 -0.08,0.01 -0.07,0 -0.07,0.01 c -1.36,0 -2.67,-1.43 -2.67,-2.83 0,-0.92 0.6,-1.67 1.61,-1.67 l 0.02,0.21 c -0.6,0 -0.9,0.45 -0.9,1.09 0,0.48 0.26,1.56 0.58,2.06 0.47,0.73 1.01,0.92 1.35,0.92 0.99,0 0.99,-1.3 0.99,-2.08 0,-0.37 0,-0.94 0.02,-1.11 h 0 c -0.88,-0.77 -1.64,-0.88 -2.04,-0.88 l -0.02,-0.21 c 0.63,0 1.34,0.22 2.1,0.83 0.13,-0.53 0.46,-0.83 0.9,-0.83 0.53,0 0.84,0.54 0.84,0.7 0,0.07 -0.06,0.1 -0.12,0.1 -0.07,0 -0.1,-0.03 -0.13,-0.1 -0.18,-0.49 -0.54,-0.49 -0.56,-0.49 -0.3,0 -0.3,0.78 -0.3,1.02 0,0.21 0,0.23 0.09,0.34 0.94,1.18 1.15,2.33 1.15,2.34 0,0.02 -0.01,0.1 -0.12,0.1 -0.1,0 -0.1,-0.03 -0.15,-0.21 -0.18,-0.62 -0.51,-1.38 -0.97,-1.97 z"
       inkscape:connector-curvature="0"
       style="fill:#000000;stroke-width:0" /><path
       id="path5065"
       d="m 397.53,707.79 0.03,0.22 0.47,1.88 c 0.05,0.22 0.06,0.24 0.35,0.24 h 0.82 c 0.65,0 1.05,-0.2 1.05,-0.69 0,-0.21 -0.08,-0.76 -0.43,-1.08 -0.25,-0.22 -0.65,-0.35 -1.15,-0.35 h -1.11 l -0.03,-0.22 h 1.26 c 1.17,0 2.17,0.75 2.17,1.51 0,0.58 -0.57,1.08 -1.52,1.08 H 397 c -0.14,0 -0.22,0 -0.22,-0.15 0,-0.1 0.07,-0.1 0.23,-0.1 0.11,0 0.13,0 0.26,-0.01 0.14,-0.02 0.15,-0.03 0.15,-0.1 0,-0.01 0,-0.05 -0.03,-0.15 l -0.91,-3.67 c -0.07,-0.27 -0.08,-0.32 -0.62,-0.32 -0.13,0 -0.21,0 -0.21,-0.15 0,-0.01 0,-0.1 0.11,-0.1 0.2,0 0.7,0.03 0.9,0.03 0.12,0 0.37,0 0.48,-0.01 0.14,0 0.32,-0.02 0.45,-0.02 0.04,0 0.15,0 0.15,0.15 0,0.1 -0.09,0.1 -0.23,0.1 0,0 -0.13,0 -0.26,0.02 -0.16,0.01 -0.16,0.03 -0.16,0.1 0,0.01 0,0.05 0.03,0.15 z"
       inkscape:connector-curvature="0"
       style="fill:#000000;stroke-width:0" /></g>  <g
     id="g5240"
     transform="matrix(1.3172694,0,0,-1.3172694,-215.76994,1024.9956)"
     xml:space="preserve"
     stroke-miterlimit="10.433"
     font-style="normal"
     font-variant="normal"
     font-weight="normal"
     font-stretch="normal"
     font-size-adjust="none"
     letter-spacing="normal"
     word-spacing="normal"
     ns0:text="\\[\\mathbf{v}_P\\]"
     ns0:preamble=""
     style="font-style:normal;font-variant:normal;font-weight:normal;font-stretch:normal;letter-spacing:normal;word-spacing:normal;text-anchor:start;fill:none;stroke:#000000;stroke-linecap:butt;stroke-linejoin:miter;stroke-miterlimit:10.43299961;stroke-opacity:1;stroke-dasharray:none;stroke-dashoffset:0"><path
       d="m 393.98,710.86 0.01,0.03 0.01,0.02 0.01,0.01 0,0.01 0.01,0.01 0.01,0.01 0.01,0.01 0.01,0.01 0.01,0.01 0.01,0.01 0.01,0.01 0.02,0 0.01,0.01 0.02,0.01 0.02,0 0.02,0.01 0.02,0 0.03,0.01 0.02,0 0.02,0.01 0.01,0 0.02,0 0.01,0 0.02,0 0.02,0.01 0.02,0 0.02,0 0.01,0 0.02,0 0.03,0 0.02,0 0.02,0 0.02,0.01 0.03,0 0.02,0 0.03,0 0.02,0 0.03,0 0.03,0 0.02,0 0.03,0 v 0.47 c -0.25,-0.02 -0.53,-0.03 -0.78,-0.03 -0.25,0 -0.7,0.02 -0.91,0.03 v -0.47 c 0.19,0 0.48,-0.03 0.48,-0.11 0,-0.01 -0.01,-0.03 -0.05,-0.12 l -1.15,-2.48 -1.27,2.71 h 0.54 v 0.47 c -0.33,-0.02 -1.22,-0.03 -1.23,-0.03 -0.28,0 -0.73,0.02 -1.14,0.03 v -0.47 h 0.64 l 1.74,-3.74 c 0.12,-0.24 0.25,-0.24 0.38,-0.24 0.17,0 0.27,0.02 0.37,0.23 z"
       id="path5242"
       inkscape:connector-curvature="0"
       style="fill:#000000;stroke-width:0" /><path
       d="m 397.36,707.79 0.03,0.22 0.48,1.88 c 0.05,0.22 0.06,0.24 0.35,0.24 h 0.82 c 0.64,0 1.05,-0.2 1.05,-0.69 0,-0.21 -0.09,-0.76 -0.43,-1.08 -0.26,-0.22 -0.65,-0.35 -1.15,-0.35 h -1.12 l -0.03,-0.22 h 1.26 c 1.18,0 2.18,0.75 2.18,1.51 0,0.58 -0.57,1.08 -1.53,1.08 h -2.43 c -0.14,0 -0.23,0 -0.23,-0.15 0,-0.1 0.08,-0.1 0.23,-0.1 0.11,0 0.14,0 0.27,-0.01 0.14,-0.02 0.15,-0.03 0.15,-0.1 0,-0.01 0,-0.05 -0.03,-0.15 l -0.92,-3.67 c -0.07,-0.27 -0.07,-0.32 -0.62,-0.32 -0.12,0 -0.21,0 -0.21,-0.15 0,-0.01 0,-0.1 0.12,-0.1 0.2,0 0.7,0.03 0.9,0.03 0.12,0 0.36,0 0.48,-0.01 0.14,0 0.32,-0.02 0.45,-0.02 0.04,0 0.14,0 0.14,0.15 0,0.1 -0.08,0.1 -0.22,0.1 -0.01,0 -0.14,0 -0.26,0.02 -0.16,0.01 -0.16,0.03 -0.16,0.1 0,0.01 0,0.05 0.02,0.15 z"
       id="path5244"
       inkscape:connector-curvature="0"
       style="fill:#000000;stroke-width:0" /></g>  <path
     inkscape:connector-curvature="0"
     id="path5957"
     d="m 297.14977,132.313 27.45569,0"
     style="fill:none;stroke:#000000;stroke-width:0.70130134;stroke-linecap:butt;stroke-linejoin:miter;stroke-miterlimit:4;stroke-opacity:1;stroke-dasharray:0.70130133, 1.40260266;stroke-dashoffset:0" />
  <path
     transform="matrix(0.06495073,-0.25065447,0.13338124,0.12205758,258.02326,227.99238)"
     sodipodi:open="true"
     sodipodi:end="1.1419173"
     sodipodi:start="0"
     d="M 520.78416,182.75826 A 50.381359,50.381359 0 0 1 491.35397,228.5767"
     sodipodi:ry="50.381359"
     sodipodi:rx="50.381359"
     sodipodi:cy="182.75826"
     sodipodi:cx="470.4028"
     id="path10762"
     style="fill:none;stroke:#000000;stroke-width:2.67691755;stroke-miterlimit:4;stroke-opacity:1;stroke-dasharray:none;stroke-dashoffset:0"
     sodipodi:type="arc" />
  <g
     style="font-style:normal;font-variant:normal;font-weight:normal;font-stretch:normal;letter-spacing:normal;word-spacing:normal;text-anchor:start;fill:none;stroke:#000000;stroke-linecap:butt;stroke-linejoin:miter;stroke-miterlimit:10.43299961;stroke-opacity:1;stroke-dasharray:none;stroke-dashoffset:0"
     ns0:preamble="/home/andre/Copy/Inkscape/preamble.ini"
     ns0:text="\\[\\psi\\]"
     word-spacing="normal"
     letter-spacing="normal"
     font-size-adjust="none"
     font-stretch="normal"
     font-weight="normal"
     font-variant="normal"
     font-style="normal"
     stroke-miterlimit="10.433"
     xml:space="preserve"
     transform="matrix(1.4133232,0,0,-1.4133232,-229.28717,1136.7368)"
     id="g12920"><path
       id="path12922"
       d="m 396.66,713.76 0,0 0,0.01 0,0.01 0.01,0.01 0,0 0,0.01 0,0.01 0.01,0.01 0,0.01 0,0.01 0,0.01 0,0.01 0.01,0.01 0,0.01 0,0.01 0,0.01 0,0 0,0.01 0,0 c 0,0.1 -0.07,0.11 -0.12,0.11 -0.1,0 -0.11,-0.02 -0.15,-0.2 l -1.65,-6.57 c -0.76,0.09 -1.13,0.46 -1.13,1.12 0,0.2 0,0.45 0.53,1.84 0.04,0.12 0.11,0.29 0.11,0.49 0,0.45 -0.32,0.82 -0.81,0.82 -0.95,0 -1.32,-1.44 -1.32,-1.53 0,-0.1 0.1,-0.1 0.12,-0.1 0.1,0 0.11,0.02 0.16,0.18 0.27,0.94 0.67,1.23 1.01,1.23 0.08,0 0.24,0 0.24,-0.32 0,-0.26 -0.1,-0.51 -0.22,-0.86 -0.48,-1.25 -0.48,-1.51 -0.48,-1.67 0,-0.95 0.77,-1.36 1.73,-1.41 -0.08,-0.36 -0.08,-0.38 -0.22,-0.91 -0.03,-0.11 -0.23,-0.91 -0.23,-0.94 0,-0.01 0,-0.1 0.12,-0.1 0.02,0 0.07,0 0.09,0.04 0.03,0.02 0.09,0.27 0.12,0.41 l 0.38,1.48 c 0.37,0 1.24,0 2.18,1.06 0.4,0.46 0.61,0.89 0.72,1.19 0.09,0.25 0.31,1.11 0.31,1.55 0,0.56 -0.27,0.7 -0.44,0.7 -0.25,0 -0.49,-0.26 -0.49,-0.48 0,-0.13 0.06,-0.19 0.15,-0.27 0.11,-0.11 0.35,-0.37 0.35,-0.84 0,-0.64 -0.51,-1.45 -0.86,-1.81 -0.88,-0.89 -1.51,-0.89 -1.87,-0.89 z"
       inkscape:connector-curvature="0"
       style="fill:#000000;stroke-width:0" /></g>  <path
     inkscape:connector-curvature="0"
     id="path4430-3"
     d="M 369.80126,88.76796 426.78949,52.398465"
     style="fill:none;stroke:#000000;stroke-width:0.7495591;stroke-linecap:butt;stroke-linejoin:miter;stroke-miterlimit:4;stroke-opacity:1;stroke-dasharray:0.74955908, 1.49911815;stroke-dashoffset:0" />
  <path
     inkscape:connector-curvature="0"
     id="path5959-0"
     d="M 369.86858,88.691317 406.44035,38.487789"
     style="fill:none;stroke:#000000;stroke-width:0.7495591;stroke-linecap:butt;stroke-linejoin:miter;stroke-miterlimit:4;stroke-opacity:1;stroke-dasharray:0.74955908, 1.49911815;stroke-dashoffset:0" />
  <path
     inkscape:connector-curvature="0"
     id="path5959-0-3"
     d="M 369.85326,88.133647 381.79763,36.143561"
     style="fill:none;stroke:#000000;stroke-width:0.74941385;stroke-linecap:butt;stroke-linejoin:miter;stroke-miterlimit:4;stroke-opacity:1;stroke-dasharray:none;marker-end:url(#Arrow1Mend)" />
  <path
     transform="matrix(0.1468204,-0.47157861,0.36621208,0.18906356,304.52673,294.2309)"
     sodipodi:open="true"
     sodipodi:end="0.64726994"
     sodipodi:start="0"
     d="M 534.57273,41.867226 A 60.104076,60.104076 0 0 1 522.41567,78.110633"
     sodipodi:ry="60.104076"
     sodipodi:rx="60.104076"
     sodipodi:cy="41.867226"
     sodipodi:cx="474.46866"
     id="path8971"
     style="fill:none;stroke:#000000;stroke-width:1.95006871;stroke-miterlimit:4;stroke-opacity:1;stroke-dasharray:none;stroke-dashoffset:0"
     sodipodi:type="arc" />
  <path
     transform="matrix(0.360553,-0.08737938,0.08737938,0.360553,303.33731,68.659758)"
     d="m 168,94.763763 a 7,7 0 1 1 -14,0 7,7 0 1 1 14,0 z"
     sodipodi:ry="7"
     sodipodi:rx="7"
     sodipodi:cy="94.763763"
     sodipodi:cx="161"
     id="path3458-0-9-3-1-8-58"
     sodipodi:type="arc" />
  <g
     id="g12144"
     transform="matrix(1.3741371,0,0,-1.3741371,-149.23928,1012.7567)"
     xml:space="preserve"
     stroke-miterlimit="10.433"
     font-style="normal"
     font-variant="normal"
     font-weight="normal"
     font-stretch="normal"
     font-size-adjust="none"
     letter-spacing="normal"
     word-spacing="normal"
     ns0:text="\\[\\alpha_F\\]"
     ns0:preamble="/home/andre/Copy/Inkscape/preamble.ini"
     style="font-style:normal;font-variant:normal;font-weight:normal;font-stretch:normal;letter-spacing:normal;word-spacing:normal;text-anchor:start;fill:none;stroke:#000000;stroke-linecap:butt;stroke-linejoin:miter;stroke-miterlimit:10.43299961;stroke-opacity:1;stroke-dasharray:none;stroke-dashoffset:0"><path
       style="fill:#000000;stroke-width:0"
       inkscape:connector-curvature="0"
       d="m 393.54,709.47 0,0.07 -0.01,0.07 0,0.07 0,0.07 -0.02,0.13 -0.02,0.12 -0.02,0.12 -0.02,0.12 -0.04,0.1 -0.03,0.11 -0.04,0.09 -0.04,0.1 -0.05,0.08 -0.05,0.08 -0.05,0.08 -0.05,0.07 -0.06,0.07 -0.06,0.06 -0.06,0.05 -0.06,0.06 -0.07,0.05 -0.07,0.04 -0.06,0.04 -0.07,0.04 -0.07,0.03 -0.08,0.03 -0.07,0.02 -0.07,0.02 -0.07,0.02 -0.07,0.01 -0.07,0.01 -0.08,0.01 -0.07,0 -0.07,0.01 c -1.36,0 -2.67,-1.43 -2.67,-2.83 0,-0.92 0.6,-1.67 1.61,-1.67 l 0.02,0.21 c -0.6,0 -0.9,0.45 -0.9,1.09 0,0.48 0.26,1.56 0.58,2.06 0.47,0.73 1.01,0.92 1.35,0.92 0.99,0 0.99,-1.3 0.99,-2.08 0,-0.37 0,-0.94 0.02,-1.11 h 0 c -0.88,-0.77 -1.64,-0.88 -2.04,-0.88 l -0.02,-0.21 c 0.63,0 1.34,0.22 2.1,0.83 0.13,-0.53 0.46,-0.83 0.9,-0.83 0.53,0 0.84,0.54 0.84,0.7 0,0.07 -0.06,0.1 -0.12,0.1 -0.07,0 -0.1,-0.03 -0.13,-0.1 -0.18,-0.49 -0.54,-0.49 -0.56,-0.49 -0.3,0 -0.3,0.78 -0.3,1.02 0,0.21 0,0.23 0.1,0.34 0.93,1.18 1.14,2.33 1.14,2.34 0,0.02 -0.01,0.1 -0.12,0.1 -0.1,0 -0.1,-0.03 -0.15,-0.21 -0.18,-0.62 -0.51,-1.38 -0.97,-1.97 z"
       id="path12146" /><path
       style="fill:#000000;stroke-width:0"
       inkscape:connector-curvature="0"
       d="m 397.55,707.87 h 0.74 c 0.53,0 0.62,-0.08 0.62,-0.31 0,-0.11 0,-0.12 -0.05,-0.32 -0.01,-0.04 -0.02,-0.06 -0.02,-0.08 0,-0.07 0.05,-0.1 0.12,-0.1 0.09,0 0.1,0.03 0.13,0.16 l 0.38,1.47 c 0,0.02 0.02,0.13 0.02,0.14 0,0.07 -0.04,0.1 -0.11,0.1 -0.1,0 -0.11,-0.04 -0.14,-0.16 -0.14,-0.55 -0.34,-0.65 -0.94,-0.65 h -0.69 l 0.44,1.75 c 0.05,0.21 0.06,0.23 0.35,0.23 h 1.07 c 0.92,0 1.1,-0.22 1.1,-0.8 0,-0.23 -0.03,-0.37 -0.03,-0.43 0,-0.05 0.02,-0.12 0.12,-0.12 0.1,0 0.11,0.07 0.12,0.18 l 0.13,1.21 c 0.02,0.21 -0.03,0.21 -0.2,0.21 h -3.72 c -0.13,0 -0.22,0 -0.22,-0.15 0,-0.1 0.08,-0.1 0.22,-0.1 0,0 0.14,0 0.26,-0.01 0.15,-0.02 0.16,-0.03 0.16,-0.1 0,-0.05 -0.02,-0.12 -0.02,-0.15 l -0.92,-3.64 c -0.07,-0.27 -0.07,-0.32 -0.62,-0.32 -0.12,0 -0.21,0 -0.21,-0.15 0,-0.06 0.05,-0.1 0.12,-0.1 0.2,0 0.71,0.03 0.91,0.03 l 0.54,-0.01 c 0.18,0 0.38,-0.02 0.55,-0.02 0.05,0 0.15,0 0.15,0.15 0,0.1 -0.08,0.1 -0.24,0.1 -0.01,0 -0.19,0 -0.36,0.02 -0.15,0.01 -0.22,0.02 -0.22,0.11 0,0.03 0,0.05 0.02,0.13 z"
       id="path12148" /></g>  <g
     style="font-style:normal;font-variant:normal;font-weight:normal;font-stretch:normal;letter-spacing:normal;word-spacing:normal;text-anchor:start;fill:none;stroke:#000000;stroke-linecap:butt;stroke-linejoin:miter;stroke-miterlimit:10.43299961;stroke-opacity:1;stroke-dasharray:none;stroke-dashoffset:0"
     ns0:preamble="/home/andre/Copy/Inkscape/preamble.ini"
     ns0:text="\\[\\delta\\]"
     word-spacing="normal"
     letter-spacing="normal"
     font-size-adjust="none"
     font-stretch="normal"
     font-weight="normal"
     font-variant="normal"
     font-style="normal"
     stroke-miterlimit="10.433"
     xml:space="preserve"
     transform="matrix(1.690878,0,0,-1.690878,-254.98884,1251.8456)"
     id="g12401"><path
       id="path12403"
       d="m 395.51,711.47 -0.11,-0.03 -0.12,-0.04 -0.11,-0.04 -0.11,-0.05 -0.11,-0.05 -0.1,-0.06 -0.11,-0.06 -0.1,-0.07 -0.1,-0.07 -0.09,-0.07 -0.09,-0.08 -0.09,-0.08 -0.09,-0.09 -0.08,-0.08 -0.08,-0.1 -0.08,-0.09 -0.07,-0.1 -0.07,-0.1 -0.07,-0.1 -0.06,-0.1 -0.05,-0.11 -0.06,-0.11 -0.04,-0.1 -0.05,-0.11 -0.04,-0.11 -0.03,-0.12 -0.03,-0.11 -0.02,-0.11 -0.02,-0.12 -0.02,-0.11 0,-0.11 -0.01,-0.12 c 0,-0.95 0.64,-1.66 1.58,-1.66 v 0.21 c -0.55,0 -0.96,0.42 -0.96,1.18 0,0.62 0.37,2.49 1.71,2.85 h 0 c 0.25,-0.46 0.55,-1 0.55,-1.71 0,-0.66 -0.38,-2.32 -1.3,-2.32 v -0.21 c 1.16,0 1.98,1.56 1.98,2.93 0,0.9 -0.39,1.4 -0.73,1.84 -0.36,0.45 -0.95,1.2 -0.95,1.63 0,0.22 0.2,0.46 0.55,0.46 0.3,0 0.5,-0.13 0.71,-0.27 0.2,-0.12 0.39,-0.25 0.54,-0.25 0.25,0 0.4,0.24 0.4,0.4 0,0.22 -0.16,0.25 -0.52,0.33 -0.51,0.11 -0.65,0.11 -0.81,0.11 -0.78,0 -1.13,-0.43 -1.13,-1.03 0,-0.53 0.28,-1.09 0.59,-1.69 z"
       inkscape:connector-curvature="0"
       style="fill:#000000;stroke-width:0" /></g>  <path
     transform="matrix(-0.05669639,-0.53164491,0.38947087,0.014393,393.2654,332.59103)"
     sodipodi:open="true"
     sodipodi:end="0.64726994"
     sodipodi:start="0"
     d="M 534.57273,41.867226 A 60.104076,60.104076 0 0 1 522.41567,78.110633"
     sodipodi:ry="60.104076"
     sodipodi:rx="60.104076"
     sodipodi:cy="41.867226"
     sodipodi:cx="474.46866"
     id="path8971-8"
     style="fill:none;stroke:#000000;stroke-width:1.65017831;stroke-miterlimit:4;stroke-opacity:1;stroke-dasharray:none;stroke-dashoffset:0"
     sodipodi:type="arc" />
  <path
     inkscape:connector-curvature="0"
     id="path5959-0-1"
     d="m 381.96048,35.661232 3.17193,-15.296125"
     style="fill:none;stroke:#000000;stroke-width:0.7495591;stroke-linecap:butt;stroke-linejoin:miter;stroke-miterlimit:4;stroke-opacity:1;stroke-dasharray:0.74955908, 1.49911815;stroke-dashoffset:0" />
  <path
     style="fill:none;stroke:#000000;stroke-width:1.66015303;stroke-linecap:butt;stroke-linejoin:miter;stroke-miterlimit:4;stroke-opacity:1;stroke-dasharray:none;marker-end:url(#Arrow1Mend)"
     d="M 370.53222,87.984123 396.61914,52.038299"
     id="path5959-0-3-8-3"
     inkscape:connector-curvature="0" />
  <path
     inkscape:connector-curvature="0"
     id="path5417"
     d="m 5.858891,186.51547 c 113.847549,0 113.847549,0 113.847549,0"
     style="fill:none;stroke:#000000;stroke-width:1.07239628px;stroke-linecap:butt;stroke-linejoin:miter;stroke-opacity:1" />
  <path
     transform="matrix(0.81778099,-0.19818791,0.19818791,0.81778099,-90.196641,140.57416)"
     d="m 168,94.763763 a 7,7 0 1 1 -14,0 7,7 0 1 1 14,0 z"
     sodipodi:ry="7"
     sodipodi:rx="7"
     sodipodi:cy="94.763763"
     sodipodi:cx="161"
     id="path3458-0-9-8"
     sodipodi:type="arc" />
  <path
     inkscape:connector-curvature="0"
     id="path5455"
     d="M 59.540024,185.80836 86.410079,124.29007"
     style="fill:none;stroke:#000000;stroke-width:1px;stroke-linecap:butt;stroke-linejoin:miter;stroke-opacity:1" />
  <path
     transform="matrix(0.81778099,-0.19818791,0.19818791,0.81778099,-63.149807,77.641656)"
     d="m 168,94.763763 a 7,7 0 1 1 -14,0 7,7 0 1 1 14,0 z"
     sodipodi:ry="7"
     sodipodi:rx="7"
     sodipodi:cy="94.763763"
     sodipodi:cx="161"
     id="path3458-0-9-8-9"
     sodipodi:type="arc" />
  <path
     inkscape:connector-curvature="0"
     id="path5475"
     d="m 60.030357,183.35356 0,-62"
     style="fill:none;stroke:#000000;stroke-width:0.69999999;stroke-linecap:butt;stroke-linejoin:miter;stroke-miterlimit:4;stroke-opacity:1;stroke-dasharray:0.7, 1.4;stroke-dashoffset:0" />
  <path
     style="fill:none;stroke:#000000;stroke-width:1.5;stroke-linecap:butt;stroke-linejoin:miter;stroke-miterlimit:4;stroke-opacity:1;stroke-dasharray:none;marker-end:url(#Arrow1Mend)"
     d="M 58.311487,185.74239 21.744115,169.4239"
     id="path5959-0-3-5-9-7"
     inkscape:connector-curvature="0" />
  <path
     style="fill:none;stroke:#000000;stroke-width:1.38100004;stroke-linecap:butt;stroke-linejoin:miter;stroke-miterlimit:4;stroke-opacity:1;stroke-dasharray:none;marker-end:url(#Arrow1Mend)"
     d="M 60.625895,185.40966 77.653969,144.49268"
     id="path5959-0-3-5-9-7-5"
     inkscape:connector-curvature="0" />
  <g
     style="font-style:normal;font-variant:normal;font-weight:normal;font-stretch:normal;letter-spacing:normal;word-spacing:normal;text-anchor:start;fill:none;stroke:#000000;stroke-linecap:butt;stroke-linejoin:miter;stroke-miterlimit:10.43299961;stroke-opacity:1;stroke-dasharray:none;stroke-dashoffset:0"
     ns0:preamble=""
     ns0:text="\\[\\mathbf{s}_z\\]"
     word-spacing="normal"
     letter-spacing="normal"
     font-size-adjust="none"
     font-stretch="normal"
     font-weight="normal"
     font-variant="normal"
     font-style="normal"
     stroke-miterlimit="10.433"
     xml:space="preserve"
     transform="matrix(1.5752641,0,0,-1.5752641,-530.75409,1268.5463)"
     id="g5643"><path
       id="path5645"
       d="m 392.83,710.05 -0.03,0 -0.04,0.01 -0.04,0.01 -0.04,0 -0.04,0.01 -0.04,0.01 -0.08,0.02 -0.09,0.02 -0.04,0.01 -0.04,0.02 -0.04,0.01 -0.04,0.02 -0.04,0.01 -0.04,0.02 -0.04,0.02 -0.04,0.02 -0.03,0.02 -0.04,0.02 -0.03,0.02 -0.03,0.03 -0.03,0.02 -0.03,0.03 -0.02,0.03 -0.02,0.03 -0.02,0.04 -0.01,0.01 0,0.02 -0.01,0.02 -0.01,0.02 0,0.02 -0.01,0.02 0,0.02 0,0.02 0,0.02 0,0.02 c 0,0.62 0.92,0.62 1.11,0.62 0.75,0 1.13,-0.29 1.18,-0.84 0.01,-0.15 0.02,-0.2 0.22,-0.2 0.24,0 0.24,0.05 0.24,0.28 v 0.8 c 0,0.19 0,0.27 -0.18,0.27 -0.03,0 -0.06,0 -0.44,-0.18 -0.26,0.13 -0.61,0.18 -1.01,0.18 -0.3,0 -1.83,0 -1.83,-1.3 0,-0.39 0.2,-0.66 0.4,-0.83 0.4,-0.35 0.78,-0.41 1.54,-0.55 0.36,-0.06 1.11,-0.19 1.11,-0.77 0,-0.75 -0.92,-0.75 -1.14,-0.75 -1.05,0 -1.31,0.73 -1.43,1.16 -0.05,0.13 -0.1,0.13 -0.24,0.13 -0.24,0 -0.24,-0.05 -0.24,-0.28 v -1.09 c 0,-0.18 0,-0.27 0.18,-0.27 0.07,0 0.09,0 0.3,0.14 0.01,0 0.23,0.15 0.26,0.17 0.45,-0.31 0.97,-0.31 1.17,-0.31 0.31,0 1.84,0 1.84,1.45 0,0.42 -0.2,0.77 -0.54,1.05 -0.39,0.29 -0.71,0.35 -1.49,0.48 z"
       inkscape:connector-curvature="0"
       style="fill:#000000;stroke-width:0" /><path
       id="path5647"
       d="m 396.42,706.24 0.04,0.04 0.03,0.03 0.03,0.03 0.04,0.04 0.03,0.03 0.02,0.02 0.02,0.02 0.02,0.02 0.02,0.02 0.02,0.02 0.03,0.02 0.02,0.02 0.03,0.02 0.02,0.03 0.03,0.02 0.03,0.03 0.04,0.02 0.03,0.03 0.04,0.03 0.03,0.03 0.04,0.04 0.04,0.03 0.05,0.04 0.05,0.03 0.04,0.04 0.06,0.05 0.05,0.04 c 0.15,0.12 0.67,0.53 0.87,0.73 0.43,0.42 0.69,0.77 0.69,0.85 0,0.09 -0.09,0.09 -0.12,0.09 -0.06,0 -0.08,-0.02 -0.12,-0.07 -0.21,-0.32 -0.36,-0.43 -0.53,-0.43 -0.08,0 -0.18,0.01 -0.39,0.21 -0.24,0.24 -0.39,0.29 -0.55,0.29 -0.56,0 -0.94,-0.61 -0.94,-0.82 0,-0.06 0.07,-0.08 0.12,-0.08 0.09,0 0.1,0.02 0.13,0.1 0.1,0.24 0.49,0.26 0.6,0.26 0.16,0 0.34,-0.05 0.44,-0.07 0.38,-0.08 0.43,-0.08 0.61,-0.08 -0.18,-0.19 -0.31,-0.31 -0.97,-0.84 -0.54,-0.43 -0.73,-0.61 -0.86,-0.75 -0.42,-0.41 -0.62,-0.71 -0.62,-0.77 0,-0.09 0.09,-0.09 0.12,-0.09 0.06,0 0.08,0.02 0.11,0.07 0.19,0.27 0.41,0.42 0.64,0.42 0.09,0 0.19,0 0.38,-0.18 0.22,-0.2 0.36,-0.31 0.58,-0.31 0.74,0 1.21,0.84 1.21,1.08 0,0.08 -0.08,0.09 -0.12,0.09 -0.08,0 -0.1,-0.03 -0.12,-0.11 -0.14,-0.35 -0.55,-0.52 -0.89,-0.52 -0.16,0 -0.33,0.04 -0.51,0.08 -0.32,0.07 -0.37,0.07 -0.5,0.07 -0.01,0 -0.12,0 -0.16,-0.01 z"
       inkscape:connector-curvature="0"
       style="fill:#000000;stroke-width:0" /></g>  <path
     style="fill:none;stroke:#000000;stroke-width:1.5;stroke-linecap:butt;stroke-linejoin:miter;stroke-miterlimit:4;stroke-opacity:1;stroke-dasharray:none;marker-end:url(#Arrow1Mend-2)"
     d="m 60.530357,183.85356 0,-45"
     id="path5792"
     inkscape:connector-curvature="0" />
  <g
     id="g7262"
     transform="matrix(1.5752641,0,0,-1.5752641,-573.19108,1252.0699)"
     xml:space="preserve"
     stroke-miterlimit="10.433"
     font-style="normal"
     font-variant="normal"
     font-weight="normal"
     font-stretch="normal"
     font-size-adjust="none"
     letter-spacing="normal"
     word-spacing="normal"
     ns0:text="\\[\\mathbf{t}_z\\]"
     ns0:preamble=""
     style="font-style:normal;font-variant:normal;font-weight:normal;font-stretch:normal;letter-spacing:normal;word-spacing:normal;text-anchor:start;fill:none;stroke:#000000;stroke-linecap:butt;stroke-linejoin:miter;stroke-miterlimit:10.43299961;stroke-opacity:1;stroke-dasharray:none;stroke-dashoffset:0"><path
       style="fill:#000000;stroke-width:0"
       inkscape:connector-curvature="0"
       d="m 391.79,711.07 v -2.72 c 0,-1.07 0.86,-1.28 1.57,-1.28 0.76,0 1.21,0.56 1.21,1.29 v 0.52 h -0.47 v -0.5 c 0,-0.68 -0.32,-0.92 -0.6,-0.92 -0.58,0 -0.58,0.64 -0.58,0.87 v 2.74 h 1.46 v 0.47 h -1.46 v 1.89 h -0.46 c -0.01,-0.99 -0.5,-1.97 -1.49,-2 v -0.36 z"
       id="path7264" /><path
       style="fill:#000000;stroke-width:0"
       inkscape:connector-curvature="0"
       d="m 396.39,706.24 0.03,0.04 0.04,0.03 0.03,0.03 0.03,0.04 0.04,0.03 0.02,0.02 0.02,0.02 0.02,0.02 0.02,0.02 0.02,0.02 0.02,0.02 0.03,0.02 0.03,0.02 0.02,0.03 0.03,0.02 0.03,0.03 0.03,0.02 0.04,0.03 0.03,0.03 0.04,0.03 0.04,0.04 0.04,0.03 0.05,0.04 0.04,0.03 0.05,0.04 0.05,0.05 0.06,0.04 c 0.14,0.12 0.67,0.53 0.87,0.73 0.42,0.42 0.69,0.77 0.69,0.85 0,0.09 -0.09,0.09 -0.12,0.09 -0.06,0 -0.08,-0.02 -0.12,-0.07 -0.21,-0.32 -0.36,-0.43 -0.53,-0.43 -0.08,0 -0.19,0.01 -0.4,0.21 -0.23,0.24 -0.38,0.29 -0.54,0.29 -0.56,0 -0.94,-0.61 -0.94,-0.82 0,-0.06 0.07,-0.08 0.12,-0.08 0.08,0 0.1,0.02 0.13,0.1 0.1,0.24 0.49,0.26 0.6,0.26 0.16,0 0.34,-0.05 0.44,-0.07 0.38,-0.08 0.43,-0.08 0.61,-0.08 -0.18,-0.19 -0.31,-0.31 -0.97,-0.84 -0.55,-0.43 -0.73,-0.61 -0.86,-0.75 -0.42,-0.41 -0.63,-0.71 -0.63,-0.77 0,-0.09 0.09,-0.09 0.12,-0.09 0.07,0 0.09,0.02 0.12,0.07 0.19,0.27 0.41,0.42 0.64,0.42 0.09,0 0.19,0 0.38,-0.18 0.21,-0.2 0.35,-0.31 0.58,-0.31 0.74,0 1.21,0.84 1.21,1.08 0,0.08 -0.08,0.09 -0.12,0.09 -0.08,0 -0.1,-0.03 -0.12,-0.11 -0.14,-0.35 -0.55,-0.52 -0.89,-0.52 -0.16,0 -0.33,0.04 -0.51,0.08 -0.32,0.07 -0.37,0.07 -0.5,0.07 -0.01,0 -0.12,0 -0.16,-0.01 z"
       id="path7266" /></g>  <g
     style="font-style:normal;font-variant:normal;font-weight:normal;font-stretch:normal;letter-spacing:normal;word-spacing:normal;text-anchor:start;fill:none;stroke:#000000;stroke-linecap:butt;stroke-linejoin:miter;stroke-miterlimit:10.43299961;stroke-opacity:1;stroke-dasharray:none;stroke-dashoffset:0"
     ns0:preamble=""
     ns0:text="\\[\\mathbf{s}_y\\]"
     word-spacing="normal"
     letter-spacing="normal"
     font-size-adjust="none"
     font-stretch="normal"
     font-weight="normal"
     font-variant="normal"
     font-style="normal"
     stroke-miterlimit="10.433"
     xml:space="preserve"
     transform="matrix(1.5752641,0,0,-1.5752641,-595.19108,1273.5699)"
     id="g7544"><path
       id="path7546"
       d="m 392.73,710.05 -0.03,0 -0.04,0.01 -0.04,0.01 -0.04,0 -0.04,0.01 -0.04,0.01 -0.08,0.02 -0.09,0.02 -0.04,0.01 -0.04,0.02 -0.04,0.01 -0.04,0.02 -0.04,0.01 -0.04,0.02 -0.04,0.02 -0.04,0.02 -0.03,0.02 -0.04,0.02 -0.03,0.02 -0.03,0.03 -0.03,0.02 -0.03,0.03 -0.02,0.03 -0.02,0.03 -0.02,0.04 -0.01,0.01 0,0.02 -0.01,0.02 -0.01,0.02 0,0.02 0,0.02 -0.01,0.02 0,0.02 0,0.02 0,0.02 c 0,0.62 0.92,0.62 1.11,0.62 0.75,0 1.13,-0.29 1.18,-0.84 0.01,-0.15 0.02,-0.2 0.23,-0.2 0.23,0 0.23,0.05 0.23,0.28 v 0.8 c 0,0.19 0,0.27 -0.17,0.27 -0.04,0 -0.06,0 -0.45,-0.18 -0.26,0.13 -0.61,0.18 -1.01,0.18 -0.3,0 -1.83,0 -1.83,-1.3 0,-0.39 0.2,-0.66 0.4,-0.83 0.4,-0.35 0.78,-0.41 1.54,-0.55 0.36,-0.06 1.11,-0.19 1.11,-0.77 0,-0.75 -0.92,-0.75 -1.14,-0.75 -1.05,0 -1.31,0.73 -1.43,1.16 -0.05,0.13 -0.1,0.13 -0.24,0.13 -0.24,0 -0.24,-0.05 -0.24,-0.28 v -1.09 c 0,-0.18 0,-0.27 0.18,-0.27 0.07,0 0.09,0 0.3,0.14 0.01,0 0.23,0.15 0.26,0.17 0.46,-0.31 0.97,-0.31 1.17,-0.31 0.31,0 1.84,0 1.84,1.45 0,0.42 -0.2,0.77 -0.54,1.05 -0.39,0.29 -0.71,0.35 -1.49,0.48 z"
       inkscape:connector-curvature="0"
       style="fill:#000000;stroke-width:0" /><path
       id="path7548"
       d="m 399.02,708.25 0.01,0.01 0,0 0,0.01 0,0 0,0 0,0.01 0,0.01 0.01,0 0,0.01 0,0.01 0,0 0,0.01 0,0 0.01,0.01 0,0 0,0.01 0,0 0,0.01 0,0 0,0 0,0.01 0,0 0,0 0,0.01 0,0.01 0,0 0,0.01 0,0 0,0.01 0,0 0,0.01 c 0,0.13 -0.11,0.22 -0.23,0.22 -0.07,0 -0.21,-0.04 -0.28,-0.17 -0.02,-0.04 -0.08,-0.26 -0.11,-0.4 l -0.15,-0.58 c -0.04,-0.17 -0.26,-1.04 -0.28,-1.12 -0.01,0 -0.31,-0.6 -0.86,-0.6 -0.47,0 -0.47,0.45 -0.47,0.57 0,0.38 0.16,0.82 0.37,1.35 0.08,0.23 0.12,0.31 0.12,0.43 0,0.33 -0.29,0.59 -0.66,0.59 -0.71,0 -1.02,-0.95 -1.02,-1.07 0,-0.09 0.1,-0.09 0.12,-0.09 0.1,0 0.1,0.04 0.12,0.11 0.18,0.58 0.48,0.85 0.76,0.85 0.12,0 0.17,-0.07 0.17,-0.24 0,-0.16 -0.06,-0.31 -0.1,-0.4 -0.33,-0.85 -0.4,-1.11 -0.4,-1.41 0,-0.12 0,-0.45 0.27,-0.67 0.22,-0.18 0.51,-0.22 0.7,-0.22 0.28,0 0.53,0.11 0.76,0.31 -0.09,-0.38 -0.17,-0.67 -0.46,-1.02 -0.19,-0.21 -0.47,-0.44 -0.84,-0.44 -0.05,0 -0.38,0 -0.52,0.23 0.37,0.04 0.37,0.37 0.37,0.38 0,0.22 -0.2,0.26 -0.27,0.26 -0.17,0 -0.4,-0.14 -0.4,-0.46 0,-0.35 0.33,-0.61 0.83,-0.61 0.7,0 1.56,0.55 1.77,1.41 z"
       inkscape:connector-curvature="0"
       style="fill:#000000;stroke-width:0" /></g>  <g
     id="g7832"
     transform="matrix(1.5752641,0,0,-1.5752641,-257.7541,1238.5463)"
     xml:space="preserve"
     stroke-miterlimit="10.433"
     font-style="normal"
     font-variant="normal"
     font-weight="normal"
     font-stretch="normal"
     font-size-adjust="none"
     letter-spacing="normal"
     word-spacing="normal"
     ns0:text="\\[\\mathbf{s}_x\\]"
     ns0:preamble=""
     style="font-style:normal;font-variant:normal;font-weight:normal;font-stretch:normal;letter-spacing:normal;word-spacing:normal;text-anchor:start;fill:none;stroke:#000000;stroke-linecap:butt;stroke-linejoin:miter;stroke-miterlimit:10.43299961;stroke-opacity:1;stroke-dasharray:none;stroke-dashoffset:0"><path
       style="fill:#000000;stroke-width:0"
       inkscape:connector-curvature="0"
       d="m 392.62,710.05 -0.04,0 -0.03,0.01 -0.04,0.01 -0.04,0 -0.04,0.01 -0.04,0.01 -0.08,0.02 -0.09,0.02 -0.04,0.01 -0.04,0.02 -0.05,0.01 -0.04,0.02 -0.04,0.01 -0.04,0.02 -0.03,0.02 -0.04,0.02 -0.04,0.02 -0.03,0.02 -0.03,0.02 -0.03,0.03 -0.03,0.02 -0.03,0.03 -0.02,0.03 -0.02,0.03 -0.02,0.04 -0.01,0.01 -0.01,0.02 0,0.02 -0.01,0.02 0,0.02 -0.01,0.02 0,0.02 0,0.02 -0.01,0.02 0,0.02 c 0,0.62 0.93,0.62 1.12,0.62 0.74,0 1.12,-0.29 1.17,-0.84 0.01,-0.15 0.02,-0.2 0.23,-0.2 0.24,0 0.24,0.05 0.24,0.28 v 0.8 c 0,0.19 0,0.27 -0.18,0.27 -0.04,0 -0.06,0 -0.45,-0.18 -0.25,0.13 -0.6,0.18 -1,0.18 -0.3,0 -1.83,0 -1.83,-1.3 0,-0.39 0.2,-0.66 0.4,-0.83 0.39,-0.35 0.77,-0.41 1.54,-0.55 0.36,-0.06 1.1,-0.19 1.1,-0.77 0,-0.75 -0.91,-0.75 -1.13,-0.75 -1.06,0 -1.32,0.73 -1.43,1.16 -0.05,0.13 -0.1,0.13 -0.24,0.13 -0.24,0 -0.24,-0.05 -0.24,-0.28 v -1.09 c 0,-0.18 0,-0.27 0.18,-0.27 0.07,0 0.09,0 0.3,0.14 0.01,0 0.22,0.15 0.25,0.17 0.46,-0.31 0.98,-0.31 1.18,-0.31 0.31,0 1.84,0 1.84,1.45 0,0.42 -0.2,0.77 -0.55,1.05 -0.39,0.29 -0.71,0.35 -1.48,0.48 z"
       id="path7834" /><path
       style="fill:#000000;stroke-width:0"
       inkscape:connector-curvature="0"
       d="m 396.77,706.37 0,-0.02 -0.01,-0.03 -0.01,-0.02 -0.01,-0.03 -0.01,-0.02 -0.01,-0.03 -0.02,-0.02 -0.01,-0.03 -0.01,-0.02 -0.02,-0.03 -0.01,-0.02 -0.02,-0.03 -0.02,-0.02 -0.02,-0.03 -0.02,-0.02 -0.02,-0.03 -0.02,-0.02 -0.02,-0.02 -0.02,-0.02 -0.03,-0.02 -0.02,-0.02 -0.03,-0.02 -0.02,-0.02 -0.03,-0.01 -0.03,-0.02 -0.02,-0.01 -0.03,-0.01 -0.03,-0.01 -0.03,0 -0.04,-0.01 -0.03,0 -0.03,0 c -0.02,0 -0.23,0 -0.38,0.09 0.29,0.09 0.31,0.34 0.31,0.39 0,0.15 -0.12,0.25 -0.28,0.25 -0.19,0 -0.4,-0.16 -0.4,-0.42 0,-0.35 0.39,-0.51 0.74,-0.51 0.31,0 0.6,0.2 0.78,0.49 0.16,-0.36 0.54,-0.49 0.82,-0.49 0.8,0 1.23,0.87 1.23,1.06 0,0.1 -0.09,0.1 -0.11,0.1 -0.1,0 -0.11,-0.04 -0.13,-0.12 -0.15,-0.48 -0.57,-0.84 -0.96,-0.84 -0.28,0 -0.42,0.18 -0.42,0.45 0,0.18 0.16,0.81 0.36,1.58 0.14,0.54 0.45,0.71 0.68,0.71 0.02,0 0.23,0 0.38,-0.09 -0.23,-0.07 -0.31,-0.26 -0.31,-0.39 0,-0.15 0.12,-0.25 0.28,-0.25 0.16,0 0.39,0.13 0.39,0.42 0,0.39 -0.45,0.51 -0.72,0.51 -0.35,0 -0.63,-0.23 -0.78,-0.5 -0.13,0.29 -0.45,0.5 -0.84,0.5 -0.78,0 -1.23,-0.86 -1.23,-1.07 0,-0.09 0.1,-0.09 0.12,-0.09 0.09,0 0.1,0.03 0.13,0.12 0.18,0.54 0.62,0.84 0.96,0.84 0.23,0 0.42,-0.12 0.42,-0.46 0,-0.13 -0.09,-0.48 -0.15,-0.72 z"
       id="path7836" /></g>  <g
     style="font-style:normal;font-variant:normal;font-weight:normal;font-stretch:normal;letter-spacing:normal;word-spacing:normal;text-anchor:start;fill:none;stroke:#000000;stroke-linecap:butt;stroke-linejoin:miter;stroke-miterlimit:10.43299961;stroke-opacity:1;stroke-dasharray:none;stroke-dashoffset:0"
     ns0:preamble=""
     ns0:text="\\[\\phi\\]"
     word-spacing="normal"
     letter-spacing="normal"
     font-size-adjust="none"
     font-stretch="normal"
     font-weight="normal"
     font-variant="normal"
     font-style="normal"
     stroke-miterlimit="10.433"
     xml:space="preserve"
     transform="matrix(1.3741371,0,0,-1.3741371,-471.33223,1090.0327)"
     id="g8126"><path
       id="path8128"
       d="m 396.67,713.78 0,0 0,0 0,0 0,0.01 0,0 0,0 0,0 0,0 0,0.01 0,0 0,0 0,0.01 0,0 0,0.01 0.01,0.01 0,0 0,0.01 0,0 0,0.01 0.01,0.02 0,0 0,0.01 0,0 0,0.01 0,0 0,0.01 0,0 0.01,0.01 0,0 0,0 0,0 0,0 0,0 0,0.01 0,0 0,0 0,0 0,0 0,0 c 0,0.01 0,0.1 -0.12,0.1 -0.1,0 -0.11,-0.03 -0.15,-0.2 l -0.58,-2.29 c -1.58,-0.05 -3.04,-1.37 -3.04,-2.73 0,-0.94 0.69,-1.72 1.91,-1.79 l 0.05,0.21 c -0.6,0.03 -1.32,0.38 -1.32,1.37 0,1.2 0.86,2.59 2.34,2.72 l -1.02,-4.09 -0.05,-0.21 c -0.08,-0.31 -0.15,-0.63 -0.23,-0.94 -0.12,-0.47 -0.22,-0.84 -0.22,-0.87 0,-0.1 0.07,-0.11 0.12,-0.11 0.05,0 0.07,0.01 0.1,0.04 0.02,0.02 0.08,0.26 0.11,0.4 l 0.38,1.48 0.05,0.21 1.02,4.09 c 0.76,-0.04 1.32,-0.5 1.32,-1.37 0,-1.18 -0.85,-2.6 -2.34,-2.72 l -0.05,-0.21 c 1.6,0.04 3.04,1.39 3.04,2.72 0,0.78 -0.53,1.7 -1.91,1.8 z"
       inkscape:connector-curvature="0"
       style="fill:#000000;stroke-width:0" /></g>  <path
     transform="matrix(-0.14827549,-0.47112312,0.40864997,-0.05349313,123.12505,394.04834)"
     sodipodi:open="true"
     sodipodi:end="0.64726994"
     sodipodi:start="0"
     d="M 534.57273,41.867226 A 60.104076,60.104076 0 0 1 522.41567,78.110633"
     sodipodi:ry="60.104076"
     sodipodi:rx="60.104076"
     sodipodi:cy="41.867226"
     sodipodi:cx="474.46866"
     id="path8971-0"
     style="fill:none;stroke:#000000;stroke-width:1.95006871;stroke-miterlimit:4;stroke-opacity:1;stroke-dasharray:none;stroke-dashoffset:0"
     sodipodi:type="arc" />
  <text
     sodipodi:linespacing="100%"
     id="text3528-9-1"
     y="119.30356"
     x="101.12902"
     style="font-size:25.27910995px;font-style:normal;font-weight:normal;line-height:100%;letter-spacing:0px;word-spacing:0px;fill:#000000;fill-opacity:1;stroke:none;font-family:Sans"
     xml:space="preserve"><tspan
       style="font-size:17.69537354px;line-height:100%"
       y="119.30356"
       x="101.12902"
       id="tspan3530-2-2"
       sodipodi:role="line">T</tspan></text>
  <rect
     transform="matrix(0.01621786,-0.99986848,0.99986848,0.01621786,0,0)"
     y="4.2770963"
     x="-216.44405"
     height="11.088189"
     width="58.049904"
     id="rect5900-6-3-7"
     style="fill:none;stroke:#000000;stroke-width:1.53254867;stroke-miterlimit:4;stroke-opacity:1;stroke-dasharray:1.53254764, 1.53254764;stroke-dashoffset:0" />
  <rect
     transform="matrix(0.01621786,-0.99986848,0.99986848,0.01621786,0,0)"
     y="116.7673"
     x="-214.91908"
     height="11.088189"
     width="58.049904"
     id="rect5900-6-3-7-1"
     style="fill:none;stroke:#000000;stroke-width:1.53254867;stroke-miterlimit:4;stroke-opacity:1;stroke-dasharray:1.53254765, 1.53254765;stroke-dashoffset:0" />
  <path
     transform="matrix(0.40483458,-0.09811094,0.09811094,0.40483458,44.554626,164.03577)"
     d="m 168,94.763763 a 7,7 0 1 1 -14,0 7,7 0 1 1 14,0 z"
     sodipodi:ry="7"
     sodipodi:rx="7"
     sodipodi:cy="94.763763"
     sodipodi:cx="161"
     id="path3458-0-9-3-1-3-0-7"
     sodipodi:type="arc" />
  <path
     transform="matrix(0.40483458,-0.09811094,0.09811094,0.40483458,-67.945371,163.78577)"
     d="m 168,94.763763 a 7,7 0 1 1 -14,0 7,7 0 1 1 14,0 z"
     sodipodi:ry="7"
     sodipodi:rx="7"
     sodipodi:cy="94.763763"
     sodipodi:cx="161"
     id="path3458-0-9-3-1-3-0-0"
     sodipodi:type="arc" />
  <text
     sodipodi:linespacing="100%"
     id="text3528-9-7"
     y="208.16467"
     x="52.098663"
     style="font-size:25.27910995px;font-style:normal;font-weight:normal;line-height:100%;letter-spacing:0px;word-spacing:0px;fill:#000000;fill-opacity:1;stroke:none;font-family:Sans"
     xml:space="preserve"><tspan
       style="font-size:17.69537354px;line-height:100%"
       y="208.16467"
       x="52.098663"
       id="tspan3530-2-9"
       sodipodi:role="line">P</tspan></text>
</svg>
