<?xml version="1.0" encoding="UTF-8" standalone="no"?>
<!-- Created with Inkscape (http://www.inkscape.org/) -->

<svg
   xmlns:ns0="http://www.iki.fi/pav/software/textext/"
   xmlns:dc="http://purl.org/dc/elements/1.1/"
   xmlns:cc="http://creativecommons.org/ns#"
   xmlns:rdf="http://www.w3.org/1999/02/22-rdf-syntax-ns#"
   xmlns:svg="http://www.w3.org/2000/svg"
   xmlns="http://www.w3.org/2000/svg"
   xmlns:sodipodi="http://sodipodi.sourceforge.net/DTD/sodipodi-0.dtd"
   xmlns:inkscape="http://www.inkscape.org/namespaces/inkscape"
   sodipodi:docname="modeloSistema.pdf"
   width="487.47034"
   height="252.07082"
   id="svg2"
   version="1.1"
   inkscape:version="0.48.4 r9939">
  <sodipodi:namedview
     id="base"
     pagecolor="#ffffff"
     bordercolor="#666666"
     borderopacity="1.0"
     inkscape:pageopacity="0.0"
     inkscape:pageshadow="2"
     inkscape:zoom="1.4142136"
     inkscape:cx="196.4538"
     inkscape:cy="115.07506"
     inkscape:document-units="px"
     inkscape:current-layer="svg2"
     showgrid="false"
     inkscape:window-width="1366"
     inkscape:window-height="744"
     inkscape:window-x="0"
     inkscape:window-y="24"
     inkscape:window-maximized="1"
     units="cm"
     fit-margin-top="0"
     fit-margin-left="0"
     fit-margin-right="0"
     fit-margin-bottom="0" />
  <defs
     id="defs4">
    <marker
       inkscape:stockid="Arrow1Mend"
       orient="auto"
       refY="0"
       refX="0"
       id="Arrow1Mend"
       style="overflow:visible">
      <path
         id="path3931"
         d="M 0,0 5,-5 -12.5,0 5,5 0,0 z"
         style="fill-rule:evenodd;stroke:#000000;stroke-width:1pt"
         transform="matrix(-0.4,0,0,-0.4,-4,0)"
         inkscape:connector-curvature="0" />
    </marker>
    <marker
       inkscape:stockid="Arrow1Lend"
       orient="auto"
       refY="0"
       refX="0"
       id="Arrow1Lend"
       style="overflow:visible">
      <path
         id="path3925"
         d="M 0,0 5,-5 -12.5,0 5,5 0,0 z"
         style="fill-rule:evenodd;stroke:#000000;stroke-width:1pt"
         transform="matrix(-0.8,0,0,-0.8,-10,0)"
         inkscape:connector-curvature="0" />
    </marker>
    <marker
       inkscape:stockid="Arrow1Lend"
       orient="auto"
       refY="0"
       refX="0"
       id="Arrow1Lend-4"
       style="overflow:visible">
      <path
         inkscape:connector-curvature="0"
         id="path3925-6"
         d="M 0,0 5,-5 -12.5,0 5,5 0,0 z"
         style="fill-rule:evenodd;stroke:#000000;stroke-width:1pt"
         transform="matrix(-0.8,0,0,-0.8,-10,0)" />
    </marker>
    <marker
       inkscape:stockid="Arrow1Lend"
       orient="auto"
       refY="0"
       refX="0"
       id="Arrow1Lend-7"
       style="overflow:visible">
      <path
         inkscape:connector-curvature="0"
         id="path3925-2"
         d="M 0,0 5,-5 -12.5,0 5,5 0,0 z"
         style="fill-rule:evenodd;stroke:#000000;stroke-width:1pt"
         transform="matrix(-0.8,0,0,-0.8,-10,0)" />
    </marker>
    <marker
       style="overflow:visible"
       id="Arrow1Mend-9"
       refX="0"
       refY="0"
       orient="auto"
       inkscape:stockid="Arrow1Mend">
      <path
         inkscape:connector-curvature="0"
         transform="matrix(-0.4,0,0,-0.4,-4,0)"
         style="fill-rule:evenodd;stroke:#000000;stroke-width:1pt"
         d="M 0,0 5,-5 -12.5,0 5,5 0,0 z"
         id="path3931-5" />
    </marker>
    <marker
       style="overflow:visible"
       id="marker8573"
       refX="0"
       refY="0"
       orient="auto"
       inkscape:stockid="Arrow1Mend">
      <path
         inkscape:connector-curvature="0"
         transform="matrix(-0.4,0,0,-0.4,-4,0)"
         style="fill-rule:evenodd;stroke:#000000;stroke-width:1pt"
         d="M 0,0 5,-5 -12.5,0 5,5 0,0 z"
         id="path8575" />
    </marker>
    <marker
       style="overflow:visible"
       id="Arrow1Mend-4"
       refX="0"
       refY="0"
       orient="auto"
       inkscape:stockid="Arrow1Mend">
      <path
         inkscape:connector-curvature="0"
         transform="matrix(-0.4,0,0,-0.4,-4,0)"
         style="fill-rule:evenodd;stroke:#000000;stroke-width:1pt"
         d="M 0,0 5,-5 -12.5,0 5,5 0,0 z"
         id="path3931-7" />
    </marker>
    <marker
       style="overflow:visible"
       id="marker8621"
       refX="0"
       refY="0"
       orient="auto"
       inkscape:stockid="Arrow1Mend">
      <path
         inkscape:connector-curvature="0"
         transform="matrix(-0.4,0,0,-0.4,-4,0)"
         style="fill-rule:evenodd;stroke:#000000;stroke-width:1pt"
         d="M 0,0 5,-5 -12.5,0 5,5 0,0 z"
         id="path8623" />
    </marker>
  </defs>
  <metadata
     id="metadata7">
    <rdf:RDF>
      <cc:Work
         rdf:about="">
        <dc:format>image/svg+xml</dc:format>
        <dc:type
           rdf:resource="http://purl.org/dc/dcmitype/StillImage" />
        <dc:title></dc:title>
      </cc:Work>
    </rdf:RDF>
  </metadata>
  <path
     style="fill:none;stroke:#000000;stroke-width:1.24198496;stroke-linecap:butt;stroke-linejoin:miter;stroke-miterlimit:4;stroke-opacity:1;stroke-dasharray:none"
     d="M 61.859603,183.12449 C 250.6629,160.23066 250.6629,160.23066 250.6629,160.23066"
     id="path3452"
     inkscape:connector-curvature="0" />
  <path
     style="fill:none;stroke:#000000;stroke-width:1.10479963px;stroke-linecap:butt;stroke-linejoin:miter;stroke-opacity:1"
     d="M 250.91517,160.46338 C 426.68797,53.260191 426.68797,53.260191 426.68797,53.260191"
     id="path3454"
     inkscape:connector-curvature="0" />
  <path
     sodipodi:type="arc"
     id="path3458-0-9"
     sodipodi:cx="161"
     sodipodi:cy="94.763763"
     sodipodi:rx="7"
     sodipodi:ry="7"
     d="m 168,94.763763 a 7,7 0 1 1 -14,0 7,7 0 1 1 14,0 z"
     transform="matrix(0.81778099,-0.19818791,0.19818791,0.81778099,204.37755,51.672862)" />
  <text
     xml:space="preserve"
     style="font-size:25.27910995px;font-style:normal;font-weight:normal;line-height:100%;letter-spacing:0px;word-spacing:0px;fill:#000000;fill-opacity:1;stroke:none;font-family:Sans"
     x="427.79956"
     y="81.099182"
     id="text3528"
     sodipodi:linespacing="100%"><tspan
       sodipodi:role="line"
       id="tspan3530"
       x="427.79956"
       y="81.099182"
       style="font-size:17.69537354px;line-height:100%">F</tspan></text>
  <text
     xml:space="preserve"
     style="font-size:25.27910995px;font-style:normal;font-weight:normal;line-height:100%;letter-spacing:0px;word-spacing:0px;fill:#000000;fill-opacity:1;stroke:none;font-family:Sans"
     x="362.66077"
     y="116.75552"
     id="text3528-9"
     sodipodi:linespacing="100%"><tspan
       sodipodi:role="line"
       id="tspan3530-2"
       x="362.66077"
       y="116.75552"
       style="font-size:17.69537354px;line-height:100%">T</tspan></text>
  <text
     xml:space="preserve"
     style="font-size:25.27910995px;font-style:normal;font-weight:normal;line-height:100%;letter-spacing:0px;word-spacing:0px;fill:#000000;fill-opacity:1;stroke:none;font-family:Sans"
     x="322.88214"
     y="140.43193"
     id="text3528-96"
     sodipodi:linespacing="100%"><tspan
       sodipodi:role="line"
       id="tspan3530-6"
       x="322.88214"
       y="140.43193"
       style="font-size:17.69537354px;line-height:100%">R</tspan></text>
  <text
     xml:space="preserve"
     style="font-size:25.27910995px;font-style:normal;font-weight:normal;line-height:100%;letter-spacing:0px;word-spacing:0px;fill:#000000;fill-opacity:1;stroke:none;font-family:Sans"
     x="244.18002"
     y="182.38574"
     id="text3528-0"
     sodipodi:linespacing="100%"><tspan
       sodipodi:role="line"
       id="tspan3530-9"
       x="244.18002"
       y="182.38574"
       style="font-size:17.69537354px;line-height:100%">A</tspan></text>
  <text
     xml:space="preserve"
     style="font-size:25.27911758px;font-style:normal;font-weight:normal;line-height:100%;letter-spacing:0px;word-spacing:0px;fill:#000000;fill-opacity:1;stroke:none;font-family:Sans"
     x="145.20441"
     y="200.55296"
     id="text3528-6"
     sodipodi:linespacing="100%"
     inkscape:transform-center-x="-3.7037329"
     transform="matrix(0.9991994,-0.04000706,0.04000706,0.9991994,0,0)"
     inkscape:transform-center-y="-0.14827908"><tspan
       sodipodi:role="line"
       id="tspan3530-8"
       x="145.20441"
       y="200.55296"
       style="font-size:17.69537735px;line-height:100%">S</tspan></text>
  <text
     xml:space="preserve"
     style="font-size:25.27910995px;font-style:normal;font-weight:normal;line-height:100%;letter-spacing:0px;word-spacing:0px;fill:#000000;fill-opacity:1;stroke:none;font-family:Sans"
     x="43.768208"
     y="208.82689"
     id="text3528-8"
     sodipodi:linespacing="100%"><tspan
       sodipodi:role="line"
       id="tspan3530-7"
       x="43.768208"
       y="208.82689"
       style="font-size:17.69537354px;line-height:100%">M</tspan></text>
  <rect
     style="fill:none;stroke:#000000;stroke-width:2.79606891;stroke-miterlimit:4;stroke-opacity:1;stroke-dasharray:none;stroke-dashoffset:0"
     id="rect5900-9"
     width="52.954777"
     height="10.114962"
     x="189.28104"
     y="367.80557"
     transform="matrix(0.60244799,-0.79815814,0.79815814,0.60244799,0,0)" />
  <rect
     style="fill:none;stroke:#000000;stroke-width:2.79606891;stroke-miterlimit:4;stroke-opacity:1;stroke-dasharray:none;stroke-dashoffset:0"
     id="rect5900-6"
     width="52.954773"
     height="10.114962"
     x="172.22595"
     y="261.67001"
     transform="matrix(0.85626381,-0.51653875,0.51653875,0.85626381,0,0)" />
  <g
     inkscape:groupmode="layer"
     id="layer4"
     inkscape:label="Pneus"
     style="display:inline"
     transform="translate(-4.40741,-109.57024)" />
  <rect
     style="fill:none;stroke:#000000;stroke-width:2.79606891;stroke-miterlimit:4;stroke-opacity:1;stroke-dasharray:none;stroke-dashoffset:0"
     id="rect5900-4"
     width="52.954781"
     height="10.114962"
     x="16.277008"
     y="183.37128"
     transform="matrix(0.99461687,-0.10362086,0.10362086,0.99461687,0,0)" />
  <path
     sodipodi:type="arc"
     id="path3458-0-9-3"
     sodipodi:cx="161"
     sodipodi:cy="94.763763"
     sodipodi:rx="7"
     sodipodi:ry="7"
     d="m 168,94.763763 a 7,7 0 1 1 -14,0 7,7 0 1 1 14,0 z"
     transform="matrix(0.82508897,-0.16514364,0.16514364,0.82508897,10.481245,119.59233)" />
  <path
     sodipodi:type="arc"
     id="path3458-0-9-3-1-4"
     sodipodi:cx="161"
     sodipodi:cy="94.763763"
     sodipodi:rx="7"
     sodipodi:ry="7"
     d="m 168,94.763763 a 7,7 0 1 1 -14,0 7,7 0 1 1 14,0 z"
     transform="matrix(0.4084523,-0.08175278,0.08175278,0.4084523,-10.771225,157.5807)" />
  <path
     sodipodi:type="arc"
     id="path3458-0-9-3-1-2"
     sodipodi:cx="161"
     sodipodi:cy="94.763763"
     sodipodi:rx="7"
     sodipodi:ry="7"
     d="m 168,94.763763 a 7,7 0 1 1 -14,0 7,7 0 1 1 14,0 z"
     transform="matrix(0.40483458,-0.09811094,0.09811094,0.40483458,176.22889,137.89294)" />
  <path
     sodipodi:type="arc"
     id="path3458-0-9-3-1-3"
     sodipodi:cx="161"
     sodipodi:cy="94.763763"
     sodipodi:rx="7"
     sodipodi:ry="7"
     d="m 168,94.763763 a 7,7 0 1 1 -14,0 7,7 0 1 1 14,0 z"
     transform="matrix(0.40483458,-0.09811094,0.09811094,0.40483458,232.86447,103.29158)" />
  <path
     sodipodi:type="arc"
     id="path3458-0-9-3-1-8"
     sodipodi:cx="161"
     sodipodi:cy="94.763763"
     sodipodi:rx="7"
     sodipodi:ry="7"
     d="m 168,94.763763 a 7,7 0 1 1 -14,0 7,7 0 1 1 14,0 z"
     transform="matrix(0.40483458,-0.09811094,0.09811094,0.40483458,352.73278,30.40877)" />
  <text
     xml:space="preserve"
     style="font-size:40px;font-style:normal;font-weight:normal;line-height:125%;letter-spacing:0px;word-spacing:0px;fill:#000000;fill-opacity:1;stroke:none;font-family:Sans"
     x="182.97588"
     y="337.46918"
     id="text3116"
     sodipodi:linespacing="125%"><tspan
       sodipodi:role="line"
       id="tspan3118"
       x="182.97588"
       y="337.46918" /></text>
  <rect
     style="fill:none;stroke:#000000;stroke-width:1.39803445;stroke-miterlimit:4;stroke-opacity:1;stroke-dasharray:1.39803444, 1.39803444;stroke-dashoffset:0"
     id="rect5900-4-09"
     width="52.954781"
     height="10.114962"
     x="-11.969661"
     y="139.93277"
     transform="matrix(0.99461687,-0.10362086,0.10362086,0.99461687,0,0)" />
  <rect
     style="fill:none;stroke:#000000;stroke-width:1.39803445;stroke-miterlimit:4;stroke-opacity:1;stroke-dasharray:1.39803451, 1.39803451;stroke-dashoffset:0"
     id="rect5900-4-0-6"
     width="52.954781"
     height="10.114962"
     x="45.646732"
     y="139.9008"
     transform="matrix(0.99381821,-0.11101969,0.11101969,0.99381821,0,0)" />
  <rect
     style="fill:none;stroke:#000000;stroke-width:1.39803445;stroke-miterlimit:4;stroke-opacity:1;stroke-dasharray:1.39803444, 1.39803444;stroke-dashoffset:0"
     id="rect5900-4-8"
     width="52.954781"
     height="10.114962"
     x="-12.375017"
     y="125.83454"
     transform="matrix(0.99461687,-0.10362086,0.10362086,0.99461687,0,0)" />
  <rect
     style="fill:none;stroke:#000000;stroke-width:1.39803445;stroke-miterlimit:4;stroke-opacity:1;stroke-dasharray:1.39803451, 1.39803451;stroke-dashoffset:0"
     id="rect5900-4-0-2"
     width="52.954781"
     height="10.114962"
     x="45.346302"
     y="125.79994"
     transform="matrix(0.99381821,-0.11101969,0.11101969,0.99381821,0,0)" />
  <rect
     style="fill:none;stroke:#000000;stroke-width:1.39803445;stroke-miterlimit:4;stroke-opacity:1;stroke-dasharray:1.39803444, 1.39803444;stroke-dashoffset:0"
     id="rect5900-4-09-7"
     width="52.954781"
     height="10.114962"
     x="-12.922315"
     y="241.27106"
     transform="matrix(0.99461687,-0.10362086,0.10362086,0.99461687,0,0)" />
  <rect
     style="fill:none;stroke:#000000;stroke-width:1.39803445;stroke-miterlimit:4;stroke-opacity:1;stroke-dasharray:1.39803451, 1.39803451;stroke-dashoffset:0"
     id="rect5900-4-0-6-0"
     width="52.954781"
     height="10.114962"
     x="43.93996"
     y="241.22919"
     transform="matrix(0.99381821,-0.11101969,0.11101969,0.99381821,0,0)" />
  <rect
     style="fill:none;stroke:#000000;stroke-width:1.39803445;stroke-miterlimit:4;stroke-opacity:1;stroke-dasharray:1.39803444, 1.39803444;stroke-dashoffset:0"
     id="rect5900-4-8-4"
     width="52.954781"
     height="10.114962"
     x="-13.327671"
     y="227.17281"
     transform="matrix(0.99461687,-0.10362086,0.10362086,0.99461687,0,0)" />
  <rect
     style="fill:none;stroke:#000000;stroke-width:1.39803445;stroke-miterlimit:4;stroke-opacity:1;stroke-dasharray:1.39803451, 1.39803451;stroke-dashoffset:0"
     id="rect5900-4-0-2-6"
     width="52.954781"
     height="10.114962"
     x="43.639542"
     y="227.12833"
     transform="matrix(0.99381821,-0.11101969,0.11101969,0.99381821,0,0)" />
  <rect
     style="fill:none;stroke:#000000;stroke-width:1.39803445;stroke-miterlimit:4;stroke-opacity:1;stroke-dasharray:1.39803426, 1.39803426;stroke-dashoffset:0"
     id="rect5900-6-1"
     width="52.954773"
     height="10.114962"
     x="170.81299"
     y="205.14917"
     transform="matrix(0.85626381,-0.51653875,0.51653875,0.85626381,0,0)" />
  <rect
     style="fill:none;stroke:#000000;stroke-width:1.39803445;stroke-miterlimit:4;stroke-opacity:1;stroke-dasharray:1.39803426, 1.39803426;stroke-dashoffset:0"
     id="rect5900-6-3"
     width="52.954773"
     height="10.114962"
     x="171.33795"
     y="219.61606"
     transform="matrix(0.85626381,-0.51653875,0.51653875,0.85626381,0,0)" />
  <rect
     style="fill:none;stroke:#000000;stroke-width:1.39803445;stroke-miterlimit:4;stroke-opacity:1;stroke-dasharray:1.39803426, 1.39803426;stroke-dashoffset:0"
     id="rect5900-6-1-8"
     width="52.954773"
     height="10.114962"
     x="172.31291"
     y="303.81879"
     transform="matrix(0.85626381,-0.51653875,0.51653875,0.85626381,0,0)" />
  <rect
     style="fill:none;stroke:#000000;stroke-width:1.39803445;stroke-miterlimit:4;stroke-opacity:1;stroke-dasharray:1.39803426, 1.39803426;stroke-dashoffset:0"
     id="rect5900-6-3-9"
     width="52.954773"
     height="10.114962"
     x="172.83786"
     y="318.28564"
     transform="matrix(0.85626381,-0.51653875,0.51653875,0.85626381,0,0)" />
  <rect
     style="fill:none;stroke:#000000;stroke-width:1.39803445;stroke-miterlimit:4;stroke-opacity:1;stroke-dasharray:1.39803438, 1.39803438;stroke-dashoffset:0"
     id="rect5900-9-2"
     width="52.954777"
     height="10.114962"
     x="188.60858"
     y="321.19748"
     transform="matrix(0.60244799,-0.79815814,0.79815814,0.60244799,0,0)" />
  <rect
     style="fill:none;stroke:#000000;stroke-width:1.39803445;stroke-miterlimit:4;stroke-opacity:1;stroke-dasharray:1.39803438, 1.39803438;stroke-dashoffset:0"
     id="rect5900-9-5"
     width="52.954777"
     height="10.114962"
     x="190.55197"
     y="415.95496"
     transform="matrix(0.60244799,-0.79815814,0.79815814,0.60244799,0,0)" />
  <path
     style="fill:none;stroke:#000000;stroke-width:1.24238658;stroke-linecap:butt;stroke-linejoin:miter;stroke-miterlimit:4;stroke-opacity:1;stroke-dasharray:none"
     d="M 389.77119,24.716954 C 428.8696,54.204511 428.8696,54.204511 428.8696,54.204511"
     id="path3454-7"
     inkscape:connector-curvature="0" />
  <path
     style="fill:none;stroke:#000000;stroke-width:1.24238658;stroke-linecap:butt;stroke-linejoin:miter;stroke-miterlimit:4;stroke-opacity:1;stroke-dasharray:none"
     d="M 426.94266,53.275296 C 466.04107,82.76285 466.04107,82.76285 466.04107,82.76285"
     id="path3454-7-4"
     inkscape:connector-curvature="0" />
  <path
     sodipodi:type="arc"
     id="path3458-0-9-3-1-8-2"
     sodipodi:cx="161"
     sodipodi:cy="94.763763"
     sodipodi:rx="7"
     sodipodi:ry="7"
     d="m 168,94.763763 a 7,7 0 1 1 -14,0 7,7 0 1 1 14,0 z"
     transform="matrix(0.40483458,-0.09811094,0.09811094,0.40483458,315.35494,2.2293107)" />
  <path
     sodipodi:type="arc"
     id="path3458-0-9-3-1-8-5"
     sodipodi:cx="161"
     sodipodi:cy="94.763763"
     sodipodi:rx="7"
     sodipodi:ry="7"
     d="m 168,94.763763 a 7,7 0 1 1 -14,0 7,7 0 1 1 14,0 z"
     transform="matrix(0.40483458,-0.09811094,0.09811094,0.40483458,391.1445,59.89529)" />
  <path
     style="fill:none;stroke:#000000;stroke-width:1.24238658;stroke-linecap:butt;stroke-linejoin:miter;stroke-miterlimit:4;stroke-opacity:1;stroke-dasharray:none"
     d="m 282.41512,83.39732 c 24.69811,42.28718 24.69811,42.28718 24.69811,42.28718"
     id="path3454-7-5"
     inkscape:connector-curvature="0" />
  <path
     style="fill:none;stroke:#000000;stroke-width:1.24238658;stroke-linecap:butt;stroke-linejoin:miter;stroke-miterlimit:4;stroke-opacity:1;stroke-dasharray:none"
     d="m 307.9464,126.5708 c 24.69811,42.28717 24.69811,42.28717 24.69811,42.28717"
     id="path3454-7-5-3"
     inkscape:connector-curvature="0" />
  <path
     sodipodi:type="arc"
     id="path3458-0-9-3-1-3-0"
     sodipodi:cx="161"
     sodipodi:cy="94.763763"
     sodipodi:rx="7"
     sodipodi:ry="7"
     d="m 168,94.763763 a 7,7 0 1 1 -14,0 7,7 0 1 1 14,0 z"
     transform="matrix(0.40483458,-0.09811094,0.09811094,0.40483458,207.27241,61.213375)" />
  <path
     sodipodi:type="arc"
     id="path3458-0-9-3-1-3-09"
     sodipodi:cx="161"
     sodipodi:cy="94.763763"
     sodipodi:rx="7"
     sodipodi:ry="7"
     d="m 168,94.763763 a 7,7 0 1 1 -14,0 7,7 0 1 1 14,0 z"
     transform="matrix(0.40483458,-0.09811094,0.09811094,0.40483458,258.01848,145.73522)"
     inkscape:transform-center-y="-9.0617952" />
  <path
     style="fill:none;stroke:#000000;stroke-width:1.24238658;stroke-linecap:butt;stroke-linejoin:miter;stroke-miterlimit:4;stroke-opacity:1;stroke-dasharray:none"
     d="m 57.748155,132.84605 c 4.54118,48.76043 4.54118,48.76043 4.54118,48.76043"
     id="path3454-7-5-0"
     inkscape:connector-curvature="0" />
  <path
     style="fill:none;stroke:#000000;stroke-width:1.24238658;stroke-linecap:butt;stroke-linejoin:miter;stroke-miterlimit:4;stroke-opacity:1;stroke-dasharray:none"
     d="m 62.874284,185.03934 c 4.54118,48.76043 4.54118,48.76043 4.54118,48.76043"
     id="path3454-7-5-0-7"
     inkscape:connector-curvature="0" />
  <path
     sodipodi:type="arc"
     id="path3458-0-9-3-1-4-7"
     sodipodi:cx="161"
     sodipodi:cy="94.763763"
     sodipodi:rx="7"
     sodipodi:ry="7"
     d="m 168,94.763763 a 7,7 0 1 1 -14,0 7,7 0 1 1 14,0 z"
     transform="matrix(0.4084523,-0.08175278,0.08175278,0.4084523,-6.266097,207.64185)" />
  <path
     sodipodi:type="arc"
     id="path3458-0-9-3-1-4-8"
     sodipodi:cx="161"
     sodipodi:cy="94.763763"
     sodipodi:rx="7"
     sodipodi:ry="7"
     d="m 168,94.763763 a 7,7 0 1 1 -14,0 7,7 0 1 1 14,0 z"
     transform="matrix(0.4084523,-0.08175278,0.08175278,0.4084523,-16.052338,106.75037)" />
  <g
     style="font-style:normal;font-variant:normal;font-weight:normal;font-stretch:normal;letter-spacing:normal;word-spacing:normal;text-anchor:start;fill:none;stroke:#000000;stroke-linecap:butt;stroke-linejoin:miter;stroke-miterlimit:10.43299961;stroke-opacity:1;stroke-dasharray:none;stroke-dashoffset:0"
     ns0:preamble="/home/andre/Copy/Inkscape/preamble.ini"
     ns0:text="\\[ F_{y,F} = \\left. 2 F_y(\\alpha_{F}) \\right|_{F_{z,F}/2}\\]"
     word-spacing="normal"
     letter-spacing="normal"
     font-size-adjust="none"
     font-stretch="normal"
     font-weight="normal"
     font-variant="normal"
     font-style="normal"
     stroke-miterlimit="10.433"
     xml:space="preserve"
     transform="matrix(1.7,0,0,-1.7,-379.78357,1219.3642)"
     id="content"><path
       id="path3217"
       d="m 348.78,710.35 h 0.97 c 0.74,0 0.82,-0.15 0.82,-0.44 0,-0.07 0,-0.19 -0.07,-0.49 -0.02,-0.05 -0.03,-0.09 -0.03,-0.11 0,-0.08 0.06,-0.12 0.12,-0.12 0.1,0 0.1,0.03 0.15,0.21 l 0.55,2.15 c 0.03,0.11 0.03,0.13 0.03,0.16 0,0.02 -0.02,0.11 -0.12,0.11 -0.1,0 -0.11,-0.05 -0.15,-0.21 -0.21,-0.77 -0.44,-0.95 -1.28,-0.95 h -0.91 l 0.64,2.52 c 0.09,0.35 0.1,0.39 0.54,0.39 h 1.31 c 1.22,0 1.45,-0.33 1.45,-1.09 0,-0.23 0,-0.27 -0.03,-0.54 -0.02,-0.13 -0.02,-0.15 -0.02,-0.18 0,-0.05 0.03,-0.11 0.12,-0.11 0.11,0 0.12,0.06 0.14,0.24 l 0.2,1.72 c 0.03,0.27 -0.02,0.27 -0.27,0.27 h -4.87 c -0.2,0 -0.3,0 -0.3,-0.2 0,-0.11 0.09,-0.11 0.28,-0.11 0.36,0 0.64,0 0.64,-0.18 0,-0.04 0,-0.06 -0.05,-0.23 l -1.31,-5.26 c -0.1,-0.39 -0.12,-0.47 -0.91,-0.47 -0.16,0 -0.27,0 -0.27,-0.19 0,-0.12 0.12,-0.12 0.15,-0.12 0.28,0 1.02,0.04 1.31,0.04 0.33,0 1.15,-0.04 1.48,-0.04 0.09,0 0.21,0 0.21,0.19 0,0.08 -0.06,0.1 -0.06,0.11 -0.03,0.01 -0.05,0.01 -0.28,0.01 -0.22,0 -0.27,0 -0.52,0.02 -0.28,0.03 -0.31,0.07 -0.31,0.2 0,0.02 0,0.08 0.04,0.23 z"
       inkscape:connector-curvature="0"
       style="fill:#000000;stroke-width:0" /><path
       id="path3219"
       d="m 356.05,708.25 0,0.01 0,0 0,0.01 0,0 0,0 0,0.01 0.01,0.01 0,0 0,0.01 0,0.01 0,0 0,0.01 0,0 0.01,0.01 0,0 0,0.01 0,0 0,0.01 0,0 0,0 0,0.01 0,0 0,0 0,0.01 0,0.01 0,0 0,0.01 0,0 0,0.01 0,0 0,0.01 c 0,0.13 -0.11,0.22 -0.23,0.22 -0.07,0 -0.2,-0.04 -0.28,-0.17 -0.02,-0.04 -0.08,-0.26 -0.11,-0.4 l -0.15,-0.58 c -0.04,-0.17 -0.26,-1.04 -0.28,-1.12 0,0 -0.31,-0.6 -0.85,-0.6 -0.48,0 -0.48,0.45 -0.48,0.57 0,0.38 0.16,0.82 0.37,1.35 0.08,0.23 0.12,0.31 0.12,0.43 0,0.33 -0.29,0.59 -0.66,0.59 -0.7,0 -1.02,-0.95 -1.02,-1.07 0,-0.09 0.1,-0.09 0.12,-0.09 0.1,0 0.1,0.04 0.12,0.11 0.18,0.58 0.48,0.85 0.76,0.85 0.12,0 0.17,-0.07 0.17,-0.24 0,-0.16 -0.06,-0.31 -0.1,-0.4 -0.33,-0.85 -0.4,-1.11 -0.4,-1.41 0,-0.12 0,-0.45 0.27,-0.67 0.22,-0.18 0.51,-0.22 0.7,-0.22 0.28,0 0.53,0.11 0.76,0.31 -0.09,-0.38 -0.17,-0.67 -0.46,-1.02 -0.19,-0.21 -0.47,-0.44 -0.84,-0.44 -0.05,0 -0.37,0 -0.52,0.23 0.37,0.04 0.37,0.37 0.37,0.38 0,0.22 -0.2,0.26 -0.27,0.26 -0.17,0 -0.4,-0.14 -0.4,-0.46 0,-0.35 0.33,-0.61 0.83,-0.61 0.7,0 1.56,0.55 1.78,1.41 z"
       inkscape:connector-curvature="0"
       style="fill:#000000;stroke-width:0" /><path
       id="path3221"
       d="m 357.93,705.74 0,-0.07 0,-0.07 0,-0.08 -0.01,-0.08 -0.01,-0.03 -0.01,-0.04 0,-0.04 -0.01,-0.04 -0.01,-0.04 -0.01,-0.04 -0.02,-0.04 -0.01,-0.04 -0.01,-0.04 -0.02,-0.04 -0.02,-0.04 -0.02,-0.04 -0.02,-0.04 -0.02,-0.04 -0.03,-0.05 -0.02,-0.04 -0.03,-0.04 -0.03,-0.04 -0.03,-0.04 -0.04,-0.04 -0.04,-0.04 -0.03,-0.05 -0.04,-0.04 -0.05,-0.04 c -0.03,-0.03 -0.05,-0.05 -0.05,-0.08 0,-0.05 0.06,-0.1 0.1,-0.1 0.1,0 0.69,0.55 0.69,1.38 0,0.43 -0.17,0.76 -0.49,0.76 -0.23,0 -0.39,-0.18 -0.39,-0.4 0,-0.22 0.16,-0.4 0.4,-0.4 0.17,0 0.28,0.11 0.28,0.11 z"
       inkscape:connector-curvature="0"
       style="fill:#000000;stroke-width:0" /><path
       id="path3223"
       d="m 361.21,707.87 h 0.75 c 0.53,0 0.62,-0.08 0.62,-0.31 0,-0.11 0,-0.12 -0.05,-0.32 -0.01,-0.04 -0.02,-0.06 -0.02,-0.08 0,-0.07 0.05,-0.1 0.12,-0.1 0.09,0 0.1,0.03 0.13,0.16 l 0.38,1.47 c 0,0.02 0.02,0.13 0.02,0.14 0,0.07 -0.05,0.1 -0.11,0.1 -0.1,0 -0.11,-0.04 -0.14,-0.16 -0.14,-0.55 -0.34,-0.65 -0.94,-0.65 h -0.69 l 0.43,1.75 c 0.06,0.21 0.07,0.23 0.36,0.23 h 1.07 c 0.92,0 1.1,-0.22 1.1,-0.8 0,-0.23 -0.03,-0.37 -0.03,-0.43 0,-0.05 0.02,-0.12 0.12,-0.12 0.1,0 0.11,0.07 0.12,0.18 l 0.13,1.21 c 0.02,0.21 -0.03,0.21 -0.2,0.21 h -3.72 c -0.14,0 -0.23,0 -0.23,-0.15 0,-0.1 0.09,-0.1 0.23,-0.1 0,0 0.14,0 0.26,-0.01 0.15,-0.02 0.16,-0.03 0.16,-0.1 0,-0.05 -0.02,-0.12 -0.03,-0.15 l -0.91,-3.64 c -0.07,-0.27 -0.07,-0.32 -0.62,-0.32 -0.12,0 -0.21,0 -0.21,-0.15 0,-0.06 0.05,-0.1 0.11,-0.1 0.21,0 0.72,0.03 0.92,0.03 l 0.54,-0.01 c 0.18,0 0.38,-0.02 0.55,-0.02 0.05,0 0.15,0 0.15,0.15 0,0.1 -0.08,0.1 -0.24,0.1 -0.01,0 -0.19,0 -0.36,0.02 -0.15,0.01 -0.22,0.02 -0.22,0.11 0,0.03 0,0.05 0.02,0.13 z"
       inkscape:connector-curvature="0"
       style="fill:#000000;stroke-width:0" /><path
       id="path3225"
       d="m 375.06,710.37 0.02,0 0.03,0 0.03,0 0.02,0.01 0.01,0 0.02,0 0.01,0 0.01,0 0.02,0 0.01,0.01 0.02,0 0.01,0 0.01,0.01 0.01,0 0.01,0.01 0.02,0 0.01,0.01 0.01,0.01 0.01,0.01 0,0.01 0.01,0.01 0.01,0 0,0.01 0,0 0.01,0.01 0,0.01 0,0 0,0.01 0.01,0.01 0,0 0,0.01 0,0.01 0,0.01 0,0.01 0,0 0,0.01 0,0.01 c 0,0.2 -0.19,0.2 -0.32,0.2 h -5.96 c -0.14,0 -0.33,0 -0.33,-0.2 0,-0.2 0.19,-0.2 0.34,-0.2 z"
       inkscape:connector-curvature="0"
       style="fill:#000000;stroke-width:0" /><path
       id="path3227"
       d="m 375.07,708.45 0.01,0 0.01,0 0.03,0 0.03,0 0.01,0 0.02,0 0.01,0 0.01,0 0.02,0 0.01,0.01 0.01,0 0.02,0 0.01,0.01 0.01,0 0.01,0.01 0.02,0 0.01,0.01 0.01,0 0.01,0.01 0.01,0.01 0,0.01 0.01,0 0,0.01 0.01,0.01 0,0 0,0.01 0.01,0 0,0.01 0,0.01 0,0 0.01,0.01 0,0.01 0,0 0,0.01 0,0.01 0,0.01 0,0.01 0,0.01 0,0.01 c 0,0.19 -0.19,0.19 -0.33,0.19 h -5.94 c -0.15,0 -0.34,0 -0.34,-0.19 0,-0.2 0.19,-0.2 0.33,-0.2 z"
       inkscape:connector-curvature="0"
       style="fill:#000000;stroke-width:0" /><path
       id="path3229"
       d="m 381.2,707.89 1.05,1.02 c 1.55,1.37 2.15,1.91 2.15,2.9 0,1.14 -0.89,1.93 -2.11,1.93 -1.12,0 -1.86,-0.91 -1.86,-1.8 0,-0.55 0.5,-0.55 0.53,-0.55 0.17,0 0.52,0.12 0.52,0.52 0,0.26 -0.18,0.52 -0.53,0.52 -0.08,0 -0.1,0 -0.13,-0.01 0.23,0.65 0.77,1.01 1.34,1.01 0.91,0 1.34,-0.8 1.34,-1.62 0,-0.79 -0.5,-1.58 -1.05,-2.19 l -1.91,-2.13 c -0.11,-0.11 -0.11,-0.13 -0.11,-0.37 h 3.69 l 0.28,1.73 h -0.25 c -0.05,-0.3 -0.12,-0.73 -0.22,-0.88 -0.07,-0.08 -0.72,-0.08 -0.94,-0.08 z"
       inkscape:connector-curvature="0"
       style="fill:#000000;stroke-width:0" /><path
       id="path3231"
       d="m 387.93,710.35 h 0.96 c 0.75,0 0.83,-0.15 0.83,-0.44 0,-0.07 0,-0.19 -0.07,-0.49 -0.02,-0.05 -0.03,-0.09 -0.03,-0.11 0,-0.08 0.06,-0.12 0.12,-0.12 0.1,0 0.1,0.03 0.15,0.21 l 0.55,2.15 c 0.03,0.11 0.03,0.13 0.03,0.16 0,0.02 -0.02,0.11 -0.12,0.11 -0.1,0 -0.11,-0.05 -0.15,-0.21 -0.21,-0.77 -0.44,-0.95 -1.29,-0.95 h -0.9 l 0.63,2.52 c 0.09,0.35 0.1,0.39 0.54,0.39 h 1.32 c 1.22,0 1.45,-0.33 1.45,-1.09 0,-0.23 0,-0.27 -0.03,-0.54 -0.02,-0.13 -0.02,-0.15 -0.02,-0.18 0,-0.05 0.03,-0.11 0.12,-0.11 0.11,0 0.12,0.06 0.14,0.24 l 0.2,1.72 c 0.03,0.27 -0.02,0.27 -0.27,0.27 h -4.88 c -0.2,0 -0.3,0 -0.3,-0.2 0,-0.11 0.09,-0.11 0.28,-0.11 0.37,0 0.65,0 0.65,-0.18 0,-0.04 0,-0.06 -0.05,-0.23 l -1.31,-5.26 c -0.1,-0.39 -0.12,-0.47 -0.91,-0.47 -0.17,0 -0.28,0 -0.28,-0.19 0,-0.12 0.12,-0.12 0.15,-0.12 0.29,0 1.03,0.04 1.32,0.04 0.32,0 1.15,-0.04 1.48,-0.04 0.09,0 0.21,0 0.21,0.19 0,0.08 -0.06,0.1 -0.06,0.11 -0.03,0.01 -0.05,0.01 -0.28,0.01 -0.22,0 -0.27,0 -0.52,0.02 -0.29,0.03 -0.32,0.07 -0.32,0.2 0,0.02 0,0.08 0.04,0.23 z"
       inkscape:connector-curvature="0"
       style="fill:#000000;stroke-width:0" /><path
       id="path3233"
       d="m 395.19,708.25 0,0.01 0.01,0 0,0.01 0,0 0,0 0,0.01 0,0.01 0,0 0.01,0.01 0,0.01 0,0 0,0.01 0,0 0,0.01 0,0 0.01,0.01 0,0 0,0.01 0,0 0,0 0,0.01 0,0 0,0 0,0.01 0,0.01 0,0 0,0.01 0,0 0,0.01 0,0 0,0.01 c 0,0.13 -0.11,0.22 -0.23,0.22 -0.07,0 -0.21,-0.04 -0.28,-0.17 -0.03,-0.04 -0.08,-0.26 -0.12,-0.4 l -0.14,-0.58 c -0.04,-0.17 -0.26,-1.04 -0.28,-1.12 -0.01,0 -0.31,-0.6 -0.86,-0.6 -0.47,0 -0.47,0.45 -0.47,0.57 0,0.38 0.16,0.82 0.37,1.35 0.08,0.23 0.12,0.31 0.12,0.43 0,0.33 -0.29,0.59 -0.66,0.59 -0.71,0 -1.02,-0.95 -1.02,-1.07 0,-0.09 0.1,-0.09 0.12,-0.09 0.09,0 0.1,0.04 0.12,0.11 0.18,0.58 0.48,0.85 0.75,0.85 0.12,0 0.18,-0.07 0.18,-0.24 0,-0.16 -0.06,-0.31 -0.1,-0.4 -0.33,-0.85 -0.4,-1.11 -0.4,-1.41 0,-0.12 0,-0.45 0.27,-0.67 0.21,-0.18 0.51,-0.22 0.7,-0.22 0.27,0 0.52,0.11 0.75,0.31 -0.09,-0.38 -0.16,-0.67 -0.46,-1.02 -0.18,-0.21 -0.46,-0.44 -0.83,-0.44 -0.05,0 -0.38,0 -0.52,0.23 0.37,0.04 0.37,0.37 0.37,0.38 0,0.22 -0.2,0.26 -0.27,0.26 -0.17,0 -0.4,-0.14 -0.4,-0.46 0,-0.35 0.33,-0.61 0.83,-0.61 0.7,0 1.56,0.55 1.77,1.41 z"
       inkscape:connector-curvature="0"
       style="fill:#000000;stroke-width:0" /><path
       id="path3235"
       d="m 399.4,704.74 0,0.01 0,0 0,0 0,0.01 0,0 0,0 0,0.01 0,0 0,0 -0.01,0.01 0,0 0,0.01 0,0 -0.01,0.01 0,0 -0.01,0.01 0,0.01 -0.01,0 0,0.01 0,0 -0.01,0.01 0,0 -0.01,0 0,0.01 0,0 -0.01,0.01 0,0 -0.01,0.01 0,0 -0.01,0.01 0,0 -0.01,0.01 0,0.01 -0.01,0 -0.01,0.01 0,0.01 -0.01,0 -0.01,0.01 0,0.01 -0.01,0 -0.01,0.01 -0.01,0.01 c -1.24,1.25 -1.56,3.13 -1.56,4.65 0,1.73 0.38,3.46 1.6,4.7 0.13,0.12 0.13,0.14 0.13,0.17 0,0.07 -0.04,0.1 -0.1,0.1 -0.1,0 -0.99,-0.68 -1.58,-1.94 -0.51,-1.09 -0.62,-2.2 -0.62,-3.03 0,-0.78 0.1,-1.98 0.65,-3.1 0.6,-1.22 1.45,-1.87 1.55,-1.87 0.06,0 0.1,0.03 0.1,0.1 z"
       inkscape:connector-curvature="0"
       style="fill:#000000;stroke-width:0" /><path
       id="path3237"
       d="m 404.73,709.47 0,0.07 0,0.07 -0.01,0.07 0,0.07 -0.01,0.13 -0.02,0.12 -0.02,0.12 -0.03,0.12 -0.03,0.1 -0.04,0.11 -0.03,0.09 -0.05,0.1 -0.04,0.08 -0.05,0.08 -0.05,0.08 -0.06,0.07 -0.06,0.07 -0.05,0.06 -0.07,0.05 -0.06,0.06 -0.07,0.05 -0.06,0.04 -0.07,0.04 -0.07,0.04 -0.07,0.03 -0.07,0.03 -0.07,0.02 -0.07,0.02 -0.08,0.02 -0.07,0.01 -0.07,0.01 -0.07,0.01 -0.07,0 -0.07,0.01 c -1.37,0 -2.68,-1.43 -2.68,-2.83 0,-0.92 0.6,-1.67 1.61,-1.67 l 0.02,0.21 c -0.59,0 -0.89,0.45 -0.89,1.09 0,0.48 0.26,1.56 0.57,2.06 0.47,0.73 1.01,0.92 1.36,0.92 0.98,0 0.98,-1.3 0.98,-2.08 0,-0.37 0,-0.94 0.02,-1.11 h 0 c -0.87,-0.77 -1.64,-0.88 -2.04,-0.88 L 402,707.02 c 0.63,0 1.35,0.22 2.1,0.83 0.13,-0.53 0.46,-0.83 0.91,-0.83 0.53,0 0.83,0.54 0.83,0.7 0,0.07 -0.06,0.1 -0.11,0.1 -0.08,0 -0.11,-0.03 -0.13,-0.1 -0.18,-0.49 -0.54,-0.49 -0.56,-0.49 -0.31,0 -0.31,0.78 -0.31,1.02 0,0.21 0,0.23 0.1,0.34 0.94,1.18 1.14,2.33 1.14,2.34 0,0.02 -0.01,0.1 -0.12,0.1 -0.09,0 -0.09,-0.03 -0.15,-0.21 -0.17,-0.62 -0.5,-1.38 -0.97,-1.97 z"
       inkscape:connector-curvature="0"
       style="fill:#000000;stroke-width:0" /><path
       id="path3239"
       d="m 408.74,707.87 h 0.74 c 0.53,0 0.62,-0.08 0.62,-0.31 0,-0.11 0,-0.12 -0.05,-0.32 -0.01,-0.04 -0.02,-0.06 -0.02,-0.08 0,-0.07 0.05,-0.1 0.12,-0.1 0.09,0 0.1,0.03 0.14,0.16 l 0.37,1.47 c 0.01,0.02 0.03,0.13 0.03,0.14 0,0.07 -0.05,0.1 -0.12,0.1 -0.1,0 -0.1,-0.04 -0.14,-0.16 -0.14,-0.55 -0.34,-0.65 -0.93,-0.65 h -0.7 l 0.44,1.75 c 0.06,0.21 0.06,0.23 0.36,0.23 h 1.06 c 0.93,0 1.1,-0.22 1.1,-0.8 0,-0.23 -0.03,-0.37 -0.03,-0.43 0,-0.05 0.02,-0.12 0.12,-0.12 0.11,0 0.11,0.07 0.13,0.18 l 0.12,1.21 c 0.02,0.21 -0.02,0.21 -0.2,0.21 h -3.72 c -0.13,0 -0.22,0 -0.22,-0.15 0,-0.1 0.08,-0.1 0.22,-0.1 0.01,0 0.14,0 0.27,-0.01 0.14,-0.02 0.16,-0.03 0.16,-0.1 0,-0.05 -0.02,-0.12 -0.03,-0.15 l -0.91,-3.64 c -0.07,-0.27 -0.08,-0.32 -0.62,-0.32 -0.12,0 -0.21,0 -0.21,-0.15 0,-0.06 0.05,-0.1 0.11,-0.1 0.2,0 0.72,0.03 0.92,0.03 l 0.53,-0.01 c 0.19,0 0.38,-0.02 0.55,-0.02 0.05,0 0.16,0 0.16,0.15 0,0.1 -0.09,0.1 -0.25,0.1 -0.01,0 -0.18,0 -0.36,0.02 -0.14,0.01 -0.21,0.02 -0.21,0.11 0,0.03 0,0.05 0.02,0.13 z"
       inkscape:connector-curvature="0"
       style="fill:#000000;stroke-width:0" /><path
       id="path3241"
       d="m 415.86,709.61 -0.01,0.07 0,0.08 0,0.08 0,0.08 -0.01,0.17 -0.01,0.17 -0.02,0.18 -0.02,0.19 -0.03,0.2 -0.03,0.2 -0.04,0.2 -0.04,0.21 -0.06,0.21 -0.06,0.21 -0.07,0.21 -0.08,0.21 -0.04,0.11 -0.04,0.11 -0.05,0.1 -0.05,0.11 c -0.6,1.22 -1.45,1.87 -1.55,1.87 -0.06,0 -0.1,-0.04 -0.1,-0.1 0,-0.03 0,-0.05 0.19,-0.23 0.97,-0.99 1.54,-2.57 1.54,-4.64 0,-1.7 -0.37,-3.45 -1.6,-4.7 -0.13,-0.12 -0.13,-0.14 -0.13,-0.17 0,-0.06 0.04,-0.1 0.1,-0.1 0.1,0 0.99,0.68 1.58,1.94 0.51,1.09 0.63,2.19 0.63,3.03 z"
       inkscape:connector-curvature="0"
       style="fill:#000000;stroke-width:0" /><path
       id="path3243"
       d="m 418.44,714.22 0,0.03 0,0.03 0,0.04 -0.01,0.01 0,0.02 0,0.01 0,0.02 0,0.02 0,0.01 -0.01,0.01 0,0.02 0,0.01 -0.01,0.01 0,0.02 -0.01,0.01 0,0.01 -0.01,0.01 -0.01,0.01 -0.01,0.01 -0.01,0.01 -0.01,0 -0.01,0.01 0,0 -0.01,0.01 -0.01,0 0,0 -0.01,0 -0.01,0.01 0,0 -0.01,0 -0.01,0 -0.01,0 -0.01,0 0,0 -0.01,0 -0.01,0.01 c -0.2,0 -0.2,-0.18 -0.2,-0.36 V 705 c 0,-0.18 0,-0.36 0.2,-0.36 0.2,0 0.2,0.18 0.2,0.36 z"
       inkscape:connector-curvature="0"
       style="fill:#000000;stroke-width:0" /><path
       id="path3245"
       d="m 422,706.02 h 0.75 c 0.53,0 0.62,-0.09 0.62,-0.32 0,-0.1 0,-0.11 -0.05,-0.31 -0.01,-0.04 -0.02,-0.06 -0.02,-0.08 0,-0.07 0.05,-0.11 0.12,-0.11 0.09,0 0.1,0.04 0.13,0.16 l 0.38,1.48 c 0,0.02 0.02,0.12 0.02,0.14 0,0.06 -0.05,0.1 -0.12,0.1 -0.09,0 -0.1,-0.04 -0.13,-0.17 -0.14,-0.54 -0.34,-0.64 -0.94,-0.64 h -0.69 l 0.44,1.74 c 0.05,0.22 0.06,0.24 0.35,0.24 h 1.07 c 0.92,0 1.1,-0.22 1.1,-0.8 0,-0.23 -0.03,-0.38 -0.03,-0.43 0,-0.06 0.02,-0.12 0.12,-0.12 0.1,0 0.11,0.06 0.12,0.18 l 0.13,1.21 c 0.02,0.21 -0.03,0.21 -0.2,0.21 h -3.72 c -0.14,0 -0.23,0 -0.23,-0.15 0,-0.1 0.09,-0.1 0.23,-0.1 0,0 0.14,0 0.26,-0.02 0.15,-0.01 0.16,-0.02 0.16,-0.09 0,-0.05 -0.02,-0.12 -0.03,-0.16 l -0.91,-3.63 c -0.07,-0.27 -0.07,-0.32 -0.62,-0.32 -0.12,0 -0.21,0 -0.21,-0.15 0,-0.07 0.05,-0.1 0.11,-0.1 0.21,0 0.72,0.02 0.92,0.02 l 0.54,0 c 0.18,0 0.38,-0.02 0.55,-0.02 0.05,0 0.15,0 0.15,0.15 0,0.1 -0.08,0.1 -0.24,0.1 -0.02,0 -0.19,0 -0.36,0.01 -0.15,0.01 -0.22,0.02 -0.22,0.12 0,0.03 0,0.05 0.02,0.12 z"
       inkscape:connector-curvature="0"
       style="fill:#000000;stroke-width:0" /><path
       id="path3247"
       d="m 425.81,703.23 0.04,0.03 0.04,0.04 0.05,0.03 0.04,0.04 0.04,0.04 0.05,0.03 0.04,0.04 0.05,0.03 0.04,0.04 0.05,0.03 0.05,0.04 0.05,0.03 0.05,0.04 0.05,0.03 0.05,0.04 0.05,0.04 c 0.33,0.24 0.55,0.4 0.76,0.6 0.24,0.23 0.41,0.45 0.41,0.5 0,0.07 -0.07,0.07 -0.1,0.07 -0.07,0 -0.07,0 -0.11,-0.06 -0.19,-0.26 -0.31,-0.28 -0.39,-0.28 -0.08,0 -0.16,0.01 -0.31,0.13 -0.17,0.13 -0.28,0.21 -0.47,0.21 -0.45,0 -0.74,-0.44 -0.74,-0.59 0,-0.08 0.07,-0.08 0.1,-0.08 0.06,0 0.08,0.02 0.1,0.06 0.02,0.06 0.07,0.18 0.47,0.18 0.14,0 0.25,-0.01 0.5,-0.05 0.19,-0.03 0.25,-0.03 0.33,-0.03 -0.14,-0.13 -0.3,-0.26 -0.67,-0.53 -0.36,-0.25 -0.57,-0.4 -0.8,-0.62 -0.2,-0.18 -0.43,-0.45 -0.43,-0.52 0,-0.07 0.07,-0.07 0.1,-0.07 0.06,0 0.08,0 0.11,0.05 0.14,0.19 0.32,0.29 0.49,0.29 0.14,0 0.21,-0.05 0.39,-0.19 0.14,-0.1 0.26,-0.15 0.4,-0.15 0.58,0 0.96,0.59 0.96,0.79 0,0.07 -0.08,0.07 -0.1,0.07 -0.08,0 -0.09,-0.02 -0.11,-0.08 -0.11,-0.3 -0.51,-0.35 -0.7,-0.35 -0.1,0 -0.23,0.01 -0.37,0.04 -0.28,0.04 -0.36,0.04 -0.43,0.04 -0.08,0 -0.09,0 -0.13,0 z"
       inkscape:connector-curvature="0"
       style="fill:#000000;stroke-width:0" /><path
       id="path3249"
       d="m 429.63,702.84 0,-0.04 0,-0.04 0,-0.04 -0.01,-0.05 0,-0.03 -0.01,-0.04 -0.01,-0.04 -0.01,-0.04 -0.01,-0.03 -0.01,-0.03 -0.01,-0.04 -0.02,-0.03 -0.01,-0.03 -0.01,-0.03 -0.02,-0.03 -0.01,-0.02 -0.02,-0.03 -0.01,-0.02 -0.02,-0.03 -0.02,-0.02 -0.01,-0.02 -0.02,-0.02 -0.02,-0.02 -0.01,-0.02 -0.02,-0.02 -0.01,-0.02 -0.02,-0.01 -0.01,-0.02 -0.02,-0.01 -0.01,-0.01 -0.02,-0.01 -0.01,-0.02 c -0.05,-0.03 -0.06,-0.04 -0.06,-0.08 0,-0.03 0.05,-0.09 0.09,-0.09 0.06,0 0.53,0.39 0.53,1.01 0,0.34 -0.15,0.56 -0.37,0.56 -0.19,0 -0.3,-0.15 -0.3,-0.3 0,-0.16 0.11,-0.3 0.3,-0.3 0.07,0 0.15,0.01 0.2,0.06 z"
       inkscape:connector-curvature="0"
       style="fill:#000000;stroke-width:0" /><path
       id="path3251"
       d="m 432.6,704.35 h 0.61 c 0.45,0 0.49,-0.07 0.49,-0.23 0,-0.08 -0.03,-0.21 -0.04,-0.23 0,-0.02 0,-0.03 0,-0.04 0,-0.03 0.02,-0.08 0.1,-0.08 0.07,0 0.1,0.02 0.12,0.1 l 0.29,1.2 c 0,0.01 0,0.08 -0.1,0.08 -0.09,0 -0.09,-0.03 -0.11,-0.11 -0.12,-0.39 -0.25,-0.47 -0.73,-0.47 h -0.58 l 0.3,1.19 c 0.04,0.15 0.04,0.16 0.25,0.16 h 0.91 c 0.71,0 0.88,-0.13 0.88,-0.62 0,-0.11 -0.01,-0.23 -0.01,-0.25 0,-0.07 0.04,-0.09 0.1,-0.09 0.09,0 0.1,0.05 0.11,0.14 l 0.08,0.88 0.01,0.08 c 0,0.09 -0.08,0.09 -0.17,0.09 h -2.99 c -0.1,0 -0.17,0 -0.17,-0.14 0,-0.09 0.06,-0.09 0.18,-0.09 0.05,0 0.21,0 0.32,-0.03 0,-0.05 0,-0.06 -0.02,-0.12 l -0.64,-2.58 c -0.04,-0.15 -0.05,-0.19 -0.43,-0.19 -0.13,0 -0.21,0 -0.21,-0.14 0,-0.04 0.04,-0.08 0.09,-0.08 0.11,0 0.24,0.01 0.35,0.01 0.12,0 0.25,0 0.38,0 0.14,0 0.27,0 0.41,0 0.14,0 0.28,-0.01 0.42,-0.01 0.03,0 0.13,0 0.13,0.13 0,0.09 -0.07,0.09 -0.2,0.09 -0.12,0 -0.16,0 -0.29,0.01 -0.12,0.01 -0.16,0.01 -0.16,0.07 0,0.03 0,0.04 0.02,0.11 z"
       inkscape:connector-curvature="0"
       style="fill:#000000;stroke-width:0" /><path
       id="path3253"
       d="m 439.74,708.69 0.01,0 0,0 0,0.01 0,0 0,0.01 0.01,0 0,0 0,0.01 0,0 0,0 0,0.01 0,0 0.01,0.01 0,0 0,0.01 0,0 0.01,0.01 0,0 0,0 0,0.01 0,0 0,0.01 0,0 0,0 0,0.01 0,0 0.01,0 0,0 0,0.01 0,0 0,0 0,0.01 0,0 0,0.01 c 0,0.11 -0.09,0.17 -0.17,0.17 -0.12,0 -0.15,-0.08 -0.19,-0.17 l -2.6,-6.48 c -0.04,-0.09 -0.04,-0.1 -0.04,-0.13 0,-0.11 0.09,-0.17 0.17,-0.17 0.12,0 0.15,0.08 0.19,0.17 z"
       inkscape:connector-curvature="0"
       style="fill:#000000;stroke-width:0" /><path
       id="path3255"
       d="m 443.86,705.04 h -0.24 c -0.02,-0.15 -0.09,-0.56 -0.18,-0.63 -0.06,-0.04 -0.59,-0.04 -0.69,-0.04 h -1.28 c 0.73,0.65 0.97,0.84 1.39,1.17 0.51,0.41 1,0.84 1,1.5 0,0.84 -0.74,1.35 -1.63,1.35 -0.87,0 -1.45,-0.6 -1.45,-1.24 0,-0.36 0.3,-0.39 0.37,-0.39 0.16,0 0.37,0.12 0.37,0.37 0,0.12 -0.05,0.37 -0.42,0.37 0.22,0.49 0.69,0.64 1.02,0.64 0.7,0 1.06,-0.54 1.06,-1.1 0,-0.61 -0.43,-1.09 -0.66,-1.34 l -1.67,-1.65 c -0.07,-0.06 -0.07,-0.08 -0.07,-0.27 h 2.87 z"
       inkscape:connector-curvature="0"
       style="fill:#000000;stroke-width:0" /></g>  <g
     id="g3498"
     transform="matrix(1.7,0,0,-1.7,-315.5897,1414.0953)"
     xml:space="preserve"
     stroke-miterlimit="10.433"
     font-style="normal"
     font-variant="normal"
     font-weight="normal"
     font-stretch="normal"
     font-size-adjust="none"
     letter-spacing="normal"
     word-spacing="normal"
     ns0:text="\\[ F_{y,R} = \\left. 4 F_y(\\alpha_{R}) \\right|_{F_{z,R}/4}\\]"
     ns0:preamble="/home/andre/Copy/Inkscape/preamble.ini"
     style="font-style:normal;font-variant:normal;font-weight:normal;font-stretch:normal;letter-spacing:normal;word-spacing:normal;text-anchor:start;fill:none;stroke:#000000;stroke-linecap:butt;stroke-linejoin:miter;stroke-miterlimit:10.43299961;stroke-opacity:1;stroke-dasharray:none;stroke-dashoffset:0"><path
       d="m 348.89,710.35 h 0.97 c 0.75,0 0.82,-0.15 0.82,-0.44 0,-0.07 0,-0.19 -0.07,-0.49 -0.01,-0.05 -0.03,-0.09 -0.03,-0.11 0,-0.08 0.06,-0.12 0.12,-0.12 0.1,0 0.1,0.03 0.15,0.21 l 0.55,2.15 c 0.03,0.11 0.03,0.13 0.03,0.16 0,0.02 -0.02,0.11 -0.12,0.11 -0.1,0 -0.11,-0.05 -0.15,-0.21 -0.21,-0.77 -0.44,-0.95 -1.28,-0.95 h -0.91 l 0.64,2.52 c 0.09,0.35 0.1,0.39 0.54,0.39 h 1.31 c 1.22,0 1.45,-0.33 1.45,-1.09 0,-0.23 0,-0.27 -0.03,-0.54 -0.02,-0.13 -0.02,-0.15 -0.02,-0.18 0,-0.05 0.03,-0.11 0.12,-0.11 0.11,0 0.12,0.06 0.14,0.24 l 0.2,1.72 c 0.03,0.27 -0.02,0.27 -0.27,0.27 h -4.87 c -0.2,0 -0.3,0 -0.3,-0.2 0,-0.11 0.09,-0.11 0.28,-0.11 0.36,0 0.64,0 0.64,-0.18 0,-0.04 0,-0.06 -0.05,-0.23 l -1.31,-5.26 c -0.1,-0.39 -0.12,-0.47 -0.9,-0.47 -0.17,0 -0.28,0 -0.28,-0.19 0,-0.12 0.12,-0.12 0.15,-0.12 0.29,0 1.02,0.04 1.31,0.04 0.33,0 1.15,-0.04 1.48,-0.04 0.09,0 0.21,0 0.21,0.19 0,0.08 -0.06,0.1 -0.06,0.11 -0.03,0.01 -0.05,0.01 -0.28,0.01 -0.22,0 -0.27,0 -0.52,0.02 -0.28,0.03 -0.31,0.07 -0.31,0.2 0,0.02 0,0.08 0.04,0.23 z"
       id="path3500"
       inkscape:connector-curvature="0"
       style="fill:#000000;stroke-width:0" /><path
       d="m 356.16,708.25 0,0.01 0,0 0,0.01 0,0 0,0 0,0.01 0.01,0.01 0,0 0,0.01 0,0.01 0,0 0,0.01 0.01,0 0,0.01 0,0 0,0.01 0,0 0,0.01 0,0 0,0 0,0.01 0,0 0,0 0,0.01 0,0.01 0,0 0,0.01 0,0 0,0.01 0,0 0,0.01 c 0,0.13 -0.11,0.22 -0.23,0.22 -0.07,0 -0.2,-0.04 -0.28,-0.17 -0.02,-0.04 -0.08,-0.26 -0.11,-0.4 l -0.15,-0.58 c -0.04,-0.17 -0.26,-1.04 -0.28,-1.12 0,0 -0.31,-0.6 -0.85,-0.6 -0.48,0 -0.48,0.45 -0.48,0.57 0,0.38 0.16,0.82 0.37,1.35 0.09,0.23 0.12,0.31 0.12,0.43 0,0.33 -0.28,0.59 -0.66,0.59 -0.7,0 -1.02,-0.95 -1.02,-1.07 0,-0.09 0.1,-0.09 0.12,-0.09 0.1,0 0.1,0.04 0.13,0.11 0.17,0.58 0.47,0.85 0.75,0.85 0.12,0 0.17,-0.07 0.17,-0.24 0,-0.16 -0.06,-0.31 -0.1,-0.4 -0.33,-0.85 -0.4,-1.11 -0.4,-1.41 0,-0.12 0,-0.45 0.27,-0.67 0.22,-0.18 0.51,-0.22 0.7,-0.22 0.28,0 0.53,0.11 0.76,0.31 -0.09,-0.38 -0.17,-0.67 -0.46,-1.02 -0.19,-0.21 -0.47,-0.44 -0.84,-0.44 -0.05,0 -0.37,0 -0.52,0.23 0.38,0.04 0.38,0.37 0.38,0.38 0,0.22 -0.21,0.26 -0.27,0.26 -0.18,0 -0.41,-0.14 -0.41,-0.46 0,-0.35 0.34,-0.61 0.83,-0.61 0.7,0 1.56,0.55 1.78,1.41 z"
       id="path3502"
       inkscape:connector-curvature="0"
       style="fill:#000000;stroke-width:0" /><path
       d="m 358.05,705.74 0,-0.07 -0.01,-0.07 0,-0.08 -0.01,-0.08 -0.01,-0.03 0,-0.04 -0.01,-0.04 -0.01,-0.04 -0.01,-0.04 -0.01,-0.04 -0.01,-0.04 -0.02,-0.04 -0.01,-0.04 -0.02,-0.04 -0.02,-0.04 -0.02,-0.04 -0.02,-0.04 -0.02,-0.04 -0.03,-0.05 -0.02,-0.04 -0.03,-0.04 -0.03,-0.04 -0.03,-0.04 -0.04,-0.04 -0.03,-0.04 -0.04,-0.05 -0.04,-0.04 -0.05,-0.04 c -0.02,-0.03 -0.05,-0.05 -0.05,-0.08 0,-0.05 0.06,-0.1 0.1,-0.1 0.1,0 0.69,0.55 0.69,1.38 0,0.43 -0.17,0.76 -0.49,0.76 -0.23,0 -0.39,-0.18 -0.39,-0.4 0,-0.22 0.16,-0.4 0.4,-0.4 0.17,0 0.28,0.11 0.29,0.11 z"
       id="path3504"
       inkscape:connector-curvature="0"
       style="fill:#000000;stroke-width:0" /><path
       d="m 363.08,707.99 0.08,0.02 0.07,0.03 0.08,0.02 0.08,0.02 0.07,0.03 0.07,0.03 0.07,0.02 0.07,0.04 0.07,0.03 0.07,0.03 0.07,0.04 0.06,0.03 0.06,0.04 0.06,0.04 0.06,0.04 0.05,0.04 0.06,0.05 0.05,0.04 0.04,0.05 0.05,0.04 0.04,0.05 0.04,0.05 0.04,0.05 0.03,0.05 0.03,0.05 0.02,0.06 0.03,0.05 0.01,0.05 0.02,0.06 0.01,0.06 0,0.05 0.01,0.06 c 0,0.6 -0.71,1.07 -1.72,1.07 h -2.14 c -0.13,0 -0.22,0 -0.22,-0.15 0,-0.1 0.08,-0.1 0.22,-0.1 0.01,0 0.14,0 0.26,-0.01 0.15,-0.02 0.16,-0.03 0.16,-0.1 0,-0.01 0,-0.05 -0.03,-0.15 l -0.92,-3.7 c -0.06,-0.23 -0.07,-0.29 -0.61,-0.29 -0.12,0 -0.21,0 -0.21,-0.15 0,-0.06 0.05,-0.1 0.11,-0.1 0.13,0 0.29,0.02 0.43,0.02 0.13,0 0.34,0.01 0.46,0.01 0.14,0 0.3,-0.01 0.45,-0.01 0.14,0 0.32,-0.02 0.46,-0.02 0.04,0 0.15,0 0.15,0.15 0,0.1 -0.07,0.1 -0.23,0.1 -0.11,0 -0.14,0 -0.27,0.02 -0.15,0.02 -0.15,0.03 -0.15,0.1 0,0.01 0,0.05 0.03,0.15 l 0.44,1.76 h 0.95 l 0,0.2 h -0.9 l 0.45,1.78 c 0.05,0.2 0.06,0.22 0.22,0.24 h 0.44 c 0.65,0 1.45,0 1.45,-0.72 0,-0.28 -0.13,-0.72 -0.46,-0.97 -0.29,-0.22 -0.72,-0.33 -1.2,-0.33 l 0,-0.2 c 0.59,0 0.85,-0.3 0.85,-0.62 0,-0.09 -0.06,-0.33 -0.1,-0.49 -0.08,-0.32 -0.11,-0.42 -0.11,-0.54 0,-0.55 0.51,-0.77 1.03,-0.77 0.64,0 0.92,0.68 0.92,0.81 0,0.02 -0.02,0.1 -0.12,0.1 -0.09,0 -0.11,-0.05 -0.13,-0.12 -0.1,-0.31 -0.35,-0.59 -0.65,-0.59 -0.18,0 -0.31,0.07 -0.31,0.45 0,0.17 0.04,0.53 0.07,0.72 0.03,0.19 0.03,0.26 0.03,0.33 0,0.08 0,0.3 -0.2,0.51 -0.13,0.15 -0.32,0.24 -0.47,0.29 z"
       id="path3506"
       inkscape:connector-curvature="0"
       style="fill:#000000;stroke-width:0" /><path
       d="m 375.08,710.37 0.03,0 0.03,0 0.03,0 0.01,0.01 0.02,0 0.01,0 0.01,0 0.02,0 0.01,0 0.02,0.01 0.01,0 0.01,0 0.01,0.01 0.02,0 0.01,0.01 0.01,0 0.01,0.01 0.01,0.01 0.01,0.01 0.01,0.01 0.01,0.01 0,0 0,0.01 0.01,0 0,0.01 0,0.01 0.01,0 0,0.01 0,0.01 0,0 0,0.01 0,0.01 0.01,0.01 0,0.01 0,0 0,0.01 0,0.01 c 0,0.2 -0.19,0.2 -0.33,0.2 h -5.96 c -0.14,0 -0.33,0 -0.33,-0.2 0,-0.2 0.19,-0.2 0.34,-0.2 z"
       id="path3508"
       inkscape:connector-curvature="0"
       style="fill:#000000;stroke-width:0" /><path
       d="m 375.09,708.45 0.01,0 0.02,0 0.02,0 0.03,0 0.02,0 0.01,0 0.01,0 0.02,0 0.01,0 0.01,0.01 0.02,0 0.01,0 0.01,0.01 0.02,0 0.01,0.01 0.01,0 0.01,0.01 0.01,0 0.01,0.01 0.01,0.01 0.01,0.01 0,0 0.01,0.01 0,0.01 0,0 0.01,0.01 0,0 0,0.01 0.01,0.01 0,0 0,0.01 0,0.01 0,0 0,0.01 0.01,0.01 0,0.01 0,0.01 0,0.01 0,0.01 c 0,0.19 -0.19,0.19 -0.34,0.19 h -5.94 c -0.15,0 -0.34,0 -0.34,-0.19 0,-0.2 0.19,-0.2 0.33,-0.2 z"
       id="path3510"
       inkscape:connector-curvature="0"
       style="fill:#000000;stroke-width:0" /><path
       d="m 382.88,708.76 v -0.86 c 0,-0.36 -0.02,-0.47 -0.75,-0.47 h -0.21 v -0.31 c 0.41,0.04 0.92,0.04 1.34,0.04 0.42,0 0.95,0 1.35,-0.04 v 0.31 h -0.2 c -0.74,0 -0.76,0.11 -0.76,0.47 v 0.86 h 0.99 v 0.31 h -0.99 v 4.52 c 0,0.2 0,0.26 -0.16,0.26 -0.09,0 -0.12,0 -0.2,-0.12 l -3.05,-4.66 h 0.28 l 2.42,3.71 v -3.71 h -2.42 -0.28 v -0.31 z"
       id="path3512"
       inkscape:connector-curvature="0"
       style="fill:#000000;stroke-width:0" /><path
       d="m 387.95,710.35 h 0.97 c 0.74,0 0.82,-0.15 0.82,-0.44 0,-0.07 0,-0.19 -0.07,-0.49 -0.02,-0.05 -0.03,-0.09 -0.03,-0.11 0,-0.08 0.06,-0.12 0.12,-0.12 0.1,0 0.1,0.03 0.15,0.21 l 0.55,2.15 c 0.03,0.11 0.03,0.13 0.03,0.16 0,0.02 -0.02,0.11 -0.12,0.11 -0.1,0 -0.11,-0.05 -0.15,-0.21 -0.21,-0.77 -0.44,-0.95 -1.28,-0.95 h -0.91 l 0.64,2.52 c 0.09,0.35 0.1,0.39 0.54,0.39 h 1.31 c 1.22,0 1.45,-0.33 1.45,-1.09 0,-0.23 0,-0.27 -0.03,-0.54 -0.02,-0.13 -0.02,-0.15 -0.02,-0.18 0,-0.05 0.03,-0.11 0.12,-0.11 0.11,0 0.12,0.06 0.14,0.24 l 0.2,1.72 c 0.03,0.27 -0.02,0.27 -0.27,0.27 h -4.87 c -0.2,0 -0.3,0 -0.3,-0.2 0,-0.11 0.09,-0.11 0.28,-0.11 0.36,0 0.64,0 0.64,-0.18 0,-0.04 0,-0.06 -0.05,-0.23 l -1.31,-5.26 c -0.1,-0.39 -0.12,-0.47 -0.9,-0.47 -0.18,0 -0.28,0 -0.28,-0.19 0,-0.12 0.11,-0.12 0.14,-0.12 0.29,0 1.03,0.04 1.32,0.04 0.33,0 1.15,-0.04 1.48,-0.04 0.09,0 0.21,0 0.21,0.19 0,0.08 -0.06,0.1 -0.06,0.11 -0.03,0.01 -0.05,0.01 -0.28,0.01 -0.22,0 -0.27,0 -0.52,0.02 -0.28,0.03 -0.31,0.07 -0.31,0.2 0,0.02 0,0.08 0.04,0.23 z"
       id="path3514"
       inkscape:connector-curvature="0"
       style="fill:#000000;stroke-width:0" /><path
       d="m 395.22,708.25 0,0.01 0,0 0,0.01 0,0 0,0 0,0.01 0.01,0.01 0,0 0,0.01 0,0.01 0,0 0,0.01 0,0 0.01,0.01 0,0 0,0.01 0,0 0,0.01 0,0 0,0 0,0.01 0,0 0,0 0,0.01 0,0.01 0,0 0,0.01 0,0 0,0.01 0,0 0,0.01 c 0,0.13 -0.11,0.22 -0.23,0.22 -0.07,0 -0.21,-0.04 -0.28,-0.17 -0.02,-0.04 -0.08,-0.26 -0.11,-0.4 l -0.15,-0.58 c -0.04,-0.17 -0.26,-1.04 -0.28,-1.12 -0.01,0 -0.31,-0.6 -0.85,-0.6 -0.48,0 -0.48,0.45 -0.48,0.57 0,0.38 0.16,0.82 0.37,1.35 0.09,0.23 0.12,0.31 0.12,0.43 0,0.33 -0.29,0.59 -0.66,0.59 -0.71,0 -1.02,-0.95 -1.02,-1.07 0,-0.09 0.1,-0.09 0.12,-0.09 0.1,0 0.1,0.04 0.13,0.11 0.17,0.58 0.47,0.85 0.75,0.85 0.12,0 0.17,-0.07 0.17,-0.24 0,-0.16 -0.06,-0.31 -0.1,-0.4 -0.33,-0.85 -0.4,-1.11 -0.4,-1.41 0,-0.12 0,-0.45 0.27,-0.67 0.22,-0.18 0.51,-0.22 0.7,-0.22 0.28,0 0.53,0.11 0.76,0.31 -0.09,-0.38 -0.17,-0.67 -0.46,-1.02 -0.19,-0.21 -0.47,-0.44 -0.84,-0.44 -0.05,0 -0.37,0 -0.52,0.23 0.37,0.04 0.37,0.37 0.37,0.38 0,0.22 -0.2,0.26 -0.27,0.26 -0.17,0 -0.4,-0.14 -0.4,-0.46 0,-0.35 0.33,-0.61 0.83,-0.61 0.7,0 1.56,0.55 1.77,1.41 z"
       id="path3516"
       inkscape:connector-curvature="0"
       style="fill:#000000;stroke-width:0" /><path
       d="m 399.43,704.74 0,0.01 0,0 0,0 -0.01,0.01 0,0 0,0 0,0.01 0,0 0,0 0,0.01 -0.01,0 0,0.01 0,0 -0.01,0.01 0,0 0,0.01 -0.01,0.01 -0.01,0 0,0.01 0,0 -0.01,0.01 0,0 0,0 -0.01,0.01 0,0 -0.01,0.01 0,0 0,0.01 -0.01,0 0,0.01 -0.01,0 -0.01,0.01 0,0.01 -0.01,0 0,0.01 -0.01,0.01 -0.01,0 0,0.01 -0.01,0.01 -0.01,0 -0.01,0.01 0,0.01 c -1.25,1.25 -1.56,3.13 -1.56,4.65 0,1.73 0.37,3.46 1.6,4.7 0.13,0.12 0.13,0.14 0.13,0.17 0,0.07 -0.04,0.1 -0.1,0.1 -0.1,0 -1,-0.68 -1.59,-1.94 -0.5,-1.09 -0.62,-2.2 -0.62,-3.03 0,-0.78 0.11,-1.98 0.65,-3.1 0.6,-1.22 1.46,-1.87 1.56,-1.87 0.06,0 0.1,0.03 0.1,0.1 z"
       id="path3518"
       inkscape:connector-curvature="0"
       style="fill:#000000;stroke-width:0" /><path
       d="m 404.75,709.47 0,0.07 0,0.07 0,0.07 -0.01,0.07 -0.01,0.13 -0.02,0.12 -0.02,0.12 -0.03,0.12 -0.03,0.1 -0.03,0.11 -0.04,0.09 -0.04,0.1 -0.05,0.08 -0.05,0.08 -0.05,0.08 -0.05,0.07 -0.06,0.07 -0.06,0.06 -0.06,0.05 -0.07,0.06 -0.06,0.05 -0.07,0.04 -0.07,0.04 -0.07,0.04 -0.07,0.03 -0.07,0.03 -0.07,0.02 -0.07,0.02 -0.07,0.02 -0.08,0.01 -0.07,0.01 -0.07,0.01 -0.07,0 -0.07,0.01 c -1.36,0 -2.67,-1.43 -2.67,-2.83 0,-0.92 0.59,-1.67 1.61,-1.67 l 0.02,0.21 c -0.6,0 -0.9,0.45 -0.9,1.09 0,0.48 0.26,1.56 0.58,2.06 0.47,0.73 1,0.92 1.35,0.92 0.99,0 0.99,-1.3 0.99,-2.08 0,-0.37 0,-0.94 0.02,-1.11 h 0 c -0.88,-0.77 -1.65,-0.88 -2.04,-0.88 l -0.02,-0.21 c 0.62,0 1.34,0.22 2.1,0.83 0.13,-0.53 0.45,-0.83 0.9,-0.83 0.53,0 0.84,0.54 0.84,0.7 0,0.07 -0.06,0.1 -0.12,0.1 -0.07,0 -0.1,-0.03 -0.13,-0.1 -0.18,-0.49 -0.54,-0.49 -0.56,-0.49 -0.31,0 -0.31,0.78 -0.31,1.02 0,0.21 0,0.23 0.1,0.34 0.94,1.18 1.15,2.33 1.15,2.34 0,0.02 -0.01,0.1 -0.12,0.1 -0.1,0 -0.1,-0.03 -0.15,-0.21 -0.18,-0.62 -0.51,-1.38 -0.98,-1.97 z"
       id="path3520"
       inkscape:connector-curvature="0"
       style="fill:#000000;stroke-width:0" /><path
       d="m 410.52,707.99 0.08,0.02 0.07,0.03 0.08,0.02 0.07,0.02 0.08,0.03 0.07,0.03 0.07,0.02 0.07,0.04 0.07,0.03 0.07,0.03 0.06,0.04 0.07,0.03 0.06,0.04 0.06,0.04 0.06,0.04 0.05,0.04 0.06,0.05 0.05,0.04 0.04,0.05 0.05,0.04 0.04,0.05 0.04,0.05 0.03,0.05 0.04,0.05 0.03,0.05 0.02,0.06 0.02,0.05 0.02,0.05 0.02,0.06 0.01,0.06 0,0.05 0,0.06 c 0,0.6 -0.71,1.07 -1.72,1.07 h -2.13 c -0.14,0 -0.23,0 -0.23,-0.15 0,-0.1 0.09,-0.1 0.23,-0.1 0,0 0.14,0 0.26,-0.01 0.15,-0.02 0.16,-0.03 0.16,-0.1 0,-0.01 0,-0.05 -0.03,-0.15 l -0.92,-3.7 c -0.06,-0.23 -0.07,-0.29 -0.62,-0.29 -0.11,0 -0.2,0 -0.2,-0.15 0,-0.06 0.04,-0.1 0.11,-0.1 0.13,0 0.29,0.02 0.43,0.02 0.13,0 0.33,0.01 0.46,0.01 0.14,0 0.3,-0.01 0.44,-0.01 0.15,0 0.32,-0.02 0.47,-0.02 0.04,0 0.15,0 0.15,0.15 0,0.1 -0.07,0.1 -0.23,0.1 -0.11,0 -0.14,0 -0.27,0.02 -0.15,0.02 -0.15,0.03 -0.15,0.1 0,0.01 0,0.05 0.03,0.15 l 0.44,1.76 h 0.94 l 0.01,0.2 h -0.9 l 0.45,1.78 c 0.05,0.2 0.06,0.22 0.21,0.24 h 0.45 c 0.65,0 1.45,0 1.45,-0.72 0,-0.28 -0.14,-0.72 -0.46,-0.97 -0.29,-0.22 -0.72,-0.33 -1.2,-0.33 l -0.01,-0.2 c 0.6,0 0.86,-0.3 0.86,-0.62 0,-0.09 -0.06,-0.33 -0.1,-0.49 -0.08,-0.32 -0.11,-0.42 -0.11,-0.54 0,-0.55 0.51,-0.77 1.02,-0.77 0.65,0 0.92,0.68 0.92,0.81 0,0.02 -0.01,0.1 -0.12,0.1 -0.09,0 -0.1,-0.05 -0.12,-0.12 -0.1,-0.31 -0.35,-0.59 -0.65,-0.59 -0.18,0 -0.31,0.07 -0.31,0.45 0,0.17 0.04,0.53 0.07,0.72 0.03,0.19 0.03,0.26 0.03,0.33 0,0.08 0,0.3 -0.2,0.51 -0.13,0.15 -0.32,0.24 -0.47,0.29 z"
       id="path3522"
       inkscape:connector-curvature="0"
       style="fill:#000000;stroke-width:0" /><path
       d="m 415.79,709.61 0,0.07 0,0.08 0,0.08 0,0.08 -0.01,0.17 -0.01,0.17 -0.02,0.18 -0.02,0.19 -0.03,0.2 -0.03,0.2 -0.04,0.2 -0.05,0.21 -0.05,0.21 -0.06,0.21 -0.07,0.21 -0.08,0.21 -0.04,0.11 -0.05,0.11 -0.04,0.1 -0.05,0.11 c -0.6,1.22 -1.46,1.87 -1.56,1.87 -0.06,0 -0.1,-0.04 -0.1,-0.1 0,-0.03 0,-0.05 0.19,-0.23 0.98,-0.99 1.54,-2.57 1.54,-4.64 0,-1.7 -0.36,-3.45 -1.6,-4.7 -0.13,-0.12 -0.13,-0.14 -0.13,-0.17 0,-0.06 0.04,-0.1 0.1,-0.1 0.1,0 1,0.68 1.58,1.94 0.51,1.09 0.63,2.19 0.63,3.03 z"
       id="path3524"
       inkscape:connector-curvature="0"
       style="fill:#000000;stroke-width:0" /><path
       d="m 418.37,714.22 0,0.03 0,0.03 0,0.04 0,0.01 0,0.02 0,0.01 0,0.02 -0.01,0.02 0,0.01 0,0.01 0,0.02 -0.01,0.01 0,0.01 -0.01,0.02 0,0.01 -0.01,0.01 -0.01,0.01 0,0.01 -0.01,0.01 -0.01,0.01 -0.01,0 -0.01,0.01 -0.01,0 0,0.01 -0.01,0 -0.01,0 0,0 -0.01,0.01 -0.01,0 -0.01,0 0,0 -0.01,0 -0.01,0 -0.01,0 -0.01,0 -0.01,0.01 c -0.19,0 -0.19,-0.18 -0.19,-0.36 V 705 c 0,-0.18 0,-0.36 0.19,-0.36 0.2,0 0.2,0.18 0.2,0.36 z"
       id="path3526"
       inkscape:connector-curvature="0"
       style="fill:#000000;stroke-width:0" /><path
       d="m 421.94,706.02 h 0.74 c 0.53,0 0.62,-0.09 0.62,-0.32 0,-0.1 0,-0.11 -0.04,-0.31 -0.02,-0.04 -0.03,-0.06 -0.03,-0.08 0,-0.07 0.05,-0.11 0.12,-0.11 0.09,0 0.1,0.04 0.14,0.16 l 0.37,1.48 c 0.01,0.02 0.03,0.12 0.03,0.14 0,0.06 -0.05,0.1 -0.12,0.1 -0.1,0 -0.1,-0.04 -0.14,-0.17 -0.14,-0.54 -0.34,-0.64 -0.93,-0.64 H 422 l 0.44,1.74 c 0.06,0.22 0.06,0.24 0.36,0.24 h 1.06 c 0.93,0 1.1,-0.22 1.1,-0.8 0,-0.23 -0.03,-0.38 -0.03,-0.43 0,-0.06 0.02,-0.12 0.12,-0.12 0.11,0 0.11,0.06 0.13,0.18 l 0.12,1.21 c 0.03,0.21 -0.02,0.21 -0.2,0.21 h -3.72 c -0.13,0 -0.22,0 -0.22,-0.15 0,-0.1 0.08,-0.1 0.22,-0.1 0.01,0 0.14,0 0.27,-0.02 0.14,-0.01 0.16,-0.02 0.16,-0.09 0,-0.05 -0.02,-0.12 -0.03,-0.16 l -0.91,-3.63 c -0.07,-0.27 -0.08,-0.32 -0.62,-0.32 -0.12,0 -0.21,0 -0.21,-0.15 0,-0.07 0.05,-0.1 0.11,-0.1 0.2,0 0.72,0.02 0.92,0.02 l 0.54,0 c 0.18,0 0.37,-0.02 0.55,-0.02 0.04,0 0.15,0 0.15,0.15 0,0.1 -0.08,0.1 -0.24,0.1 -0.02,0 -0.19,0 -0.37,0.01 -0.14,0.01 -0.21,0.02 -0.21,0.12 0,0.03 0,0.05 0.02,0.12 z"
       id="path3528"
       inkscape:connector-curvature="0"
       style="fill:#000000;stroke-width:0" /><path
       d="m 425.75,703.23 0.04,0.03 0.04,0.04 0.04,0.03 0.04,0.04 0.05,0.04 0.04,0.03 0.05,0.04 0.04,0.03 0.05,0.04 0.05,0.03 0.04,0.04 0.05,0.03 0.05,0.04 0.05,0.03 0.05,0.04 0.06,0.04 c 0.33,0.24 0.54,0.4 0.75,0.6 0.25,0.23 0.42,0.45 0.42,0.5 0,0.07 -0.07,0.07 -0.1,0.07 -0.07,0 -0.08,0 -0.12,-0.06 -0.19,-0.26 -0.3,-0.28 -0.39,-0.28 -0.08,0 -0.15,0.01 -0.31,0.13 -0.16,0.13 -0.27,0.21 -0.46,0.21 -0.45,0 -0.75,-0.44 -0.75,-0.59 0,-0.08 0.07,-0.08 0.11,-0.08 0.05,0 0.07,0.02 0.1,0.06 0.02,0.06 0.07,0.18 0.47,0.18 0.14,0 0.24,-0.01 0.5,-0.05 0.18,-0.03 0.24,-0.03 0.33,-0.03 -0.15,-0.13 -0.3,-0.26 -0.67,-0.53 -0.36,-0.25 -0.57,-0.4 -0.8,-0.62 -0.2,-0.18 -0.44,-0.45 -0.44,-0.52 0,-0.07 0.08,-0.07 0.11,-0.07 0.06,0 0.07,0 0.1,0.05 0.15,0.19 0.33,0.29 0.5,0.29 0.14,0 0.21,-0.05 0.39,-0.19 0.14,-0.1 0.25,-0.15 0.4,-0.15 0.58,0 0.96,0.59 0.96,0.79 0,0.07 -0.08,0.07 -0.1,0.07 -0.08,0 -0.09,-0.02 -0.11,-0.08 -0.12,-0.3 -0.51,-0.35 -0.7,-0.35 -0.1,0 -0.23,0.01 -0.38,0.04 -0.28,0.04 -0.36,0.04 -0.42,0.04 -0.08,0 -0.09,0 -0.13,0 z"
       id="path3530"
       inkscape:connector-curvature="0"
       style="fill:#000000;stroke-width:0" /><path
       d="m 429.57,702.84 0,-0.04 0,-0.04 -0.01,-0.04 0,-0.05 -0.01,-0.03 -0.01,-0.04 0,-0.04 -0.01,-0.04 -0.01,-0.03 -0.02,-0.03 -0.01,-0.04 -0.01,-0.03 -0.01,-0.03 -0.02,-0.03 -0.01,-0.03 -0.02,-0.02 -0.01,-0.03 -0.02,-0.02 -0.01,-0.03 -0.02,-0.02 -0.02,-0.02 -0.01,-0.02 -0.02,-0.02 -0.02,-0.02 -0.01,-0.02 -0.02,-0.02 -0.01,-0.01 -0.02,-0.02 -0.01,-0.01 -0.02,-0.01 -0.01,-0.01 -0.01,-0.02 c -0.05,-0.03 -0.06,-0.04 -0.06,-0.08 0,-0.03 0.04,-0.09 0.09,-0.09 0.06,0 0.53,0.39 0.53,1.01 0,0.34 -0.15,0.56 -0.38,0.56 -0.18,0 -0.3,-0.15 -0.3,-0.3 0,-0.16 0.12,-0.3 0.3,-0.3 0.08,0 0.15,0.01 0.21,0.06 z"
       id="path3532"
       inkscape:connector-curvature="0"
       style="fill:#000000;stroke-width:0" /><path
       d="m 434.05,704.47 0.1,0.03 0.11,0.03 0.05,0.02 0.05,0.02 0.05,0.02 0.05,0.02 0.05,0.02 0.05,0.02 0.05,0.02 0.04,0.03 0.05,0.02 0.04,0.03 0.05,0.03 0.04,0.03 0.04,0.03 0.04,0.03 0.03,0.03 0.04,0.03 0.03,0.03 0.03,0.03 0.03,0.04 0.02,0.03 0.02,0.04 0.02,0.04 0.02,0.04 0.01,0.03 0.02,0.04 0,0.04 0.01,0.05 0,0.04 c 0,0.45 -0.61,0.79 -1.4,0.79 h -1.72 c -0.1,0 -0.17,0 -0.17,-0.14 0,-0.09 0.06,-0.09 0.18,-0.09 0.05,0 0.22,0 0.32,-0.03 0,-0.06 0,-0.07 -0.02,-0.12 l -0.65,-2.6 c -0.04,-0.15 -0.04,-0.19 -0.43,-0.19 -0.12,0 -0.2,0 -0.2,-0.14 0,-0.04 0.04,-0.08 0.09,-0.08 0.11,0 0.22,0.01 0.33,0.01 0.12,0 0.24,0 0.36,0 0.13,0 0.25,0 0.37,0 0.11,0 0.23,-0.01 0.34,-0.01 0.03,0 0.12,0 0.12,0.13 0,0.09 -0.07,0.09 -0.16,0.09 -0.01,0 -0.13,0 -0.22,0.01 -0.12,0.01 -0.13,0.01 -0.13,0.05 0,0.01 0,0.02 0.02,0.07 l 0.31,1.26 h 0.79 l 0.02,0.17 h -0.77 l 0.31,1.22 c 0.04,0.15 0.04,0.16 0.25,0.16 h 0.57 c 0.56,0 0.93,-0.13 0.93,-0.52 0,-0.22 -0.12,-0.49 -0.36,-0.65 -0.05,-0.03 -0.33,-0.21 -0.93,-0.21 l -0.02,-0.17 c 0.36,0 0.72,-0.13 0.72,-0.44 0,-0.06 -0.05,-0.23 -0.08,-0.34 -0.03,-0.13 -0.07,-0.28 -0.07,-0.38 0,-0.47 0.51,-0.56 0.82,-0.56 0.49,0 0.72,0.47 0.72,0.59 0,0.08 -0.07,0.08 -0.1,0.08 -0.07,0 -0.09,-0.03 -0.11,-0.09 -0.08,-0.26 -0.3,-0.41 -0.49,-0.41 -0.13,0 -0.27,0.03 -0.27,0.35 0,0.11 0.04,0.39 0.06,0.51 0.02,0.15 0.02,0.17 0.02,0.2 0,0.38 -0.34,0.51 -0.49,0.57 z"
       id="path3534"
       inkscape:connector-curvature="0"
       style="fill:#000000;stroke-width:0" /><path
       d="m 439.64,708.69 0,0 0,0 0,0.01 0,0 0,0.01 0.01,0 0,0 0,0.01 0,0 0,0 0,0.01 0,0 0.01,0.01 0,0 0,0.01 0,0 0.01,0.01 0,0 0,0 0,0.01 0,0 0,0.01 0,0 0,0 0,0.01 0,0 0.01,0 0,0 0,0.01 0,0 0,0 0,0.01 0,0 0,0.01 c 0,0.11 -0.09,0.17 -0.17,0.17 -0.12,0 -0.15,-0.08 -0.19,-0.17 l -2.6,-6.48 c -0.04,-0.09 -0.04,-0.1 -0.04,-0.13 0,-0.11 0.09,-0.17 0.17,-0.17 0.12,0 0.15,0.08 0.19,0.17 z"
       id="path3536"
       inkscape:connector-curvature="0"
       style="fill:#000000;stroke-width:0" /><path
       d="m 443.91,704.92 v 0.25 h -0.77 v 3.1 c 0,0.14 0,0.19 -0.16,0.19 -0.08,0 -0.11,0 -0.18,-0.09 l -2.3,-3.2 v -0.25 h 2.05 l 0.05,0.25 h -1.84 l 1.84,2.54 v -2.54 l -0.05,-0.25 v -0.57 c 0,-0.24 0,-0.32 -0.57,-0.32 h -0.19 v -0.25 c 0.35,0.01 0.8,0.02 1.05,0.02 0.26,0 0.7,-0.01 1.05,-0.02 v 0.25 h -0.19 c -0.56,0 -0.56,0.08 -0.56,0.32 v 0.57 z"
       id="path3538"
       inkscape:connector-curvature="0"
       style="fill:#000000;stroke-width:0" /></g>  <g
     style="font-style:normal;font-variant:normal;font-weight:normal;font-stretch:normal;letter-spacing:normal;word-spacing:normal;text-anchor:start;fill:none;stroke:#000000;stroke-linecap:butt;stroke-linejoin:miter;stroke-miterlimit:10.43299961;stroke-opacity:1;stroke-dasharray:none;stroke-dashoffset:0"
     ns0:preamble="/home/andre/Copy/Inkscape/preamble.ini"
     ns0:text="\\[ F_{y,M} = \\left. 8 F_y(\\alpha_{M}) \\right|_{F_{z,M}/8}\\]"
     text-anchor="start"
     word-spacing="normal"
     letter-spacing="normal"
     font-size-adjust="none"
     font-stretch="normal"
     font-weight="normal"
     font-variant="normal"
     font-style="normal"
     fill-opacity="1"
     fill-rule="evenodd"
     fill="none"
     stroke-opacity="1"
     stroke-dashoffset="0"
     stroke-dasharray="none"
     stroke-miterlimit="10.433"
     stroke-linejoin="miter"
     stroke-linecap="butt"
     stroke="black"
     xml:space="preserve"
     transform="matrix(1.7,0,0,-1.7,-580.006,1297.6444)"
     id="g3785"><path
       id="path3787"
       fill="black"
       stroke-width="0"
       d="M345.69,710.35 H346.65 C347.4,710.35,347.48,710.2,347.48,709.91 C347.48,709.84,347.48,709.72,347.41,709.42 C347.39,709.37,347.38,709.33,347.38,709.31 C347.38,709.23,347.44,709.19,347.5,709.19 C347.6,709.19,347.6,709.22,347.65,709.4 L348.19,711.55 C348.22,711.66,348.22,711.68,348.22,711.71 C348.22,711.73,348.2,711.82,348.1,711.82 C348,711.82,347.99,711.77,347.95,711.61 C347.74,710.84,347.52,710.66,346.67,710.66 H345.77 L346.4,713.18 C346.49,713.53,346.5,713.57,346.94,713.57 H348.25 C349.48,713.57,349.7,713.24,349.7,712.48 C349.7,712.25,349.7,712.21,349.67,711.94 C349.65,711.81,349.65,711.79,349.65,711.76 C349.65,711.71,349.68,711.65,349.77,711.65 C349.88,711.65,349.89,711.71,349.91,711.89 L350.11,713.61 C350.14,713.88,350.09,713.88,349.84,713.88 H344.97 C344.77,713.88,344.67,713.88,344.67,713.68 C344.67,713.57,344.76,713.57,344.95,713.57 C345.32,713.57,345.6,713.57,345.6,713.39 C345.6,713.35,345.6,713.33,345.55,713.16 L344.23,707.9 C344.13,707.51,344.11,707.43,343.33,707.43 C343.16,707.43,343.05,707.43,343.05,707.24 C343.05,707.12,343.17,707.12,343.2,707.12 C343.49,707.12,344.22,707.16,344.51,707.16 C344.84,707.16,345.67,707.12,345.99,707.12 C346.08,707.12,346.2,707.12,346.2,707.31 C346.2,707.39,346.14,707.41,346.14,707.42 C346.11,707.43,346.09,707.43,345.86,707.43 C345.65,707.43,345.6,707.43,345.35,707.45 C345.06,707.48,345.03,707.52,345.03,707.65 C345.03,707.67,345.03,707.73,345.07,707.88 Z " /><path
       id="path3789"
       fill="black"
       stroke-width="0"
       d="M352.95,708.25 L352.95,708.26 L352.95,708.26 L352.95,708.27 L352.95,708.27 L352.96,708.27 L352.96,708.28 L352.96,708.29 L352.96,708.29 L352.96,708.3 L352.96,708.31 L352.97,708.31 L352.97,708.32 L352.97,708.32 L352.97,708.33 L352.97,708.33 L352.97,708.34 L352.97,708.34 L352.97,708.35 L352.97,708.35 L352.97,708.35 L352.97,708.36 L352.98,708.36 L352.98,708.36 L352.98,708.37 L352.98,708.38 L352.98,708.38 L352.98,708.39 L352.98,708.39 L352.98,708.4 L352.98,708.4 L352.98,708.41 C352.98,708.54,352.87,708.63,352.75,708.63 C352.67,708.63,352.54,708.59,352.46,708.46 C352.44,708.42,352.39,708.2,352.35,708.06 L352.2,707.48 C352.16,707.31,351.95,706.44,351.92,706.36 C351.92,706.36,351.61,705.76,351.07,705.76 C350.6,705.76,350.6,706.21,350.6,706.33 C350.6,706.71,350.76,707.15,350.96,707.68 C351.05,707.91,351.08,707.99,351.08,708.11 C351.08,708.44,350.8,708.7,350.42,708.7 C349.72,708.7,349.4,707.75,349.4,707.63 C349.4,707.54,349.5,707.54,349.52,707.54 C349.62,707.54,349.63,707.58,349.65,707.65 C349.82,708.23,350.12,708.5,350.4,708.5 C350.52,708.5,350.57,708.43,350.57,708.26 C350.57,708.1,350.51,707.95,350.48,707.86 C350.14,707.01,350.07,706.75,350.07,706.45 C350.07,706.33,350.07,706,350.34,705.78 C350.56,705.6,350.85,705.56,351.04,705.56 C351.32,705.56,351.57,705.67,351.8,705.87 C351.71,705.49,351.63,705.2,351.34,704.85 C351.15,704.64,350.87,704.41,350.51,704.41 C350.46,704.41,350.13,704.41,349.98,704.64 C350.36,704.68,350.36,705.01,350.36,705.02 C350.36,705.24,350.16,705.28,350.09,705.28 C349.91,705.28,349.68,705.14,349.68,704.82 C349.68,704.47,350.02,704.21,350.51,704.21 C351.21,704.21,352.07,704.76,352.29,705.62 Z " /><path
       id="path3791"
       fill="black"
       stroke-width="0"
       d="M354.84,705.74 L354.84,705.67 L354.83,705.6 L354.83,705.52 L354.82,705.44 L354.81,705.41 L354.81,705.37 L354.8,705.33 L354.79,705.29 L354.78,705.25 L354.77,705.21 L354.76,705.17 L354.74,705.13 L354.73,705.09 L354.71,705.05 L354.69,705.01 L354.67,704.97 L354.65,704.93 L354.63,704.89 L354.61,704.84 L354.58,704.8 L354.55,704.76 L354.52,704.72 L354.49,704.68 L354.45,704.64 L354.42,704.6 L354.38,704.55 L354.34,704.51 L354.3,704.47 C354.27,704.44,354.25,704.42,354.25,704.39 C354.25,704.34,354.3,704.29,354.34,704.29 C354.44,704.29,355.03,704.84,355.03,705.67 C355.03,706.1,354.87,706.43,354.55,706.43 C354.32,706.43,354.15,706.25,354.15,706.03 C354.15,705.81,354.31,705.63,354.55,705.63 C354.72,705.63,354.83,705.74,354.84,705.74 Z " /><path
       id="path3793"
       fill="black"
       stroke-width="0"
       d="M362.85,709.82 L362.85,709.84 L362.86,709.86 L362.86,709.88 L362.87,709.9 L362.87,709.92 L362.88,709.94 L362.89,709.96 L362.89,709.97 L362.9,709.99 L362.91,710 L362.92,710.02 L362.92,710.03 L362.93,710.04 L362.95,710.05 L362.96,710.06 L362.97,710.07 L362.99,710.08 L363,710.09 L363.02,710.09 L363.04,710.1 L363.06,710.1 L363.07,710.11 L363.08,710.11 L363.1,710.11 L363.11,710.11 L363.12,710.12 L363.14,710.12 L363.15,710.12 L363.17,710.12 L363.18,710.12 L363.2,710.12 L363.21,710.12 L363.23,710.13 L363.25,710.13 L363.27,710.13 L363.29,710.13 L363.31,710.13 L363.33,710.13 L363.35,710.13 L363.37,710.13 L363.39,710.13 L363.41,710.13 L363.44,710.13 C363.58,710.13,363.67,710.13,363.67,710.28 C363.67,710.38,363.59,710.38,363.46,710.38 H362.52 C362.32,710.38,362.31,710.37,362.22,710.24 L359.53,706.28 L358.84,710.19 C358.81,710.37,358.81,710.38,358.6,710.38 H357.6 C357.46,710.38,357.37,710.38,357.37,710.23 C357.37,710.13,357.45,710.13,357.61,710.13 C357.72,710.13,357.75,710.13,357.87,710.12 C358.01,710.1,358.03,710.09,358.03,710.02 C358.03,710.01,358.03,709.97,358,709.87 L357.12,706.38 C357.06,706.14,356.95,705.9,356.4,705.88 C356.34,705.88,356.25,705.87,356.25,705.73 C356.25,705.72,356.26,705.63,356.36,705.63 C356.56,705.63,356.86,705.66,357.08,705.66 C357.25,705.66,357.65,705.63,357.82,705.63 C357.85,705.63,357.96,705.63,357.96,705.78 C357.96,705.87,357.87,705.88,357.8,705.88 C357.36,705.9,357.36,706.08,357.36,706.17 C357.36,706.2,357.36,706.24,357.39,706.35 L358.31,710.05 H358.32 L359.06,705.82 C359.08,705.69,359.1,705.63,359.2,705.63 C359.3,705.63,359.36,705.71,359.4,705.78 L362.33,710.12 L362.34,710.11 L361.36,706.17 C361.3,705.94,361.29,705.88,360.74,705.88 C360.62,705.88,360.53,705.88,360.53,705.73 C360.53,705.72,360.53,705.63,360.64,705.63 C360.78,705.63,360.94,705.65,361.08,705.65 C361.22,705.65,361.38,705.66,361.52,705.66 C361.71,705.66,362.2,705.63,362.4,705.63 C362.44,705.63,362.55,705.63,362.55,705.78 C362.55,705.88,362.46,705.88,362.32,705.88 C362.32,705.88,362.18,705.88,362.06,705.9 C361.9,705.91,361.9,705.93,361.9,706 C361.9,706.04,361.92,706.11,361.93,706.15 Z " /><path
       id="path3795"
       fill="black"
       stroke-width="0"
       d="M374.18,710.37 L374.21,710.37 L374.24,710.37 L374.27,710.37 L374.28,710.38 L374.3,710.38 L374.31,710.38 L374.32,710.38 L374.34,710.38 L374.35,710.38 L374.37,710.39 L374.38,710.39 L374.39,710.39 L374.4,710.4 L374.42,710.4 L374.43,710.41 L374.44,710.41 L374.45,710.42 L374.46,710.43 L374.47,710.44 L374.48,710.45 L374.49,710.46 L374.49,710.46 L374.49,710.47 L374.5,710.47 L374.5,710.48 L374.5,710.49 L374.51,710.49 L374.51,710.5 L374.51,710.51 L374.51,710.51 L374.51,710.52 L374.51,710.53 L374.52,710.54 L374.52,710.55 L374.52,710.55 L374.52,710.56 L374.52,710.57 C374.52,710.77,374.33,710.77,374.19,710.77 H368.23 C368.09,710.77,367.9,710.77,367.9,710.57 C367.9,710.37,368.09,710.37,368.24,710.37 Z " /><path
       id="path3797"
       fill="black"
       stroke-width="0"
       d="M374.19,708.45 L374.2,708.45 L374.22,708.45 L374.24,708.45 L374.27,708.45 L374.29,708.45 L374.3,708.45 L374.31,708.45 L374.33,708.45 L374.34,708.45 L374.35,708.46 L374.37,708.46 L374.38,708.46 L374.39,708.47 L374.41,708.47 L374.42,708.48 L374.43,708.48 L374.44,708.49 L374.45,708.49 L374.46,708.5 L374.47,708.51 L374.48,708.52 L374.48,708.52 L374.49,708.53 L374.49,708.54 L374.49,708.54 L374.5,708.55 L374.5,708.55 L374.5,708.56 L374.51,708.57 L374.51,708.57 L374.51,708.58 L374.51,708.59 L374.51,708.59 L374.51,708.6 L374.52,708.61 L374.52,708.62 L374.52,708.63 L374.52,708.64 L374.52,708.65 C374.52,708.84,374.33,708.84,374.18,708.84 H368.24 C368.09,708.84,367.9,708.84,367.9,708.65 C367.9,708.45,368.09,708.45,368.23,708.45 Z " /><path
       id="path3799"
       fill="black"
       stroke-width="0"
       d="M382.13,710.72 L382.2,710.76 L382.26,710.79 L382.33,710.83 L382.39,710.87 L382.45,710.9 L382.51,710.94 L382.57,710.98 L382.62,711.02 L382.68,711.07 L382.73,711.11 L382.78,711.15 L382.83,711.2 L382.88,711.24 L382.92,711.29 L382.96,711.34 L383,711.38 L383.04,711.43 L383.08,711.48 L383.11,711.53 L383.15,711.58 L383.17,711.63 L383.2,711.69 L383.23,711.74 L383.25,711.8 L383.27,711.85 L383.29,711.91 L383.3,711.96 L383.31,712.02 L383.32,712.08 L383.33,712.14 L383.34,712.2 L383.34,712.26 C383.34,713.17,382.45,713.74,381.55,713.74 L381.54,713.49 C382.26,713.49,382.9,712.98,382.9,712.26 C382.9,711.7,382.51,711.22,381.91,710.87 L380.68,711.66 C380.22,711.96,380.18,712.3,380.18,712.47 C380.18,713.08,380.83,713.49,381.54,713.49 L381.55,713.74 C380.55,713.74,379.75,713.01,379.75,712.08 C379.75,711.9,379.77,711.46,380.18,710.99 C380.29,710.87,380.66,710.62,380.91,710.45 L381.14,710.3 L382.36,709.53 C382.64,709.34,383.11,709.04,383.11,708.44 C383.11,707.7,382.36,707.18,381.55,707.18 C380.69,707.18,379.97,707.8,379.97,708.62 C379.97,709.2,380.29,709.84,381.14,710.3 H381.14 L380.91,710.45 C380.33,710.16,379.48,709.61,379.48,708.62 C379.48,707.57,380.49,706.91,381.54,706.91 C382.66,706.91,383.61,707.73,383.61,708.79 C383.61,709.15,383.5,709.6,383.12,710.02 C382.93,710.22,382.77,710.32,382.13,710.72 Z " /><path
       id="path3801"
       fill="black"
       stroke-width="0"
       d="M387.05,710.35 H388.02 C388.76,710.35,388.84,710.2,388.84,709.91 C388.84,709.84,388.84,709.72,388.77,709.42 C388.75,709.37,388.74,709.33,388.74,709.31 C388.74,709.23,388.8,709.19,388.86,709.19 C388.96,709.19,388.96,709.22,389.01,709.4 L389.56,711.55 C389.59,711.66,389.59,711.68,389.59,711.71 C389.59,711.73,389.57,711.82,389.47,711.82 C389.37,711.82,389.36,711.77,389.32,711.61 C389.11,710.84,388.88,710.66,388.04,710.66 H387.13 L387.77,713.18 C387.86,713.53,387.87,713.57,388.3,713.57 H389.62 C390.84,713.57,391.07,713.24,391.07,712.48 C391.07,712.25,391.07,712.21,391.04,711.94 C391.02,711.81,391.02,711.79,391.02,711.76 C391.02,711.71,391.05,711.65,391.14,711.65 C391.25,711.65,391.26,711.71,391.28,711.89 L391.48,713.61 C391.51,713.88,391.46,713.88,391.21,713.88 H386.33 C386.14,713.88,386.04,713.88,386.04,713.68 C386.04,713.57,386.13,713.57,386.32,713.57 C386.68,713.57,386.96,713.57,386.96,713.39 C386.96,713.35,386.96,713.33,386.91,713.16 L385.6,707.9 C385.5,707.51,385.48,707.43,384.69,707.43 C384.52,707.43,384.42,707.43,384.42,707.24 C384.42,707.12,384.53,707.12,384.56,707.12 C384.85,707.12,385.59,707.16,385.88,707.16 C386.21,707.16,387.03,707.12,387.36,707.12 C387.45,707.12,387.57,707.12,387.57,707.31 C387.57,707.39,387.51,707.41,387.51,707.42 C387.48,707.43,387.46,707.43,387.23,707.43 C387.01,707.43,386.96,707.43,386.71,707.45 C386.42,707.48,386.39,707.52,386.39,707.65 C386.39,707.67,386.39,707.73,386.43,707.88 Z " /><path
       id="path3803"
       fill="black"
       stroke-width="0"
       d="M394.32,708.25 L394.32,708.26 L394.32,708.26 L394.32,708.27 L394.32,708.27 L394.32,708.27 L394.32,708.28 L394.33,708.29 L394.33,708.29 L394.33,708.3 L394.33,708.31 L394.33,708.31 L394.33,708.32 L394.33,708.32 L394.34,708.33 L394.34,708.33 L394.34,708.34 L394.34,708.34 L394.34,708.35 L394.34,708.35 L394.34,708.35 L394.34,708.36 L394.34,708.36 L394.34,708.36 L394.34,708.37 L394.34,708.38 L394.34,708.38 L394.34,708.39 L394.34,708.39 L394.34,708.4 L394.34,708.4 L394.34,708.41 C394.34,708.54,394.23,708.63,394.11,708.63 C394.04,708.63,393.9,708.59,393.83,708.46 C393.81,708.42,393.75,708.2,393.72,708.06 L393.57,707.48 C393.53,707.31,393.31,706.44,393.29,706.36 C393.29,706.36,392.98,705.76,392.44,705.76 C391.96,705.76,391.96,706.21,391.96,706.33 C391.96,706.71,392.12,707.15,392.33,707.68 C392.42,707.91,392.45,707.99,392.45,708.11 C392.45,708.44,392.16,708.7,391.79,708.7 C391.08,708.7,390.77,707.75,390.77,707.63 C390.77,707.54,390.87,707.54,390.89,707.54 C390.99,707.54,390.99,707.58,391.02,707.65 C391.19,708.23,391.49,708.5,391.77,708.5 C391.89,708.5,391.94,708.43,391.94,708.26 C391.94,708.1,391.88,707.95,391.84,707.86 C391.51,707.01,391.44,706.75,391.44,706.45 C391.44,706.33,391.44,706,391.71,705.78 C391.93,705.6,392.22,705.56,392.41,705.56 C392.69,705.56,392.94,705.67,393.17,705.87 C393.08,705.49,393,705.2,392.71,704.85 C392.52,704.64,392.24,704.41,391.87,704.41 C391.82,704.41,391.5,704.41,391.35,704.64 C391.73,704.68,391.73,705.01,391.73,705.02 C391.73,705.24,391.52,705.28,391.45,705.28 C391.28,705.28,391.05,705.14,391.05,704.82 C391.05,704.47,391.38,704.21,391.88,704.21 C392.58,704.21,393.44,704.76,393.65,705.62 Z " /><path
       id="path3805"
       fill="black"
       stroke-width="0"
       d="M398.53,704.74 L398.53,704.75 L398.53,704.75 L398.53,704.75 L398.52,704.76 L398.52,704.76 L398.52,704.76 L398.52,704.77 L398.52,704.77 L398.52,704.77 L398.52,704.78 L398.51,704.78 L398.51,704.79 L398.51,704.79 L398.5,704.8 L398.5,704.8 L398.5,704.81 L398.49,704.82 L398.48,704.82 L398.48,704.83 L398.48,704.83 L398.47,704.84 L398.47,704.84 L398.47,704.84 L398.46,704.85 L398.46,704.85 L398.45,704.86 L398.45,704.86 L398.45,704.87 L398.44,704.87 L398.44,704.88 L398.43,704.88 L398.42,704.89 L398.42,704.9 L398.41,704.9 L398.41,704.91 L398.4,704.92 L398.39,704.92 L398.39,704.93 L398.38,704.94 L398.37,704.94 L398.36,704.95 L398.36,704.96 C397.11,706.21,396.8,708.09,396.8,709.61 C396.8,711.34,397.17,713.07,398.4,714.31 C398.53,714.43,398.53,714.45,398.53,714.48 C398.53,714.55,398.49,714.58,398.43,714.58 C398.33,714.58,397.43,713.9,396.85,712.64 C396.34,711.55,396.22,710.44,396.22,709.61 C396.22,708.83,396.33,707.63,396.88,706.51 C397.47,705.29,398.33,704.64,398.43,704.64 C398.49,704.64,398.53,704.67,398.53,704.74 Z " /><path
       id="path3807"
       fill="black"
       stroke-width="0"
       d="M403.85,709.47 L403.85,709.54 L403.85,709.61 L403.85,709.68 L403.84,709.75 L403.83,709.88 L403.81,710 L403.79,710.12 L403.76,710.24 L403.73,710.34 L403.7,710.45 L403.66,710.54 L403.62,710.64 L403.57,710.72 L403.52,710.8 L403.47,710.88 L403.42,710.95 L403.36,711.02 L403.3,711.08 L403.24,711.13 L403.17,711.19 L403.11,711.24 L403.04,711.28 L402.97,711.32 L402.9,711.36 L402.83,711.39 L402.76,711.42 L402.69,711.44 L402.62,711.46 L402.55,711.48 L402.47,711.49 L402.4,711.5 L402.33,711.51 L402.26,711.51 L402.19,711.52 C400.83,711.52,399.52,710.09,399.52,708.69 C399.52,707.77,400.11,707.02,401.13,707.02 L401.15,707.23 C400.55,707.23,400.25,707.68,400.25,708.32 C400.25,708.8,400.51,709.88,400.83,710.38 C401.3,711.11,401.83,711.3,402.18,711.3 C403.17,711.3,403.17,710,403.17,709.22 C403.17,708.85,403.17,708.28,403.19,708.11 H403.19 C402.31,707.34,401.54,707.23,401.15,707.23 L401.13,707.02 C401.75,707.02,402.47,707.24,403.23,707.85 C403.36,707.32,403.68,707.02,404.13,707.02 C404.66,707.02,404.97,707.56,404.97,707.72 C404.97,707.79,404.91,707.82,404.85,707.82 C404.78,707.82,404.75,707.79,404.72,707.72 C404.54,707.23,404.18,707.23,404.16,707.23 C403.85,707.23,403.85,708.01,403.85,708.25 C403.85,708.46,403.85,708.48,403.95,708.59 C404.89,709.77,405.1,710.92,405.1,710.93 C405.1,710.95,405.09,711.03,404.98,711.03 C404.88,711.03,404.88,711,404.83,710.82 C404.65,710.2,404.32,709.44,403.85,708.85 Z " /><path
       id="path3809"
       fill="black"
       stroke-width="0"
       d="M412.59,709.82 L412.6,709.84 L412.6,709.86 L412.61,709.88 L412.61,709.9 L412.62,709.92 L412.62,709.94 L412.63,709.96 L412.64,709.97 L412.64,709.99 L412.65,710 L412.66,710.02 L412.67,710.03 L412.68,710.04 L412.69,710.05 L412.7,710.06 L412.72,710.07 L412.73,710.08 L412.75,710.09 L412.77,710.09 L412.79,710.1 L412.81,710.1 L412.82,710.11 L412.83,710.11 L412.84,710.11 L412.85,710.11 L412.87,710.12 L412.88,710.12 L412.9,710.12 L412.91,710.12 L412.93,710.12 L412.94,710.12 L412.96,710.12 L412.98,710.13 L412.99,710.13 L413.01,710.13 L413.03,710.13 L413.05,710.13 L413.07,710.13 L413.09,710.13 L413.11,710.13 L413.14,710.13 L413.16,710.13 L413.18,710.13 C413.33,710.13,413.42,710.13,413.42,710.28 C413.42,710.38,413.34,710.38,413.21,710.38 H412.26 C412.06,710.38,412.05,710.37,411.96,710.24 L409.28,706.28 L408.59,710.19 C408.55,710.37,408.55,710.38,408.34,710.38 H407.35 C407.21,710.38,407.12,710.38,407.12,710.23 C407.12,710.13,407.2,710.13,407.35,710.13 C407.46,710.13,407.49,710.13,407.62,710.12 C407.76,710.1,407.77,710.09,407.77,710.02 C407.77,710.01,407.77,709.97,407.74,709.87 L406.87,706.38 C406.8,706.14,406.7,705.9,406.14,705.88 C406.09,705.88,405.99,705.87,405.99,705.73 C405.99,705.72,406,705.63,406.1,705.63 C406.31,705.63,406.6,705.66,406.82,705.66 C406.99,705.66,407.39,705.63,407.56,705.63 C407.6,705.63,407.7,705.63,407.7,705.78 C407.7,705.87,407.61,705.88,407.55,705.88 C407.1,705.9,407.1,706.08,407.1,706.17 C407.1,706.2,407.1,706.24,407.13,706.35 L408.06,710.05 H408.06 L408.81,705.82 C408.83,705.69,408.84,705.63,408.95,705.63 C409.05,705.63,409.1,705.71,409.15,705.78 L412.08,710.12 L412.08,710.11 L411.1,706.17 C411.05,705.94,411.03,705.88,410.49,705.88 C410.36,705.88,410.28,705.88,410.28,705.73 C410.28,705.72,410.28,705.63,410.39,705.63 C410.52,705.63,410.68,705.65,410.82,705.65 C410.96,705.65,411.12,705.66,411.26,705.66 C411.46,705.66,411.95,705.63,412.14,705.63 C412.19,705.63,412.29,705.63,412.29,705.78 C412.29,705.88,412.21,705.88,412.07,705.88 C412.06,705.88,411.93,705.88,411.8,705.9 C411.64,705.91,411.64,705.93,411.64,706 C411.64,706.04,411.66,706.11,411.67,706.15 Z " /><path
       id="path3811"
       fill="black"
       stroke-width="0"
       d="M417.2,709.61 L417.2,709.68 L417.2,709.76 L417.2,709.84 L417.19,709.92 L417.19,710.09 L417.17,710.26 L417.16,710.44 L417.14,710.63 L417.11,710.83 L417.08,711.03 L417.04,711.23 L416.99,711.44 L416.94,711.65 L416.88,711.86 L416.81,712.07 L416.73,712.28 L416.69,712.39 L416.64,712.5 L416.59,712.6 L416.54,712.71 C415.95,713.93,415.09,714.58,414.99,714.58 C414.93,714.58,414.89,714.54,414.89,714.48 C414.89,714.45,414.89,714.43,415.08,714.25 C416.05,713.26,416.62,711.68,416.62,709.61 C416.62,707.91,416.25,706.16,415.02,704.91 C414.89,704.79,414.89,704.77,414.89,704.74 C414.89,704.68,414.93,704.64,414.99,704.64 C415.09,704.64,415.98,705.32,416.57,706.58 C417.08,707.67,417.2,708.77,417.2,709.61 Z " /><path
       id="path3813"
       fill="black"
       stroke-width="0"
       d="M419.78,714.22 L419.78,714.25 L419.78,714.28 L419.78,714.32 L419.78,714.33 L419.78,714.35 L419.78,714.36 L419.77,714.38 L419.77,714.4 L419.77,714.41 L419.77,714.42 L419.76,714.44 L419.76,714.45 L419.76,714.46 L419.75,714.48 L419.74,714.49 L419.74,714.5 L419.73,714.51 L419.72,714.52 L419.72,714.53 L419.71,714.54 L419.7,714.54 L419.69,714.55 L419.68,714.55 L419.67,714.56 L419.67,714.56 L419.66,714.56 L419.65,714.56 L419.65,714.57 L419.64,714.57 L419.63,714.57 L419.62,714.57 L419.62,714.57 L419.61,714.57 L419.6,714.57 L419.59,714.57 L419.58,714.58 C419.38,714.58,419.38,714.4,419.38,714.22 V705 C419.38,704.82,419.38,704.64,419.58,704.64 C419.78,704.64,419.78,704.82,419.78,705 Z " /><path
       id="path3815"
       fill="black"
       stroke-width="0"
       d="M423.35,706.02 H424.09 C424.62,706.02,424.71,705.93,424.71,705.7 C424.71,705.6,424.71,705.59,424.66,705.39 C424.65,705.35,424.64,705.33,424.64,705.31 C424.64,705.24,424.69,705.2,424.76,705.2 C424.85,705.2,424.86,705.24,424.89,705.36 L425.27,706.84 C425.28,706.86,425.3,706.96,425.3,706.98 C425.3,707.04,425.25,707.08,425.18,707.08 C425.08,707.08,425.07,707.04,425.04,706.91 C424.9,706.37,424.7,706.27,424.11,706.27 H423.41 L423.85,708.01 C423.9,708.23,423.91,708.25,424.2,708.25 H425.27 C426.2,708.25,426.37,708.03,426.37,707.45 C426.37,707.22,426.34,707.07,426.34,707.02 C426.34,706.96,426.36,706.9,426.46,706.9 C426.56,706.9,426.57,706.96,426.58,707.08 L426.71,708.29 C426.73,708.5,426.68,708.5,426.51,708.5 H422.79 C422.66,708.5,422.57,708.5,422.57,708.35 C422.57,708.25,422.65,708.25,422.79,708.25 C422.8,708.25,422.93,708.25,423.05,708.23 C423.2,708.22,423.21,708.21,423.21,708.14 C423.21,708.09,423.19,708.02,423.19,707.98 L422.27,704.35 C422.2,704.08,422.2,704.03,421.65,704.03 C421.54,704.03,421.45,704.03,421.45,703.88 C421.45,703.81,421.49,703.78,421.56,703.78 C421.76,703.78,422.27,703.8,422.48,703.8 L423.01,703.8 C423.19,703.8,423.39,703.78,423.56,703.78 C423.61,703.78,423.72,703.78,423.72,703.93 C423.72,704.03,423.63,704.03,423.47,704.03 C423.46,704.03,423.28,704.03,423.11,704.04 C422.96,704.05,422.89,704.06,422.89,704.16 C422.89,704.19,422.89,704.21,422.92,704.28 Z " /><path
       id="path3817"
       fill="black"
       stroke-width="0"
       d="M427.16,703.23 L427.2,703.26 L427.24,703.3 L427.28,703.33 L427.32,703.37 L427.36,703.41 L427.41,703.44 L427.45,703.48 L427.5,703.51 L427.55,703.55 L427.59,703.58 L427.64,703.62 L427.69,703.65 L427.74,703.69 L427.79,703.72 L427.84,703.76 L427.89,703.8 C428.23,704.04,428.44,704.2,428.65,704.4 C428.9,704.63,429.07,704.85,429.07,704.9 C429.07,704.97,428.99,704.97,428.96,704.97 C428.89,704.97,428.89,704.97,428.85,704.91 C428.66,704.65,428.55,704.63,428.46,704.63 C428.38,704.63,428.31,704.64,428.15,704.76 C427.98,704.89,427.87,704.97,427.68,704.97 C427.23,704.97,426.94,704.53,426.94,704.38 C426.94,704.3,427.01,704.3,427.04,704.3 C427.1,704.3,427.12,704.32,427.15,704.36 C427.17,704.42,427.22,704.54,427.61,704.54 C427.75,704.54,427.86,704.53,428.12,704.49 C428.3,704.46,428.36,704.46,428.45,704.46 C428.3,704.33,428.15,704.2,427.77,703.93 C427.42,703.68,427.2,703.53,426.97,703.31 C426.77,703.13,426.54,702.86,426.54,702.79 C426.54,702.72,426.61,702.72,426.64,702.72 C426.7,702.72,426.72,702.72,426.75,702.77 C426.89,702.96,427.07,703.06,427.25,703.06 C427.39,703.06,427.46,703.01,427.64,702.87 C427.77,702.77,427.89,702.72,428.03,702.72 C428.61,702.72,429,703.31,429,703.51 C429,703.58,428.91,703.58,428.89,703.58 C428.81,703.58,428.8,703.56,428.78,703.5 C428.67,703.2,428.28,703.15,428.09,703.15 C427.98,703.15,427.85,703.16,427.71,703.19 C427.43,703.23,427.35,703.23,427.28,703.23 C427.2,703.23,427.19,703.23,427.16,703.23 Z " /><path
       id="path3819"
       fill="black"
       stroke-width="0"
       d="M430.98,702.84 L430.98,702.8 L430.97,702.76 L430.97,702.72 L430.96,702.67 L430.96,702.64 L430.95,702.6 L430.94,702.56 L430.93,702.52 L430.92,702.49 L430.91,702.46 L430.9,702.42 L430.89,702.39 L430.87,702.36 L430.86,702.33 L430.84,702.3 L430.83,702.28 L430.81,702.25 L430.8,702.23 L430.78,702.2 L430.77,702.18 L430.75,702.16 L430.73,702.14 L430.72,702.12 L430.7,702.1 L430.68,702.08 L430.67,702.06 L430.65,702.05 L430.64,702.03 L430.62,702.02 L430.61,702.01 L430.6,702 L430.58,701.98 C430.53,701.95,430.52,701.94,430.52,701.9 C430.52,701.87,430.57,701.81,430.61,701.81 C430.68,701.81,431.14,702.2,431.14,702.82 C431.14,703.16,431,703.38,430.77,703.38 C430.58,703.38,430.47,703.23,430.47,703.08 C430.47,702.92,430.58,702.78,430.77,702.78 C430.85,702.78,430.92,702.79,430.98,702.84 Z " /><path
       id="path3821"
       fill="black"
       stroke-width="0"
       d="M437.71,705.74 L437.71,705.76 L437.71,705.77 L437.72,705.79 L437.72,705.8 L437.72,705.81 L437.73,705.82 L437.73,705.83 L437.74,705.84 L437.74,705.85 L437.75,705.86 L437.75,705.87 L437.76,705.88 L437.77,705.89 L437.77,705.89 L437.78,705.9 L437.79,705.9 L437.8,705.91 L437.82,705.91 L437.83,705.92 L437.84,705.92 L437.86,705.93 L437.87,705.93 L437.88,705.93 L437.88,705.93 L437.89,705.93 L437.9,705.93 L437.91,705.94 L437.92,705.94 L437.93,705.94 L437.95,705.94 L437.96,705.94 L437.97,705.94 L437.98,705.94 L438,705.94 L438.01,705.94 L438.02,705.94 L438.04,705.94 L438.05,705.94 L438.07,705.94 L438.08,705.94 L438.1,705.94 L438.12,705.94 L438.13,705.94 C438.26,705.94,438.27,705.94,438.29,705.96 C438.32,705.99,438.34,706.05,438.34,706.08 C438.34,706.17,438.26,706.17,438.18,706.17 H437.43 C437.32,706.17,437.26,706.17,437.19,706.07 L435.12,703.23 L434.49,706.03 C434.46,706.16,434.43,706.17,434.29,706.17 H433.5 C433.4,706.17,433.32,706.17,433.32,706.03 C433.32,705.94,433.38,705.94,433.51,705.94 C433.56,705.94,433.72,705.94,433.83,705.91 C433.83,705.85,433.83,705.84,433.81,705.79 L433.19,703.33 C433.16,703.2,433.11,703.01,432.65,703 C432.61,703,432.53,702.99,432.53,702.86 C432.53,702.82,432.57,702.78,432.61,702.78 C432.7,702.78,432.81,702.79,432.9,702.79 C432.99,702.79,433.08,702.79,433.18,702.79 C433.28,702.79,433.37,702.79,433.47,702.79 C433.56,702.79,433.67,702.78,433.76,702.78 C433.82,702.78,433.88,702.81,433.88,702.91 C433.88,703,433.8,703,433.75,703 C433.5,703,433.4,703.07,433.4,703.19 C433.4,703.22,433.41,703.25,433.42,703.3 L434.08,705.91 H434.08 L434.76,702.92 C434.78,702.84,434.8,702.78,434.89,702.78 C434.94,702.78,435,702.79,435.07,702.89 L437.29,705.95 L437.3,705.95 L436.61,703.19 C436.57,703.04,436.56,703,436.18,703 C436.05,703,435.98,703,435.98,702.86 C435.98,702.82,436.01,702.78,436.07,702.78 C436.17,702.78,436.29,702.79,436.4,702.79 C436.51,702.79,436.62,702.79,436.74,702.79 C436.85,702.79,436.96,702.79,437.08,702.79 C437.19,702.79,437.31,702.78,437.42,702.78 C437.45,702.78,437.55,702.78,437.55,702.91 C437.55,703,437.48,703,437.38,703 C437.37,703,437.25,703,437.17,703.01 C437.05,703.02,437.04,703.02,437.04,703.06 C437.04,703.07,437.04,703.08,437.05,703.13 Z " /><path
       id="path3823"
       fill="black"
       stroke-width="0"
       d="M442.84,708.69 L442.84,708.69 L442.85,708.69 L442.85,708.7 L442.85,708.7 L442.85,708.71 L442.85,708.71 L442.85,708.71 L442.86,708.72 L442.86,708.72 L442.86,708.72 L442.86,708.73 L442.86,708.73 L442.86,708.74 L442.87,708.74 L442.87,708.75 L442.87,708.75 L442.87,708.76 L442.87,708.76 L442.88,708.76 L442.88,708.77 L442.88,708.77 L442.88,708.78 L442.88,708.78 L442.88,708.78 L442.88,708.79 L442.88,708.79 L442.88,708.79 L442.88,708.79 L442.88,708.8 L442.88,708.8 L442.88,708.8 L442.88,708.81 L442.88,708.81 L442.88,708.82 C442.88,708.93,442.79,708.99,442.72,708.99 C442.6,708.99,442.56,708.91,442.53,708.82 L439.93,702.34 C439.89,702.25,439.89,702.24,439.89,702.21 C439.89,702.1,439.98,702.04,440.06,702.04 C440.17,702.04,440.21,702.12,440.24,702.21 Z " /><path
       id="path3825"
       fill="black"
       stroke-width="0"
       d="M445.91,706.29 L445.96,706.31 L446.01,706.34 L446.05,706.36 L446.1,706.39 L446.15,706.42 L446.19,706.44 L446.23,706.47 L446.28,706.5 L446.32,706.53 L446.35,706.56 L446.39,706.59 L446.43,706.62 L446.46,706.65 L446.5,706.68 L446.53,706.71 L446.56,706.74 L446.59,706.77 L446.61,706.81 L446.64,706.84 L446.66,706.88 L446.68,706.91 L446.7,706.95 L446.72,706.99 L446.74,707.03 L446.75,707.06 L446.76,707.1 L446.77,707.14 L446.78,707.19 L446.79,707.23 L446.79,707.27 L446.8,707.31 L446.8,707.36 C446.8,708.03,446.1,708.39,445.42,708.39 L445.41,708.19 C445.95,708.19,446.43,707.85,446.43,707.36 C446.43,706.74,445.7,706.43,445.69,706.43 C445.68,706.43,445.66,706.43,445.61,706.46 L444.77,706.95 C444.59,707.05,444.4,707.24,444.4,707.5 C444.4,707.93,444.9,708.19,445.41,708.19 L445.42,708.39 C444.65,708.39,444.03,707.89,444.03,707.23 C444.03,706.91,444.18,706.67,444.31,706.53 C444.43,706.39,444.48,706.36,444.89,706.11 C444.5,705.95,443.81,705.57,443.81,704.84 C443.81,704.07,444.61,703.64,445.41,703.64 L445.42,703.86 C444.78,703.86,444.23,704.27,444.23,704.84 C444.23,705.35,444.61,705.75,445.11,705.98 H445.11 L446.07,705.43 C446.25,705.33,446.6,705.12,446.6,704.71 C446.6,704.19,446.02,703.86,445.42,703.86 L445.41,703.64 C446.29,703.64,447.02,704.2,447.02,704.95 C447.02,705.41,446.74,705.8,446.34,706.04 C446.25,706.09,446.01,706.23,445.91,706.29 Z " /></g></svg>
