<?xml version="1.0" encoding="UTF-8" standalone="no"?>
<!-- Created with Inkscape (http://www.inkscape.org/) -->

<svg
   xmlns:ns0="http://www.iki.fi/pav/software/textext/"
   xmlns:dc="http://purl.org/dc/elements/1.1/"
   xmlns:cc="http://creativecommons.org/ns#"
   xmlns:rdf="http://www.w3.org/1999/02/22-rdf-syntax-ns#"
   xmlns:svg="http://www.w3.org/2000/svg"
   xmlns="http://www.w3.org/2000/svg"
   xmlns:sodipodi="http://sodipodi.sourceforge.net/DTD/sodipodi-0.dtd"
   xmlns:inkscape="http://www.inkscape.org/namespaces/inkscape"
   sodipodi:docname="diagramaCorpoLivre.pdf"
   width="464.83646"
   height="274.67783"
   id="svg2"
   version="1.1"
   inkscape:version="0.48.4 r9939">
  <sodipodi:namedview
     id="base"
     pagecolor="#ffffff"
     bordercolor="#666666"
     borderopacity="1.0"
     inkscape:pageopacity="0.0"
     inkscape:pageshadow="2"
     inkscape:zoom="1"
     inkscape:cx="232.08756"
     inkscape:cy="116.85534"
     inkscape:document-units="px"
     inkscape:current-layer="svg2"
     showgrid="false"
     inkscape:window-width="1366"
     inkscape:window-height="744"
     inkscape:window-x="0"
     inkscape:window-y="24"
     inkscape:window-maximized="1"
     units="cm"
     fit-margin-top="0"
     fit-margin-left="0"
     fit-margin-right="0"
     fit-margin-bottom="0" />
  <defs
     id="defs4">
    <marker
       style="overflow:visible"
       id="Arrow1Mend"
       refX="0"
       refY="0"
       orient="auto"
       inkscape:stockid="Arrow1Mend">
      <path
         inkscape:connector-curvature="0"
         transform="matrix(-0.4,0,0,-0.4,-4,0)"
         style="fill-rule:evenodd;stroke:#000000;stroke-width:1pt"
         d="M 0,0 5,-5 -12.5,0 5,5 0,0 z"
         id="path3931" />
    </marker>
    <marker
       style="overflow:visible"
       id="Arrow1Lend"
       refX="0"
       refY="0"
       orient="auto"
       inkscape:stockid="Arrow1Lend">
      <path
         inkscape:connector-curvature="0"
         transform="matrix(-0.8,0,0,-0.8,-10,0)"
         style="fill-rule:evenodd;stroke:#000000;stroke-width:1pt"
         d="M 0,0 5,-5 -12.5,0 5,5 0,0 z"
         id="path3925" />
    </marker>
    <marker
       style="overflow:visible"
       id="Arrow1Lend-4"
       refX="0"
       refY="0"
       orient="auto"
       inkscape:stockid="Arrow1Lend">
      <path
         transform="matrix(-0.8,0,0,-0.8,-10,0)"
         style="fill-rule:evenodd;stroke:#000000;stroke-width:1pt"
         d="M 0,0 5,-5 -12.5,0 5,5 0,0 z"
         id="path3925-6"
         inkscape:connector-curvature="0" />
    </marker>
    <marker
       style="overflow:visible"
       id="Arrow1Lend-7"
       refX="0"
       refY="0"
       orient="auto"
       inkscape:stockid="Arrow1Lend">
      <path
         transform="matrix(-0.8,0,0,-0.8,-10,0)"
         style="fill-rule:evenodd;stroke:#000000;stroke-width:1pt"
         d="M 0,0 5,-5 -12.5,0 5,5 0,0 z"
         id="path3925-2"
         inkscape:connector-curvature="0" />
    </marker>
    <marker
       inkscape:stockid="Arrow1Mend"
       orient="auto"
       refY="0"
       refX="0"
       id="Arrow1Mend-9"
       style="overflow:visible">
      <path
         id="path3931-5"
         d="M 0,0 5,-5 -12.5,0 5,5 0,0 z"
         style="fill-rule:evenodd;stroke:#000000;stroke-width:1pt"
         transform="matrix(-0.4,0,0,-0.4,-4,0)"
         inkscape:connector-curvature="0" />
    </marker>
    <marker
       inkscape:stockid="Arrow1Mend"
       orient="auto"
       refY="0"
       refX="0"
       id="marker8573"
       style="overflow:visible">
      <path
         id="path8575"
         d="M 0,0 5,-5 -12.5,0 5,5 0,0 z"
         style="fill-rule:evenodd;stroke:#000000;stroke-width:1pt"
         transform="matrix(-0.4,0,0,-0.4,-4,0)"
         inkscape:connector-curvature="0" />
    </marker>
    <marker
       inkscape:stockid="Arrow1Mend"
       orient="auto"
       refY="0"
       refX="0"
       id="Arrow1Mend-4"
       style="overflow:visible">
      <path
         id="path3931-7"
         d="M 0,0 5,-5 -12.5,0 5,5 0,0 z"
         style="fill-rule:evenodd;stroke:#000000;stroke-width:1pt"
         transform="matrix(-0.4,0,0,-0.4,-4,0)"
         inkscape:connector-curvature="0" />
    </marker>
    <marker
       inkscape:stockid="Arrow1Mend"
       orient="auto"
       refY="0"
       refX="0"
       id="marker8621"
       style="overflow:visible">
      <path
         id="path8623"
         d="M 0,0 5,-5 -12.5,0 5,5 0,0 z"
         style="fill-rule:evenodd;stroke:#000000;stroke-width:1pt"
         transform="matrix(-0.4,0,0,-0.4,-4,0)"
         inkscape:connector-curvature="0" />
    </marker>
    <marker
       style="overflow:visible"
       id="Arrow1Mend-49"
       refX="0"
       refY="0"
       orient="auto"
       inkscape:stockid="Arrow1Mend">
      <path
         inkscape:connector-curvature="0"
         transform="matrix(-0.4,0,0,-0.4,-4,0)"
         style="fill-rule:evenodd;stroke:#000000;stroke-width:1pt"
         d="M 0,0 5,-5 -12.5,0 5,5 0,0 z"
         id="path3931-3" />
    </marker>
    <marker
       inkscape:stockid="Arrow1Mend"
       orient="auto"
       refY="0"
       refX="0"
       id="Arrow1Mend-2"
       style="overflow:visible">
      <path
         id="path3931-6"
         d="M 0,0 5,-5 -12.5,0 5,5 0,0 z"
         style="fill-rule:evenodd;stroke:#000000;stroke-width:1pt"
         transform="matrix(-0.4,0,0,-0.4,-4,0)"
         inkscape:connector-curvature="0" />
    </marker>
    <marker
       inkscape:stockid="Arrow1Mend"
       orient="auto"
       refY="0"
       refX="0"
       id="marker5121"
       style="overflow:visible">
      <path
         id="path5123"
         d="M 0,0 5,-5 -12.5,0 5,5 0,0 z"
         style="fill-rule:evenodd;stroke:#000000;stroke-width:1pt"
         transform="matrix(-0.4,0,0,-0.4,-4,0)"
         inkscape:connector-curvature="0" />
    </marker>
    <marker
       inkscape:stockid="Arrow1Mend"
       orient="auto"
       refY="0"
       refX="0"
       id="Arrow1Mend-0"
       style="overflow:visible">
      <path
         id="path3931-2"
         d="M 0,0 5,-5 -12.5,0 5,5 0,0 z"
         style="fill-rule:evenodd;stroke:#000000;stroke-width:1pt"
         transform="matrix(-0.4,0,0,-0.4,-4,0)"
         inkscape:connector-curvature="0" />
    </marker>
    <marker
       inkscape:stockid="Arrow1Mend"
       orient="auto"
       refY="0"
       refX="0"
       id="marker5203"
       style="overflow:visible">
      <path
         id="path5205"
         d="M 0,0 5,-5 -12.5,0 5,5 0,0 z"
         style="fill-rule:evenodd;stroke:#000000;stroke-width:1pt"
         transform="matrix(-0.4,0,0,-0.4,-4,0)"
         inkscape:connector-curvature="0" />
    </marker>
    <marker
       inkscape:stockid="Arrow1Mend"
       orient="auto"
       refY="0"
       refX="0"
       id="Arrow1Mend-00"
       style="overflow:visible">
      <path
         id="path3931-36"
         d="M 0,0 5,-5 -12.5,0 5,5 0,0 z"
         style="fill-rule:evenodd;stroke:#000000;stroke-width:1pt"
         transform="matrix(-0.4,0,0,-0.4,-4,0)"
         inkscape:connector-curvature="0" />
    </marker>
    <marker
       inkscape:stockid="Arrow1Mend"
       orient="auto"
       refY="0"
       refX="0"
       id="marker5256"
       style="overflow:visible">
      <path
         id="path5258"
         d="M 0,0 5,-5 -12.5,0 5,5 0,0 z"
         style="fill-rule:evenodd;stroke:#000000;stroke-width:1pt"
         transform="matrix(-0.4,0,0,-0.4,-4,0)"
         inkscape:connector-curvature="0" />
    </marker>
  </defs>
  <metadata
     id="metadata7">
    <rdf:RDF>
      <cc:Work
         rdf:about="">
        <dc:format>image/svg+xml</dc:format>
        <dc:type
           rdf:resource="http://purl.org/dc/dcmitype/StillImage" />
        <dc:title></dc:title>
      </cc:Work>
    </rdf:RDF>
  </metadata>
  <path
     inkscape:connector-curvature="0"
     id="path3452"
     d="M 30.114245,244.02816 C 232.6879,219.46456 232.6879,219.46456 232.6879,219.46456"
     style="fill:none;stroke:#000000;stroke-width:1.33256912;stroke-linecap:butt;stroke-linejoin:miter;stroke-miterlimit:4;stroke-opacity:1;stroke-dasharray:none" />
  <path
     inkscape:connector-curvature="0"
     id="path3454"
     d="M 230.95857,183.71426 C 419.55135,68.692211 419.55135,68.692211 419.55135,68.692211"
     style="fill:none;stroke:#000000;stroke-width:1.18537819px;stroke-linecap:butt;stroke-linejoin:miter;stroke-opacity:1" />
  <path
     transform="matrix(0.87742581,-0.21264273,0.21264273,0.87742581,181.02674,66.989111)"
     d="m 168,94.763763 a 7,7 0 1 1 -14,0 7,7 0 1 1 14,0 z"
     sodipodi:ry="7"
     sodipodi:rx="7"
     sodipodi:cy="94.763763"
     sodipodi:cx="161"
     id="path3458-0-9"
     sodipodi:type="arc" />
  <text
     sodipodi:linespacing="100%"
     id="text3528"
     y="86.625854"
     x="428.67328"
     style="font-size:25.27910995px;font-style:normal;font-weight:normal;line-height:100%;letter-spacing:0px;word-spacing:0px;fill:#000000;fill-opacity:1;stroke:none;font-family:Sans"
     xml:space="preserve"><tspan
       style="font-size:17.69537354px;line-height:100%"
       y="86.625854"
       x="428.67328"
       id="tspan3530"
       sodipodi:role="line">F</tspan></text>
  <text
     sodipodi:linespacing="100%"
     id="text3528-9"
     y="139.25276"
     x="345.14969"
     style="font-size:25.27910995px;font-style:normal;font-weight:normal;line-height:100%;letter-spacing:0px;word-spacing:0px;fill:#000000;fill-opacity:1;stroke:none;font-family:Sans"
     xml:space="preserve"><tspan
       style="font-size:17.69537354px;line-height:100%"
       y="139.25276"
       x="345.14969"
       id="tspan3530-2"
       sodipodi:role="line">T</tspan></text>
  <text
     sodipodi:linespacing="100%"
     id="text3528-96"
     y="162.22208"
     x="305.37106"
     style="font-size:25.27910995px;font-style:normal;font-weight:normal;line-height:100%;letter-spacing:0px;word-spacing:0px;fill:#000000;fill-opacity:1;stroke:none;font-family:Sans"
     xml:space="preserve"><tspan
       style="font-size:17.69537354px;line-height:100%"
       y="162.22208"
       x="305.37106"
       id="tspan3530-6"
       sodipodi:role="line">R</tspan></text>
  <text
     sodipodi:linespacing="100%"
     id="text3528-0"
     y="187.91243"
     x="206.86995"
     style="font-size:25.27910995px;font-style:normal;font-weight:normal;line-height:100%;letter-spacing:0px;word-spacing:0px;fill:#000000;fill-opacity:1;stroke:none;font-family:Sans"
     xml:space="preserve"><tspan
       style="font-size:17.69537354px;line-height:100%"
       y="187.91243"
       x="206.86995"
       id="tspan3530-9"
       sodipodi:role="line">A</tspan></text>
  <text
     inkscape:transform-center-y="-0.14827846"
     transform="matrix(0.9991994,-0.04000706,0.04000706,0.9991994,0,0)"
     inkscape:transform-center-x="-3.7037333"
     sodipodi:linespacing="100%"
     id="text3528-6"
     y="257.64731"
     x="108.99535"
     style="font-size:25.27911758px;font-style:normal;font-weight:normal;line-height:100%;letter-spacing:0px;word-spacing:0px;fill:#000000;fill-opacity:1;stroke:none;font-family:Sans"
     xml:space="preserve"><tspan
       style="font-size:17.69537735px;line-height:100%"
       y="257.64731"
       x="108.99535"
       id="tspan3530-8"
       sodipodi:role="line">S</tspan></text>
  <text
     sodipodi:linespacing="100%"
     id="text3528-8"
     y="268.03122"
     x="19.064743"
     style="font-size:25.27910995px;font-style:normal;font-weight:normal;line-height:100%;letter-spacing:0px;word-spacing:0px;fill:#000000;fill-opacity:1;stroke:none;font-family:Sans"
     xml:space="preserve"><tspan
       style="font-size:17.69537354px;line-height:100%"
       y="268.03122"
       x="19.064743"
       id="tspan3530-7"
       sodipodi:role="line">M</tspan></text>
  <path
     inkscape:connector-curvature="0"
     id="path4430"
     d="m 230.63953,183.72274 71.29901,-8.74347"
     style="fill:none;stroke:#000000;stroke-width:0.902825;stroke-linecap:butt;stroke-linejoin:miter;stroke-miterlimit:4;stroke-opacity:1;stroke-dasharray:0.90282499, 1.80564998;stroke-dashoffset:0" />
  <rect
     transform="matrix(0.60244799,-0.79815814,0.79815814,0.60244799,0,0)"
     y="371.05298"
     x="170.82159"
     height="10.852695"
     width="56.817032"
     id="rect5900-9"
     style="fill:none;stroke:#000000;stroke-width:3;stroke-miterlimit:4;stroke-opacity:1;stroke-dasharray:none;stroke-dashoffset:0" />
  <rect
     transform="matrix(0.85626381,-0.51653875,0.51653875,0.85626381,0,0)"
     y="270.88135"
     x="146.06435"
     height="10.852695"
     width="56.817028"
     id="rect5900-6"
     style="fill:none;stroke:#000000;stroke-width:3;stroke-miterlimit:4;stroke-opacity:1;stroke-dasharray:none;stroke-dashoffset:0" />
  <path
     inkscape:connector-curvature="0"
     id="path5959-0"
     d="M 420.12795,68.531377 447.03089,31.600638"
     style="fill:none;stroke:#000000;stroke-width:0.903;stroke-linecap:butt;stroke-linejoin:miter;stroke-miterlimit:4;stroke-opacity:1;stroke-dasharray:0.903, 1.806;stroke-dashoffset:0" />
  <path
     inkscape:connector-curvature="0"
     id="path5959-0-3"
     d="M 420.33456,67.634481 434.72404,5.0015913"
     style="fill:none;stroke:#000000;stroke-width:1.20000005;stroke-linecap:butt;stroke-linejoin:miter;stroke-miterlimit:4;stroke-opacity:1;stroke-dasharray:none;marker-end:url(#Arrow1Mend)" />
  <path
     inkscape:connector-curvature="0"
     id="path5959-7"
     d="M 291.43112,146.71957 309.14689,94.810991"
     style="fill:none;stroke:#000000;stroke-width:1.20000005;stroke-linecap:butt;stroke-linejoin:miter;stroke-miterlimit:4;stroke-opacity:1;stroke-dasharray:none;marker-end:url(#Arrow1Mend)" />
  <path
     inkscape:connector-curvature="0"
     id="path5959-8"
     d="m 230.50667,184.10566 17.66222,-54.69437"
     style="fill:none;stroke:#000000;stroke-width:1.20000005;stroke-linecap:butt;stroke-linejoin:miter;stroke-miterlimit:4;stroke-opacity:1;stroke-dasharray:none;marker-end:url(#Arrow1Mend)" />
  <path
     inkscape:connector-curvature="0"
     id="path5959-9"
     d="M 30.87725,244.64081 76.877841,200.01864"
     style="fill:none;stroke:#000000;stroke-width:1.20000005;stroke-linecap:butt;stroke-linejoin:miter;stroke-miterlimit:4;stroke-opacity:1;stroke-dasharray:none;marker-end:url(#Arrow1Mend)" />
  <g
     transform="translate(-21.110874,-96.022743)"
     style="display:inline"
     inkscape:label="Pneus"
     id="layer4"
     inkscape:groupmode="layer" />
  <rect
     transform="matrix(0.99461687,-0.10362086,0.10362086,0.99461687,0,0)"
     y="240.27994"
     x="-23.524651"
     height="10.852695"
     width="56.817036"
     id="rect5900-4"
     style="fill:none;stroke:#000000;stroke-width:3;stroke-miterlimit:4;stroke-opacity:1;stroke-dasharray:none;stroke-dashoffset:0" />
  <path
     transform="matrix(0.88526679,-0.17718838,0.17718838,0.88526679,-25.011391,175.86228)"
     d="m 168,94.763763 a 7,7 0 1 1 -14,0 7,7 0 1 1 14,0 z"
     sodipodi:ry="7"
     sodipodi:rx="7"
     sodipodi:cy="94.763763"
     sodipodi:cx="161"
     id="path3458-0-9-3"
     sodipodi:type="arc" />
  <path
     transform="matrix(0.43824275,-0.08771542,0.08771542,0.43824275,-47.813909,216.62133)"
     d="m 168,94.763763 a 7,7 0 1 1 -14,0 7,7 0 1 1 14,0 z"
     sodipodi:ry="7"
     sodipodi:rx="7"
     sodipodi:cy="94.763763"
     sodipodi:cx="161"
     id="path3458-0-9-3-1-4"
     sodipodi:type="arc" />
  <path
     transform="matrix(0.43436117,-0.10526666,0.10526666,0.43436117,150.82505,159.49765)"
     d="m 168,94.763763 a 7,7 0 1 1 -14,0 7,7 0 1 1 14,0 z"
     sodipodi:ry="7"
     sodipodi:rx="7"
     sodipodi:cy="94.763763"
     sodipodi:cx="161"
     id="path3458-0-9-3-1-2"
     sodipodi:type="arc" />
  <path
     transform="matrix(0.43436117,-0.10526666,0.10526666,0.43436117,211.59135,122.37264)"
     d="m 168,94.763763 a 7,7 0 1 1 -14,0 7,7 0 1 1 14,0 z"
     sodipodi:ry="7"
     sodipodi:rx="7"
     sodipodi:cy="94.763763"
     sodipodi:cx="161"
     id="path3458-0-9-3-1-3"
     sodipodi:type="arc" />
  <path
     transform="matrix(0.43436117,-0.10526666,0.10526666,0.43436117,340.20225,44.174123)"
     d="m 168,94.763763 a 7,7 0 1 1 -14,0 7,7 0 1 1 14,0 z"
     sodipodi:ry="7"
     sodipodi:rx="7"
     sodipodi:cy="94.763763"
     sodipodi:cx="161"
     id="path3458-0-9-3-1-8"
     sodipodi:type="arc" />
  <text
     sodipodi:linespacing="125%"
     id="text3116"
     y="351.01666"
     x="166.27242"
     style="font-size:40px;font-style:normal;font-weight:normal;line-height:125%;letter-spacing:0px;word-spacing:0px;fill:#000000;fill-opacity:1;stroke:none;font-family:Sans"
     xml:space="preserve"><tspan
       y="351.01666"
       x="166.27242"
       id="tspan3118"
       sodipodi:role="line" /></text>
  <path
     transform="matrix(0.43436117,-0.10526666,0.10526666,0.43436117,152.48152,194.52727)"
     d="m 168,94.763763 a 7,7 0 1 1 -14,0 7,7 0 1 1 14,0 z"
     sodipodi:ry="7"
     sodipodi:rx="7"
     sodipodi:cy="94.763763"
     sodipodi:cx="161"
     id="path3458-0-9-3-1-2-7"
     sodipodi:type="arc" />
  <text
     sodipodi:linespacing="100%"
     id="text3528-0-9"
     y="236.69106"
     x="236.34091"
     style="font-size:25.27910995px;font-style:normal;font-weight:normal;line-height:100%;letter-spacing:0px;word-spacing:0px;fill:#000000;fill-opacity:1;stroke:none;font-family:Sans"
     xml:space="preserve"><tspan
       style="font-size:17.69537354px;line-height:100%"
       y="236.69106"
       x="236.34091"
       id="tspan3530-9-7"
       sodipodi:role="line">A</tspan></text>
  <path
     inkscape:connector-curvature="0"
     id="path5959-8-9"
     d="m 233.36309,216.49956 -17.66243,54.695"
     style="fill:none;stroke:#000000;stroke-width:1.20000005;stroke-linecap:butt;stroke-linejoin:miter;stroke-miterlimit:4;stroke-opacity:1;stroke-dasharray:none;marker-end:url(#Arrow1Mend)" />
  <g
     style="font-style:normal;font-variant:normal;font-weight:normal;font-stretch:normal;letter-spacing:normal;word-spacing:normal;text-anchor:start;fill:none;stroke:#000000;stroke-linecap:butt;stroke-linejoin:miter;stroke-miterlimit:10.43299961;stroke-opacity:1;stroke-dasharray:none;stroke-dashoffset:0"
     ns0:preamble="/home/andre/Copy/Inkscape/preamble.ini"
     ns0:text="\\[\\mathbf{F}_F\\]"
     word-spacing="normal"
     letter-spacing="normal"
     font-size-adjust="none"
     font-stretch="normal"
     font-weight="normal"
     font-variant="normal"
     font-style="normal"
     stroke-miterlimit="10.433"
     xml:space="preserve"
     transform="matrix(1.6546622,0,0,-1.6546622,-236.75771,1181.2303)"
     id="content"><path
       id="path4082"
       d="m 394.78,713.88 h -6.02 v -0.47 h 1.07 v -5.82 h -1.07 v -0.47 c 0.38,0.04 1.38,0.04 1.82,0.04 0.49,0 1.57,0 2.01,-0.04 v 0.47 h -1.34 v 2.68 h 0.49 c 0.96,0 1.05,-0.42 1.05,-1.16 h 0.47 v 2.79 h -0.47 c 0,-0.73 -0.08,-1.16 -1.05,-1.16 h -0.49 v 2.67 h 1.39 c 1.6,0 1.83,-0.76 1.98,-1.92 h 0.47 z"
       inkscape:connector-curvature="0"
       style="fill:#000000;stroke-width:0" /><path
       id="path4084"
       d="m 397.96,707.87 h 0.75 c 0.53,0 0.62,-0.08 0.62,-0.31 0,-0.11 0,-0.12 -0.05,-0.32 -0.01,-0.04 -0.02,-0.06 -0.02,-0.08 0,-0.07 0.05,-0.1 0.12,-0.1 0.09,0 0.09,0.03 0.13,0.16 l 0.38,1.47 c 0,0.02 0.02,0.13 0.02,0.14 0,0.07 -0.05,0.1 -0.12,0.1 -0.09,0 -0.1,-0.04 -0.14,-0.16 -0.13,-0.55 -0.34,-0.65 -0.93,-0.65 h -0.69 l 0.43,1.75 c 0.06,0.21 0.07,0.23 0.36,0.23 h 1.07 c 0.92,0 1.09,-0.22 1.09,-0.8 0,-0.23 -0.02,-0.37 -0.02,-0.43 0,-0.05 0.02,-0.12 0.12,-0.12 0.1,0 0.11,0.07 0.12,0.18 l 0.13,1.21 c 0.02,0.21 -0.03,0.21 -0.21,0.21 h -3.71 c -0.14,0 -0.23,0 -0.23,-0.15 0,-0.1 0.09,-0.1 0.23,-0.1 0,0 0.14,0 0.26,-0.01 0.15,-0.02 0.16,-0.03 0.16,-0.1 0,-0.05 -0.02,-0.12 -0.03,-0.15 l -0.91,-3.64 c -0.07,-0.27 -0.08,-0.32 -0.62,-0.32 -0.12,0 -0.21,0 -0.21,-0.15 0,-0.06 0.05,-0.1 0.11,-0.1 0.21,0 0.72,0.03 0.92,0.03 l 0.54,-0.01 c 0.18,0 0.38,-0.02 0.55,-0.02 0.05,0 0.15,0 0.15,0.15 0,0.1 -0.08,0.1 -0.24,0.1 -0.02,0 -0.19,0 -0.36,0.02 -0.15,0.01 -0.22,0.02 -0.22,0.11 0,0.03 0,0.05 0.02,0.13 z"
       inkscape:connector-curvature="0"
       style="fill:#000000;stroke-width:0" /></g>  <g
     id="g4223"
     transform="matrix(1.6546622,0,0,-1.6546622,-364.27475,1273.7074)"
     xml:space="preserve"
     stroke-miterlimit="10.433"
     font-style="normal"
     font-variant="normal"
     font-weight="normal"
     font-stretch="normal"
     font-size-adjust="none"
     letter-spacing="normal"
     word-spacing="normal"
     ns0:text="\\[\\mathbf{F}_R\\]"
     ns0:preamble="/home/andre/Copy/Inkscape/preamble.ini"
     style="font-style:normal;font-variant:normal;font-weight:normal;font-stretch:normal;letter-spacing:normal;word-spacing:normal;text-anchor:start;fill:none;stroke:#000000;stroke-linecap:butt;stroke-linejoin:miter;stroke-miterlimit:10.43299961;stroke-opacity:1;stroke-dasharray:none;stroke-dashoffset:0"><path
       d="m 394.82,713.88 h -6.02 v -0.47 h 1.08 v -5.82 h -1.08 v -0.47 c 0.38,0.04 1.39,0.04 1.82,0.04 0.49,0 1.58,0 2.01,-0.04 v 0.47 h -1.34 v 2.68 h 0.5 c 0.95,0 1.04,-0.42 1.04,-1.16 h 0.47 v 2.79 h -0.47 c 0,-0.73 -0.08,-1.16 -1.04,-1.16 h -0.5 v 2.67 h 1.39 c 1.61,0 1.83,-0.76 1.98,-1.92 h 0.47 z"
       id="path4225"
       inkscape:connector-curvature="0"
       style="fill:#000000;stroke-width:0" /><path
       d="m 399.76,707.99 0.08,0.02 0.08,0.03 0.07,0.02 0.08,0.02 0.07,0.03 0.07,0.03 0.08,0.02 0.07,0.04 0.06,0.03 0.07,0.03 0.07,0.04 0.06,0.03 0.06,0.04 0.06,0.04 0.06,0.04 0.06,0.04 0.05,0.05 0.05,0.04 0.05,0.05 0.04,0.04 0.04,0.05 0.04,0.05 0.04,0.05 0.03,0.05 0.03,0.05 0.02,0.06 0.03,0.05 0.01,0.05 0.02,0.06 0.01,0.06 0.01,0.05 0,0.06 c 0,0.6 -0.71,1.07 -1.72,1.07 h -2.14 c -0.13,0 -0.22,0 -0.22,-0.15 0,-0.1 0.08,-0.1 0.22,-0.1 0.01,0 0.14,0 0.26,-0.01 0.15,-0.02 0.16,-0.03 0.16,-0.1 0,-0.01 0,-0.05 -0.02,-0.15 l -0.93,-3.7 c -0.05,-0.23 -0.07,-0.29 -0.61,-0.29 -0.12,0 -0.21,0 -0.21,-0.15 0,-0.06 0.05,-0.1 0.11,-0.1 0.13,0 0.29,0.02 0.43,0.02 0.13,0 0.34,0.01 0.46,0.01 0.14,0 0.3,-0.01 0.45,-0.01 0.14,0 0.32,-0.02 0.46,-0.02 0.04,0 0.15,0 0.15,0.15 0,0.1 -0.07,0.1 -0.23,0.1 -0.11,0 -0.14,0 -0.27,0.02 -0.15,0.02 -0.15,0.03 -0.15,0.1 0,0.01 0,0.05 0.03,0.15 l 0.44,1.76 h 0.95 l 0,0.2 h -0.9 l 0.45,1.78 c 0.05,0.2 0.06,0.22 0.22,0.24 h 0.44 c 0.65,0 1.45,0 1.45,-0.72 0,-0.28 -0.13,-0.72 -0.46,-0.97 -0.29,-0.22 -0.72,-0.33 -1.2,-0.33 l 0,-0.2 c 0.6,0 0.85,-0.3 0.85,-0.62 0,-0.09 -0.06,-0.33 -0.1,-0.49 -0.08,-0.32 -0.11,-0.42 -0.11,-0.54 0,-0.55 0.51,-0.77 1.03,-0.77 0.64,0 0.92,0.68 0.92,0.81 0,0.02 -0.02,0.1 -0.12,0.1 -0.09,0 -0.11,-0.05 -0.13,-0.12 -0.09,-0.31 -0.35,-0.59 -0.65,-0.59 -0.18,0 -0.31,0.07 -0.31,0.45 0,0.17 0.04,0.53 0.07,0.72 0.03,0.19 0.03,0.26 0.03,0.33 0,0.08 0,0.3 -0.2,0.51 -0.13,0.15 -0.32,0.24 -0.47,0.29 z"
       id="path4227"
       inkscape:connector-curvature="0"
       style="fill:#000000;stroke-width:0" /></g>  <g
     style="font-style:normal;font-variant:normal;font-weight:normal;font-stretch:normal;letter-spacing:normal;word-spacing:normal;text-anchor:start;fill:none;stroke:#000000;stroke-linecap:butt;stroke-linejoin:miter;stroke-miterlimit:10.43299961;stroke-opacity:1;stroke-dasharray:none;stroke-dashoffset:0"
     ns0:preamble="/home/andre/Copy/Inkscape/preamble.ini"
     ns0:text="\\[\\mathbf{F}_A\\]"
     word-spacing="normal"
     letter-spacing="normal"
     font-size-adjust="none"
     font-stretch="normal"
     font-weight="normal"
     font-variant="normal"
     font-style="normal"
     stroke-miterlimit="10.433"
     xml:space="preserve"
     transform="matrix(1.6816298,0,0,-1.6816298,-437.47426,1322.3936)"
     id="g4366"><path
       id="path4368"
       d="m 394.85,713.88 h -6.02 v -0.47 h 1.07 v -5.82 h -1.07 v -0.47 c 0.37,0.04 1.38,0.04 1.82,0.04 0.48,0 1.57,0 2.01,-0.04 v 0.47 h -1.35 v 2.68 h 0.5 c 0.96,0 1.05,-0.42 1.05,-1.16 h 0.46 v 2.79 h -0.46 c 0,-0.73 -0.08,-1.16 -1.05,-1.16 h -0.5 v 2.67 h 1.4 c 1.6,0 1.83,-0.76 1.98,-1.92 h 0.46 z"
       inkscape:connector-curvature="0"
       style="fill:#000000;stroke-width:0" /><path
       id="path4370"
       d="m 397.08,706.47 -0.02,-0.04 -0.02,-0.03 -0.03,-0.04 -0.02,-0.03 -0.02,-0.03 -0.02,-0.03 -0.03,-0.02 -0.02,-0.03 -0.02,-0.03 -0.03,-0.02 -0.02,-0.02 -0.02,-0.03 -0.03,-0.02 -0.02,-0.02 -0.03,-0.02 -0.02,-0.02 -0.03,-0.01 -0.03,-0.02 -0.02,-0.02 -0.03,-0.01 -0.03,-0.01 -0.03,-0.02 -0.03,-0.01 -0.03,-0.01 -0.03,-0.01 -0.03,-0.01 -0.04,0 -0.03,-0.01 -0.04,-0.01 -0.03,0 -0.04,-0.01 -0.04,0 c -0.06,-0.01 -0.16,-0.01 -0.16,-0.15 0,-0.07 0.07,-0.1 0.1,-0.1 0.18,0 0.41,0.03 0.6,0.03 0.22,0 0.51,-0.03 0.72,-0.03 0.03,0 0.14,0 0.14,0.15 0,0.09 -0.09,0.1 -0.12,0.1 -0.06,0.01 -0.31,0.02 -0.31,0.21 0,0.08 0.07,0.2 0.11,0.26 l 0.55,0.87 h 2 l -0.04,0.25 H 398 l 1.46,2.27 0.33,-2.27 0.04,-0.25 0.16,-1.16 c -0.03,-0.07 -0.07,-0.18 -0.48,-0.18 -0.08,0 -0.18,0 -0.18,-0.15 0,-0.03 0.02,-0.1 0.11,-0.1 0.2,0 0.7,0.03 0.9,0.03 0.13,0 0.29,-0.01 0.41,-0.01 0.13,0 0.27,-0.02 0.4,-0.02 0.09,0 0.14,0.06 0.14,0.15 0,0.1 -0.09,0.1 -0.2,0.1 -0.4,0 -0.42,0.06 -0.44,0.22 l -0.61,4.29 c -0.02,0.15 -0.03,0.2 -0.17,0.2 -0.13,0 -0.17,-0.06 -0.23,-0.16 z"
       inkscape:connector-curvature="0"
       style="fill:#000000;stroke-width:0" /></g>  <g
     id="g4536"
     transform="matrix(1.6816298,0,0,-1.6816298,-417.45554,1461.2863)"
     xml:space="preserve"
     stroke-miterlimit="10.433"
     font-style="normal"
     font-variant="normal"
     font-weight="normal"
     font-stretch="normal"
     font-size-adjust="none"
     letter-spacing="normal"
     word-spacing="normal"
     ns0:text="\\[- \\mathbf{F}_A\\]"
     ns0:preamble="/home/andre/Copy/Inkscape/preamble.ini"
     style="font-style:normal;font-variant:normal;font-weight:normal;font-stretch:normal;letter-spacing:normal;word-spacing:normal;text-anchor:start;fill:none;stroke:#000000;stroke-linecap:butt;stroke-linejoin:miter;stroke-miterlimit:10.43299961;stroke-opacity:1;stroke-dasharray:none;stroke-dashoffset:0"><path
       style="fill:#000000;stroke-width:0"
       inkscape:connector-curvature="0"
       d="m 391.12,709.41 0.03,0 0.03,0 0.04,0 0.01,0 0.02,0 0.01,0 0.02,0.01 0.01,0 0.02,0 0.01,0 0.01,0.01 0.02,0 0.01,0 0.01,0.01 0.01,0.01 0.01,0 0.01,0.01 0.01,0.01 0.01,0 0.01,0.01 0.01,0.01 0,0.01 0.01,0 0,0.01 0,0.01 0,0 0.01,0.01 0,0.01 0,0 0,0.01 0,0.01 0.01,0.01 0,0 0,0.01 0,0.01 0,0.01 0,0.01 c 0,0.2 -0.18,0.2 -0.35,0.2 h -5.38 c -0.17,0 -0.35,0 -0.35,-0.2 0,-0.2 0.18,-0.2 0.35,-0.2 z"
       id="path4538" /><path
       style="fill:#000000;stroke-width:0"
       inkscape:connector-curvature="0"
       d="m 398.72,713.88 h -6.02 v -0.47 h 1.07 v -5.82 h -1.07 v -0.47 c 0.38,0.04 1.38,0.04 1.82,0.04 0.49,0 1.57,0 2.01,-0.04 v 0.47 h -1.34 v 2.68 h 0.5 c 0.95,0 1.04,-0.42 1.04,-1.16 h 0.47 v 2.79 h -0.47 c 0,-0.73 -0.08,-1.16 -1.04,-1.16 h -0.5 v 2.67 h 1.39 c 1.6,0 1.83,-0.76 1.98,-1.92 h 0.47 z"
       id="path4540" /><path
       style="fill:#000000;stroke-width:0"
       inkscape:connector-curvature="0"
       d="m 400.96,706.47 -0.03,-0.04 -0.02,-0.03 -0.02,-0.04 -0.02,-0.03 -0.03,-0.03 -0.02,-0.03 -0.02,-0.02 -0.03,-0.03 -0.02,-0.03 -0.02,-0.02 -0.03,-0.02 -0.02,-0.03 -0.02,-0.02 -0.03,-0.02 -0.02,-0.02 -0.03,-0.02 -0.03,-0.01 -0.02,-0.02 -0.03,-0.02 -0.03,-0.01 -0.03,-0.01 -0.02,-0.02 -0.03,-0.01 -0.03,-0.01 -0.04,-0.01 -0.03,-0.01 -0.03,0 -0.04,-0.01 -0.03,-0.01 -0.04,0 -0.03,-0.01 -0.04,0 c -0.07,-0.01 -0.16,-0.01 -0.16,-0.15 0,-0.07 0.06,-0.1 0.1,-0.1 0.18,0 0.41,0.03 0.59,0.03 0.23,0 0.51,-0.03 0.72,-0.03 0.04,0 0.14,0 0.14,0.15 0,0.09 -0.09,0.1 -0.12,0.1 -0.05,0.01 -0.3,0.02 -0.3,0.21 0,0.08 0.07,0.2 0.1,0.26 l 0.56,0.87 h 1.99 l -0.03,0.25 h -1.79 l 1.46,2.27 0.33,-2.27 0.03,-0.25 0.17,-1.16 c -0.03,-0.07 -0.07,-0.18 -0.48,-0.18 -0.09,0 -0.18,0 -0.18,-0.15 0,-0.03 0.02,-0.1 0.11,-0.1 0.2,0 0.69,0.03 0.9,0.03 0.12,0 0.28,-0.01 0.41,-0.01 0.12,0 0.27,-0.02 0.39,-0.02 0.09,0 0.14,0.06 0.14,0.15 0,0.1 -0.08,0.1 -0.19,0.1 -0.41,0 -0.42,0.06 -0.44,0.22 l -0.61,4.29 c -0.02,0.15 -0.04,0.2 -0.17,0.2 -0.13,0 -0.17,-0.06 -0.24,-0.16 z"
       id="path4542" /></g>  <g
     style="font-style:normal;font-variant:normal;font-weight:normal;font-stretch:normal;letter-spacing:normal;word-spacing:normal;text-anchor:start;fill:none;stroke:#000000;stroke-linecap:butt;stroke-linejoin:miter;stroke-miterlimit:10.43299961;stroke-opacity:1;stroke-dasharray:none;stroke-dashoffset:0"
     ns0:preamble="/home/andre/Copy/Inkscape/preamble.ini"
     ns0:text="\\[\\mathbf{F}_M\\]"
     word-spacing="normal"
     letter-spacing="normal"
     font-size-adjust="none"
     font-stretch="normal"
     font-weight="normal"
     font-variant="normal"
     font-style="normal"
     stroke-miterlimit="10.433"
     xml:space="preserve"
     transform="matrix(1.6816298,0,0,-1.6816298,-616.05095,1387.6974)"
     id="g4689"><path
       id="path4691"
       d="m 393.67,713.88 h -6.02 v -0.47 h 1.07 v -5.82 h -1.07 v -0.47 c 0.38,0.04 1.38,0.04 1.82,0.04 0.49,0 1.57,0 2.01,-0.04 v 0.47 h -1.34 v 2.68 h 0.5 c 0.95,0 1.04,-0.42 1.04,-1.16 h 0.47 v 2.79 h -0.47 c 0,-0.73 -0.08,-1.16 -1.04,-1.16 h -0.5 v 2.67 h 1.39 c 1.6,0 1.83,-0.76 1.98,-1.92 h 0.47 z"
       inkscape:connector-curvature="0"
       style="fill:#000000;stroke-width:0" /><path
       id="path4693"
       d="m 401.58,709.82 0.01,0.02 0,0.02 0.01,0.02 0,0.02 0.01,0.02 0.01,0.02 0,0.02 0.01,0.01 0.01,0.02 0,0.01 0.01,0.02 0.01,0.01 0.01,0.01 0.01,0.01 0.01,0.01 0.02,0.01 0.01,0.01 0.02,0.01 0.02,0 0.02,0.01 0.02,0 0.01,0.01 0.01,0 0.01,0 0.02,0 0.01,0.01 0.01,0 0.02,0 0.01,0 0.02,0 0.01,0 0.02,0 0.02,0.01 0.01,0 0.02,0 0.02,0 0.02,0 0.02,0 0.02,0 0.02,0 0.03,0 0.02,0 0.02,0 c 0.15,0 0.24,0 0.24,0.15 0,0.1 -0.08,0.1 -0.21,0.1 h -0.95 c -0.2,0 -0.2,-0.01 -0.3,-0.14 l -2.68,-3.96 -0.69,3.91 c -0.04,0.18 -0.04,0.19 -0.25,0.19 h -0.99 c -0.14,0 -0.23,0 -0.23,-0.15 0,-0.1 0.08,-0.1 0.23,-0.1 0.12,0 0.14,0 0.27,-0.01 0.14,-0.02 0.15,-0.03 0.15,-0.1 0,-0.01 0,-0.05 -0.03,-0.15 l -0.87,-3.49 c -0.07,-0.24 -0.17,-0.48 -0.73,-0.5 -0.05,0 -0.14,-0.01 -0.14,-0.15 0,-0.01 0,-0.1 0.1,-0.1 0.21,0 0.5,0.03 0.73,0.03 0.16,0 0.57,-0.03 0.73,-0.03 0.04,0 0.14,0 0.14,0.15 0,0.09 -0.09,0.1 -0.15,0.1 -0.45,0.02 -0.45,0.2 -0.45,0.29 0,0.03 0,0.07 0.03,0.18 l 0.93,3.7 h 0 l 0.75,-4.23 c 0.02,-0.13 0.03,-0.19 0.14,-0.19 0.1,0 0.15,0.08 0.2,0.15 l 2.93,4.34 0,-0.01 -0.98,-3.94 c -0.05,-0.23 -0.07,-0.29 -0.61,-0.29 -0.13,0 -0.21,0 -0.21,-0.15 0,-0.01 0,-0.1 0.11,-0.1 0.13,0 0.29,0.02 0.43,0.02 0.14,0 0.3,0.01 0.44,0.01 0.2,0 0.69,-0.03 0.89,-0.03 0.04,0 0.14,0 0.14,0.15 0,0.1 -0.08,0.1 -0.22,0.1 -0.01,0 -0.14,0 -0.26,0.02 -0.17,0.01 -0.17,0.03 -0.17,0.1 0,0.04 0.02,0.11 0.03,0.15 z"
       inkscape:connector-curvature="0"
       style="fill:#000000;stroke-width:0" /></g>  <path
     inkscape:connector-curvature="0"
     id="path5959-0-3-8-3"
     d="M 421.56918,66.844121 452.9963,23.539888"
     style="fill:none;stroke:#000000;stroke-width:2;stroke-linecap:butt;stroke-linejoin:miter;stroke-miterlimit:4;stroke-opacity:1;stroke-dasharray:none;marker-end:url(#Arrow1Mend)" />
  <path
     inkscape:connector-curvature="0"
     id="path5959-0-3-5-9-8"
     d="M 419.33328,67.257681 376.1124,35.715997"
     style="fill:none;stroke:#000000;stroke-width:2;stroke-linecap:butt;stroke-linejoin:miter;stroke-miterlimit:4;stroke-opacity:1;stroke-dasharray:none;marker-end:url(#Arrow1Mend)" />
  <g
     style="font-style:normal;font-variant:normal;font-weight:normal;font-stretch:normal;letter-spacing:normal;word-spacing:normal;text-anchor:start;fill:none;stroke:#000000;stroke-linecap:butt;stroke-linejoin:miter;stroke-miterlimit:10.43299961;stroke-opacity:1;stroke-dasharray:none;stroke-dashoffset:0"
     ns0:preamble="/home/andre/Copy/Inkscape/preamble.ini"
     ns0:text="\\[\\mathbf{e}_y\\]"
     word-spacing="normal"
     letter-spacing="normal"
     font-size-adjust="none"
     font-stretch="normal"
     font-weight="normal"
     font-variant="normal"
     font-style="normal"
     stroke-miterlimit="10.433"
     xml:space="preserve"
     transform="matrix(1.6753455,0,0,-1.6753455,-274.39705,1214.264)"
     id="g4508"><path
       style="fill:#000000;stroke-width:0"
       inkscape:connector-curvature="0"
       id="path4510"
       d="m 394.86,709.29 0.03,0 0.01,0 0.02,0 0.02,0 0.02,0 0.02,0 0.01,0 0.02,0.01 0.01,0 0.02,0 0.01,0 0.01,0.01 0.01,0 0.01,0 0.02,0.01 0.01,0 0.01,0.01 0,0.01 0.01,0.01 0.01,0.01 0.01,0.01 0,0.01 0.01,0 0,0.01 0,0.01 0,0 0.01,0.01 0,0.01 0,0.01 0,0 0,0.01 0.01,0.01 0,0.01 0,0.01 0,0.01 0,0.01 0,0.01 0,0.01 0,0.01 0,0.01 0,0.02 0,0.01 c 0,0.31 -0.06,1.03 -0.55,1.53 -0.37,0.36 -0.9,0.53 -1.59,0.53 -1.59,0 -2.45,-1.02 -2.45,-2.26 0,-1.33 0.99,-2.29 2.59,-2.29 1.58,0 2,1.05 2,1.22 0,0.18 -0.19,0.18 -0.24,0.18 -0.17,0 -0.18,-0.05 -0.24,-0.21 -0.21,-0.48 -0.78,-0.8 -1.43,-0.8 -1.4,0 -1.41,1.32 -1.41,1.83 v 0.33 c 0.02,0.39 0.03,0.8 0.24,1.13 0.26,0.4 0.66,0.52 0.94,0.52 1.17,0 1.19,-1.3 1.2,-1.65 h -2.38 v -0.33 z" /><path
       style="fill:#000000;stroke-width:0"
       inkscape:connector-curvature="0"
       id="path4512"
       d="m 399.39,708.25 0,0.01 0,0 0,0.01 0.01,0 0,0 0,0.01 0,0.01 0,0 0,0.01 0.01,0.01 0,0 0,0.01 0,0 0,0.01 0,0 0,0.01 0,0 0,0.01 0.01,0 0,0 0,0.01 0,0 0,0 0,0.01 0,0.01 0,0 0,0.01 0,0 0,0.01 0,0 0,0.01 c 0,0.13 -0.11,0.22 -0.23,0.22 -0.08,0 -0.21,-0.04 -0.29,-0.17 -0.02,-0.04 -0.07,-0.26 -0.11,-0.4 l -0.14,-0.58 c -0.05,-0.17 -0.26,-1.04 -0.28,-1.12 -0.01,0 -0.32,-0.6 -0.86,-0.6 -0.47,0 -0.47,0.45 -0.47,0.57 0,0.38 0.16,0.82 0.37,1.35 0.08,0.23 0.11,0.31 0.11,0.43 0,0.33 -0.28,0.59 -0.66,0.59 -0.7,0 -1.01,-0.95 -1.01,-1.07 0,-0.09 0.09,-0.09 0.11,-0.09 0.1,0 0.11,0.04 0.13,0.11 0.17,0.58 0.47,0.85 0.75,0.85 0.12,0 0.18,-0.07 0.18,-0.24 0,-0.16 -0.07,-0.31 -0.1,-0.4 -0.34,-0.85 -0.4,-1.11 -0.4,-1.41 0,-0.12 0,-0.45 0.27,-0.67 0.21,-0.18 0.51,-0.22 0.69,-0.22 0.28,0 0.53,0.11 0.76,0.31 -0.09,-0.38 -0.16,-0.67 -0.46,-1.02 -0.19,-0.21 -0.46,-0.44 -0.83,-0.44 -0.05,0 -0.38,0 -0.53,0.23 0.38,0.04 0.38,0.37 0.38,0.38 0,0.22 -0.2,0.26 -0.27,0.26 -0.17,0 -0.41,-0.14 -0.41,-0.46 0,-0.35 0.34,-0.61 0.83,-0.61 0.71,0 1.56,0.55 1.78,1.41 z" /></g>  <g
     id="g4160"
     transform="matrix(1.6753455,0,0,-1.6753455,-204.39705,1234.764)"
     xml:space="preserve"
     stroke-miterlimit="10.433"
     font-style="normal"
     font-variant="normal"
     font-weight="normal"
     font-stretch="normal"
     font-size-adjust="none"
     letter-spacing="normal"
     word-spacing="normal"
     ns0:text="\\[\\mathbf{e}_x\\]"
     ns0:preamble="/home/andre/Copy/Inkscape/preamble.ini"
     style="font-style:normal;font-variant:normal;font-weight:normal;font-stretch:normal;letter-spacing:normal;word-spacing:normal;text-anchor:start;fill:none;stroke:#000000;stroke-linecap:butt;stroke-linejoin:miter;stroke-miterlimit:10.43299961;stroke-opacity:1;stroke-dasharray:none;stroke-dashoffset:0;display:inline"><path
       d="m 394.75,709.29 0.02,0 0.02,0 0.02,0 0.02,0 0.01,0 0.02,0 0.02,0 0.01,0.01 0.02,0 0.01,0 0.01,0 0.02,0.01 0.01,0 0.01,0 0.01,0.01 0.01,0 0.01,0.01 0.01,0.01 0.01,0.01 0.01,0.01 0,0.01 0.01,0.01 0,0 0,0.01 0.01,0.01 0,0 0,0.01 0,0.01 0.01,0.01 0,0 0,0.01 0,0.01 0,0.01 0,0.01 0.01,0.01 0,0.01 0,0.01 0,0.01 0,0.01 0,0.01 0,0.02 0,0.01 c 0,0.31 -0.06,1.03 -0.56,1.53 -0.37,0.36 -0.89,0.53 -1.58,0.53 -1.59,0 -2.46,-1.02 -2.46,-2.26 0,-1.33 1,-2.29 2.6,-2.29 1.57,0 2,1.05 2,1.22 0,0.18 -0.19,0.18 -0.24,0.18 -0.17,0 -0.19,-0.05 -0.25,-0.21 -0.21,-0.48 -0.78,-0.8 -1.42,-0.8 -1.4,0 -1.41,1.32 -1.41,1.83 v 0.33 c 0.02,0.39 0.03,0.8 0.23,1.13 0.26,0.4 0.66,0.52 0.95,0.52 1.16,0 1.18,-1.3 1.19,-1.65 h -2.37 v -0.33 z"
       id="path4162"
       inkscape:connector-curvature="0"
       style="fill:#000000;stroke-width:0" /><path
       d="m 397.14,706.37 -0.01,-0.02 -0.01,-0.03 0,-0.02 -0.01,-0.03 -0.01,-0.02 -0.02,-0.03 -0.01,-0.02 -0.01,-0.03 -0.02,-0.02 -0.01,-0.03 -0.02,-0.02 -0.01,-0.03 -0.02,-0.02 -0.02,-0.03 -0.02,-0.02 -0.02,-0.03 -0.02,-0.02 -0.02,-0.02 -0.03,-0.02 -0.02,-0.02 -0.02,-0.02 -0.03,-0.02 -0.03,-0.02 -0.02,-0.01 -0.03,-0.02 -0.03,-0.01 -0.03,-0.01 -0.03,-0.01 -0.03,0 -0.03,-0.01 -0.03,0 -0.04,0 c -0.02,0 -0.22,0 -0.37,0.09 0.28,0.09 0.31,0.34 0.31,0.39 0,0.15 -0.12,0.25 -0.28,0.25 -0.2,0 -0.4,-0.16 -0.4,-0.42 0,-0.35 0.39,-0.51 0.73,-0.51 0.32,0 0.61,0.2 0.78,0.49 0.17,-0.36 0.55,-0.49 0.83,-0.49 0.8,0 1.22,0.87 1.22,1.06 0,0.1 -0.09,0.1 -0.11,0.1 -0.09,0 -0.1,-0.04 -0.13,-0.12 -0.14,-0.48 -0.56,-0.84 -0.95,-0.84 -0.28,0 -0.43,0.18 -0.43,0.45 0,0.18 0.17,0.81 0.37,1.58 0.13,0.54 0.45,0.71 0.68,0.71 0.01,0 0.23,0 0.37,-0.09 -0.22,-0.07 -0.3,-0.26 -0.3,-0.39 0,-0.15 0.12,-0.25 0.28,-0.25 0.15,0 0.38,0.13 0.38,0.42 0,0.39 -0.44,0.51 -0.72,0.51 -0.35,0 -0.63,-0.23 -0.78,-0.5 -0.12,0.29 -0.44,0.5 -0.84,0.5 -0.77,0 -1.22,-0.86 -1.22,-1.07 0,-0.09 0.1,-0.09 0.12,-0.09 0.09,0 0.09,0.03 0.13,0.12 0.17,0.54 0.61,0.84 0.95,0.84 0.23,0 0.42,-0.12 0.42,-0.46 0,-0.13 -0.08,-0.48 -0.14,-0.72 z"
       id="path4164"
       inkscape:connector-curvature="0"
       style="fill:#000000;stroke-width:0" /></g>  <path
     inkscape:connector-curvature="0"
     id="path5959-0-3-8"
     d="M 343.44721,115.05921 389.14522,87.227339"
     style="fill:none;stroke:#000000;stroke-width:2;stroke-linecap:butt;stroke-linejoin:miter;stroke-miterlimit:4;stroke-opacity:1;stroke-dasharray:none;marker-end:url(#Arrow1Mend)" />
  <path
     inkscape:connector-curvature="0"
     id="path5959-0-3-5-9"
     d="M 341.22481,114.57837 313.51404,68.806819"
     style="fill:none;stroke:#000000;stroke-width:2;stroke-linecap:butt;stroke-linejoin:miter;stroke-miterlimit:4;stroke-opacity:1;stroke-dasharray:none;marker-end:url(#Arrow1Mend)" />
  <g
     id="g7601"
     transform="matrix(1.6753455,0,0,-1.6753455,-335.27249,1251.593)"
     xml:space="preserve"
     stroke-miterlimit="10.433"
     font-style="normal"
     font-variant="normal"
     font-weight="normal"
     font-stretch="normal"
     font-size-adjust="none"
     letter-spacing="normal"
     word-spacing="normal"
     ns0:text="\\[\\mathbf{t}_y\\]"
     ns0:preamble="/home/andre/Copy/Inkscape/preamble.ini"
     style="font-style:normal;font-variant:normal;font-weight:normal;font-stretch:normal;letter-spacing:normal;word-spacing:normal;text-anchor:start;fill:none;stroke:#000000;stroke-linecap:butt;stroke-linejoin:miter;stroke-miterlimit:10.43299961;stroke-opacity:1;stroke-dasharray:none;stroke-dashoffset:0"><path
       style="fill:#000000;stroke-width:0"
       inkscape:connector-curvature="0"
       d="m 391.69,711.07 v -2.72 c 0,-1.07 0.87,-1.28 1.57,-1.28 0.76,0 1.21,0.56 1.21,1.29 v 0.52 H 394 v -0.5 c 0,-0.68 -0.32,-0.92 -0.6,-0.92 -0.57,0 -0.57,0.64 -0.57,0.87 v 2.74 h 1.45 v 0.47 h -1.45 v 1.89 h -0.47 c -0.01,-0.99 -0.5,-1.97 -1.48,-2 v -0.36 z"
       id="path7603" /><path
       style="fill:#000000;stroke-width:0"
       inkscape:connector-curvature="0"
       d="m 398.99,708.25 0,0.01 0.01,0 0,0.01 0,0 0,0 0,0.01 0,0.01 0,0 0.01,0.01 0,0.01 0,0 0,0.01 0,0 0,0.01 0,0 0.01,0.01 0,0 0,0.01 0,0 0,0 0,0.01 0,0 0,0 0,0.01 0,0.01 0,0 0,0.01 0,0 0,0.01 0,0 0,0.01 c 0,0.13 -0.11,0.22 -0.23,0.22 -0.08,0 -0.21,-0.04 -0.28,-0.17 -0.03,-0.04 -0.08,-0.26 -0.12,-0.4 l -0.14,-0.58 c -0.04,-0.17 -0.26,-1.04 -0.28,-1.12 -0.01,0 -0.31,-0.6 -0.86,-0.6 -0.47,0 -0.47,0.45 -0.47,0.57 0,0.38 0.16,0.82 0.37,1.35 0.08,0.23 0.12,0.31 0.12,0.43 0,0.33 -0.29,0.59 -0.67,0.59 -0.7,0 -1.01,-0.95 -1.01,-1.07 0,-0.09 0.1,-0.09 0.12,-0.09 0.09,0 0.1,0.04 0.12,0.11 0.18,0.58 0.48,0.85 0.75,0.85 0.12,0 0.18,-0.07 0.18,-0.24 0,-0.16 -0.06,-0.31 -0.1,-0.4 -0.33,-0.85 -0.4,-1.11 -0.4,-1.41 0,-0.12 0,-0.45 0.27,-0.67 0.21,-0.18 0.51,-0.22 0.69,-0.22 0.28,0 0.53,0.11 0.76,0.31 -0.09,-0.38 -0.16,-0.67 -0.46,-1.02 -0.18,-0.21 -0.46,-0.44 -0.83,-0.44 -0.05,0 -0.38,0 -0.52,0.23 0.37,0.04 0.37,0.37 0.37,0.38 0,0.22 -0.2,0.26 -0.27,0.26 -0.17,0 -0.4,-0.14 -0.4,-0.46 0,-0.35 0.33,-0.61 0.83,-0.61 0.7,0 1.56,0.55 1.77,1.41 z"
       id="path7605" /></g>  <g
     style="font-style:normal;font-variant:normal;font-weight:normal;font-stretch:normal;letter-spacing:normal;word-spacing:normal;text-anchor:start;fill:none;stroke:#000000;stroke-linecap:butt;stroke-linejoin:miter;stroke-miterlimit:10.43299961;stroke-opacity:1;stroke-dasharray:none;stroke-dashoffset:0"
     ns0:preamble="/home/andre/Copy/Inkscape/preamble.ini"
     ns0:text="\\[\\mathbf{t}_x\\]"
     word-spacing="normal"
     letter-spacing="normal"
     font-size-adjust="none"
     font-stretch="normal"
     font-weight="normal"
     font-variant="normal"
     font-style="normal"
     stroke-miterlimit="10.433"
     xml:space="preserve"
     transform="matrix(1.6753455,0,0,-1.6753455,-269.00427,1292.1858)"
     id="content-6"><path
       id="path7485"
       d="m 391.58,711.07 v -2.72 c 0,-1.07 0.86,-1.28 1.57,-1.28 0.75,0 1.2,0.56 1.2,1.29 v 0.52 h -0.46 v -0.5 c 0,-0.68 -0.32,-0.92 -0.6,-0.92 -0.58,0 -0.58,0.64 -0.58,0.87 v 2.74 h 1.45 v 0.47 h -1.45 v 1.89 h -0.47 c -0.01,-0.99 -0.49,-1.97 -1.48,-2 v -0.36 z"
       inkscape:connector-curvature="0"
       style="fill:#000000;stroke-width:0" /><path
       id="path7487"
       d="m 396.74,706.37 -0.01,-0.02 0,-0.03 -0.01,-0.02 -0.01,-0.03 -0.01,-0.02 -0.01,-0.03 -0.02,-0.02 -0.01,-0.03 -0.01,-0.02 -0.02,-0.03 -0.02,-0.02 -0.01,-0.03 -0.02,-0.02 -0.02,-0.03 -0.02,-0.02 -0.02,-0.03 -0.02,-0.02 -0.02,-0.02 -0.02,-0.02 -0.03,-0.02 -0.02,-0.02 -0.03,-0.02 -0.02,-0.02 -0.03,-0.01 -0.03,-0.02 -0.03,-0.01 -0.03,-0.01 -0.03,-0.01 -0.03,0 -0.03,-0.01 -0.03,0 -0.03,0 c -0.02,0 -0.23,0 -0.38,0.09 0.29,0.09 0.31,0.34 0.31,0.39 0,0.15 -0.12,0.25 -0.28,0.25 -0.2,0 -0.4,-0.16 -0.4,-0.42 0,-0.35 0.39,-0.51 0.73,-0.51 0.32,0 0.61,0.2 0.78,0.49 0.17,-0.36 0.55,-0.49 0.83,-0.49 0.8,0 1.23,0.87 1.23,1.06 0,0.1 -0.09,0.1 -0.11,0.1 -0.1,0 -0.11,-0.04 -0.14,-0.12 -0.14,-0.48 -0.56,-0.84 -0.95,-0.84 -0.28,0 -0.43,0.18 -0.43,0.45 0,0.18 0.17,0.81 0.37,1.58 0.14,0.54 0.45,0.71 0.68,0.71 0.01,0 0.23,0 0.37,-0.09 -0.22,-0.07 -0.3,-0.26 -0.3,-0.39 0,-0.15 0.12,-0.25 0.28,-0.25 0.16,0 0.39,0.13 0.39,0.42 0,0.39 -0.45,0.51 -0.73,0.51 -0.35,0 -0.62,-0.23 -0.78,-0.5 -0.12,0.29 -0.44,0.5 -0.83,0.5 -0.78,0 -1.23,-0.86 -1.23,-1.07 0,-0.09 0.1,-0.09 0.12,-0.09 0.09,0 0.1,0.03 0.13,0.12 0.18,0.54 0.61,0.84 0.96,0.84 0.23,0 0.41,-0.12 0.41,-0.46 0,-0.13 -0.08,-0.48 -0.14,-0.72 z"
       inkscape:connector-curvature="0"
       style="fill:#000000;stroke-width:0" /></g>  <path
     inkscape:connector-curvature="0"
     id="path5959-0-3-8-0"
     d="m 135.0242,231.41369 53.11643,-6.44708"
     style="fill:none;stroke:#000000;stroke-width:2;stroke-linecap:butt;stroke-linejoin:miter;stroke-miterlimit:4;stroke-opacity:1;stroke-dasharray:none;marker-end:url(#Arrow1Mend)" />
  <path
     inkscape:connector-curvature="0"
     id="path5959-0-3-5-9-0"
     d="m 133.19945,230.05699 -6.3064,-53.13334"
     style="fill:none;stroke:#000000;stroke-width:2;stroke-linecap:butt;stroke-linejoin:miter;stroke-miterlimit:4;stroke-opacity:1;stroke-dasharray:none;marker-end:url(#Arrow1Mend)" />
  <g
     style="font-style:normal;font-variant:normal;font-weight:normal;font-stretch:normal;letter-spacing:normal;word-spacing:normal;text-anchor:start;fill:none;stroke:#000000;stroke-linecap:butt;stroke-linejoin:miter;stroke-miterlimit:10.43299961;stroke-opacity:1;stroke-dasharray:none;stroke-dashoffset:0"
     ns0:preamble="/home/andre/Copy/Inkscape/preamble.ini"
     ns0:text="\\[\\mathbf{s}_x\\]"
     word-spacing="normal"
     letter-spacing="normal"
     font-size-adjust="none"
     font-stretch="normal"
     font-weight="normal"
     font-variant="normal"
     font-style="normal"
     stroke-miterlimit="10.433"
     xml:space="preserve"
     transform="matrix(1.861495,0,0,-1.861495,-544.04052,1555.3228)"
     id="g7767"><path
       style="fill:#000000;stroke-width:0"
       inkscape:connector-curvature="0"
       id="path7769"
       d="m 392.62,710.05 -0.04,0 -0.03,0.01 -0.04,0.01 -0.04,0 -0.04,0.01 -0.04,0.01 -0.08,0.02 -0.09,0.02 -0.04,0.01 -0.04,0.02 -0.05,0.01 -0.04,0.02 -0.04,0.01 -0.04,0.02 -0.03,0.02 -0.04,0.02 -0.04,0.02 -0.03,0.02 -0.03,0.02 -0.03,0.03 -0.03,0.02 -0.03,0.03 -0.02,0.03 -0.02,0.03 -0.02,0.04 -0.01,0.01 -0.01,0.02 0,0.02 -0.01,0.02 0,0.02 -0.01,0.02 0,0.02 0,0.02 -0.01,0.02 0,0.02 c 0,0.62 0.93,0.62 1.12,0.62 0.74,0 1.12,-0.29 1.17,-0.84 0.01,-0.15 0.02,-0.2 0.23,-0.2 0.24,0 0.24,0.05 0.24,0.28 v 0.8 c 0,0.19 0,0.27 -0.18,0.27 -0.04,0 -0.06,0 -0.45,-0.18 -0.25,0.13 -0.6,0.18 -1,0.18 -0.3,0 -1.83,0 -1.83,-1.3 0,-0.39 0.2,-0.66 0.4,-0.83 0.39,-0.35 0.77,-0.41 1.54,-0.55 0.36,-0.06 1.1,-0.19 1.1,-0.77 0,-0.75 -0.91,-0.75 -1.13,-0.75 -1.06,0 -1.32,0.73 -1.43,1.16 -0.05,0.13 -0.1,0.13 -0.24,0.13 -0.24,0 -0.24,-0.05 -0.24,-0.28 v -1.09 c 0,-0.18 0,-0.27 0.18,-0.27 0.07,0 0.09,0 0.3,0.14 0.01,0 0.22,0.15 0.25,0.17 0.46,-0.31 0.98,-0.31 1.18,-0.31 0.31,0 1.84,0 1.84,1.45 0,0.42 -0.2,0.77 -0.55,1.05 -0.39,0.29 -0.71,0.35 -1.48,0.48 z" /><path
       style="fill:#000000;stroke-width:0"
       inkscape:connector-curvature="0"
       id="path7771"
       d="m 396.77,706.37 0,-0.02 -0.01,-0.03 -0.01,-0.02 -0.01,-0.03 -0.01,-0.02 -0.01,-0.03 -0.02,-0.02 -0.01,-0.03 -0.01,-0.02 -0.02,-0.03 -0.01,-0.02 -0.02,-0.03 -0.02,-0.02 -0.02,-0.03 -0.02,-0.02 -0.02,-0.03 -0.02,-0.02 -0.02,-0.02 -0.02,-0.02 -0.03,-0.02 -0.02,-0.02 -0.03,-0.02 -0.02,-0.02 -0.03,-0.01 -0.03,-0.02 -0.02,-0.01 -0.03,-0.01 -0.03,-0.01 -0.03,0 -0.04,-0.01 -0.03,0 -0.03,0 c -0.02,0 -0.23,0 -0.38,0.09 0.29,0.09 0.31,0.34 0.31,0.39 0,0.15 -0.12,0.25 -0.28,0.25 -0.19,0 -0.4,-0.16 -0.4,-0.42 0,-0.35 0.39,-0.51 0.74,-0.51 0.31,0 0.6,0.2 0.78,0.49 0.16,-0.36 0.54,-0.49 0.82,-0.49 0.8,0 1.23,0.87 1.23,1.06 0,0.1 -0.09,0.1 -0.11,0.1 -0.1,0 -0.11,-0.04 -0.13,-0.12 -0.15,-0.48 -0.57,-0.84 -0.96,-0.84 -0.28,0 -0.42,0.18 -0.42,0.45 0,0.18 0.16,0.81 0.36,1.58 0.14,0.54 0.45,0.71 0.68,0.71 0.02,0 0.23,0 0.38,-0.09 -0.23,-0.07 -0.31,-0.26 -0.31,-0.39 0,-0.15 0.12,-0.25 0.28,-0.25 0.16,0 0.39,0.13 0.39,0.42 0,0.39 -0.45,0.51 -0.72,0.51 -0.35,0 -0.63,-0.23 -0.78,-0.5 -0.13,0.29 -0.45,0.5 -0.84,0.5 -0.78,0 -1.23,-0.86 -1.23,-1.07 0,-0.09 0.1,-0.09 0.12,-0.09 0.09,0 0.1,0.03 0.13,0.12 0.18,0.54 0.62,0.84 0.96,0.84 0.23,0 0.42,-0.12 0.42,-0.46 0,-0.13 -0.09,-0.48 -0.15,-0.72 z" /></g>  <g
     id="g7888"
     transform="matrix(1.861495,0,0,-1.861495,-621.0705,1492.0419)"
     xml:space="preserve"
     stroke-miterlimit="10.433"
     font-style="normal"
     font-variant="normal"
     font-weight="normal"
     font-stretch="normal"
     font-size-adjust="none"
     letter-spacing="normal"
     word-spacing="normal"
     ns0:text="\\[\\mathbf{s}_y\\]"
     ns0:preamble="/home/andre/Copy/Inkscape/preamble.ini"
     style="font-style:normal;font-variant:normal;font-weight:normal;font-stretch:normal;letter-spacing:normal;word-spacing:normal;text-anchor:start;fill:none;stroke:#000000;stroke-linecap:butt;stroke-linejoin:miter;stroke-miterlimit:10.43299961;stroke-opacity:1;stroke-dasharray:none;stroke-dashoffset:0"><path
       style="fill:#000000;stroke-width:0"
       inkscape:connector-curvature="0"
       d="m 392.73,710.05 -0.03,0 -0.04,0.01 -0.04,0.01 -0.04,0 -0.04,0.01 -0.04,0.01 -0.08,0.02 -0.09,0.02 -0.04,0.01 -0.04,0.02 -0.04,0.01 -0.04,0.02 -0.04,0.01 -0.04,0.02 -0.04,0.02 -0.04,0.02 -0.03,0.02 -0.04,0.02 -0.03,0.02 -0.03,0.03 -0.03,0.02 -0.03,0.03 -0.02,0.03 -0.02,0.03 -0.02,0.04 -0.01,0.01 0,0.02 -0.01,0.02 -0.01,0.02 0,0.02 0,0.02 -0.01,0.02 0,0.02 0,0.02 0,0.02 c 0,0.62 0.92,0.62 1.11,0.62 0.75,0 1.13,-0.29 1.18,-0.84 0.01,-0.15 0.02,-0.2 0.23,-0.2 0.23,0 0.23,0.05 0.23,0.28 v 0.8 c 0,0.19 0,0.27 -0.17,0.27 -0.04,0 -0.06,0 -0.45,-0.18 -0.26,0.13 -0.61,0.18 -1.01,0.18 -0.3,0 -1.83,0 -1.83,-1.3 0,-0.39 0.2,-0.66 0.4,-0.83 0.4,-0.35 0.78,-0.41 1.54,-0.55 0.36,-0.06 1.11,-0.19 1.11,-0.77 0,-0.75 -0.92,-0.75 -1.14,-0.75 -1.05,0 -1.31,0.73 -1.43,1.16 -0.05,0.13 -0.1,0.13 -0.24,0.13 -0.24,0 -0.24,-0.05 -0.24,-0.28 v -1.09 c 0,-0.18 0,-0.27 0.18,-0.27 0.07,0 0.09,0 0.3,0.14 0.01,0 0.23,0.15 0.26,0.17 0.46,-0.31 0.97,-0.31 1.17,-0.31 0.31,0 1.84,0 1.84,1.45 0,0.42 -0.2,0.77 -0.54,1.05 -0.39,0.29 -0.71,0.35 -1.49,0.48 z"
       id="path7890" /><path
       style="fill:#000000;stroke-width:0"
       inkscape:connector-curvature="0"
       d="m 399.02,708.25 0.01,0.01 0,0 0,0.01 0,0 0,0 0,0.01 0,0.01 0.01,0 0,0.01 0,0.01 0,0 0,0.01 0,0 0.01,0.01 0,0 0,0.01 0,0 0,0.01 0,0 0,0 0,0.01 0,0 0,0 0,0.01 0,0.01 0,0 0,0.01 0,0 0,0.01 0,0 0,0.01 c 0,0.13 -0.11,0.22 -0.23,0.22 -0.07,0 -0.21,-0.04 -0.28,-0.17 -0.02,-0.04 -0.08,-0.26 -0.11,-0.4 l -0.15,-0.58 c -0.04,-0.17 -0.26,-1.04 -0.28,-1.12 -0.01,0 -0.31,-0.6 -0.86,-0.6 -0.47,0 -0.47,0.45 -0.47,0.57 0,0.38 0.16,0.82 0.37,1.35 0.08,0.23 0.12,0.31 0.12,0.43 0,0.33 -0.29,0.59 -0.66,0.59 -0.71,0 -1.02,-0.95 -1.02,-1.07 0,-0.09 0.1,-0.09 0.12,-0.09 0.1,0 0.1,0.04 0.12,0.11 0.18,0.58 0.48,0.85 0.76,0.85 0.12,0 0.17,-0.07 0.17,-0.24 0,-0.16 -0.06,-0.31 -0.1,-0.4 -0.33,-0.85 -0.4,-1.11 -0.4,-1.41 0,-0.12 0,-0.45 0.27,-0.67 0.22,-0.18 0.51,-0.22 0.7,-0.22 0.28,0 0.53,0.11 0.76,0.31 -0.09,-0.38 -0.17,-0.67 -0.46,-1.02 -0.19,-0.21 -0.47,-0.44 -0.84,-0.44 -0.05,0 -0.38,0 -0.52,0.23 0.37,0.04 0.37,0.37 0.37,0.38 0,0.22 -0.2,0.26 -0.27,0.26 -0.17,0 -0.4,-0.14 -0.4,-0.46 0,-0.35 0.33,-0.61 0.83,-0.61 0.7,0 1.56,0.55 1.77,1.41 z"
       id="path7892" /></g></svg>
